%FSTAX23Y23*%
%MOIN*%
%SFA1B1*%

%IPPOS*%
%ADD10C,0.007870*%
%ADD11C,0.003940*%
%ADD13C,0.003940*%
%ADD15C,0.005000*%
%ADD17C,0.010000*%
%LNdextrems_v1-1*%
%LPD*%
G54D10*
X00017Y-00128D02*
X0023D01*
X00017D02*
Y-00019D01*
X0023*
Y-00128D02*
Y-00019D01*
X00048Y-0021D02*
Y-00178D01*
X00095Y-0021D02*
Y-00178D01*
X00032Y-0021D02*
X00095D01*
X00032D02*
Y-00178D01*
X00095*
X02285Y-00214D02*
Y-00183D01*
X02332Y-00214D02*
Y-00183D01*
X02269Y-00214D02*
X02332D01*
X02269D02*
Y-00183D01*
X02332*
X02344Y-00128D02*
Y-00019D01*
X02132D02*
X02344D01*
X02132Y-00128D02*
Y-00019D01*
Y-00128D02*
X02344D01*
X01768Y-00049D02*
Y-00018D01*
X01815Y-00049D02*
Y-00018D01*
X01752Y-00049D02*
X01815D01*
X01752D02*
Y-00018D01*
X01815*
X00527Y-00016D02*
X0059D01*
X00527Y-00048D02*
Y-00016D01*
Y-00048D02*
X0059D01*
Y-00016*
X00543Y-00048D02*
Y-00016D01*
X01089Y-00015D02*
X01152D01*
X01089Y-00047D02*
Y-00015D01*
Y-00047D02*
X01152D01*
Y-00015*
X01105Y-00047D02*
Y-00015D01*
X00356Y-00015D02*
X00419D01*
X00356Y-00047D02*
Y-00015D01*
Y-00047D02*
X00419D01*
Y-00015*
X00372Y-00047D02*
Y-00015D01*
X00052Y-00846D02*
X00115D01*
X00052Y-00877D02*
Y-00846D01*
Y-00877D02*
X00115D01*
Y-00846*
X00067Y-00877D02*
Y-00846D01*
X00054Y-00571D02*
X00117D01*
Y-0054*
X00054D02*
X00117D01*
X00054Y-00571D02*
Y-0054D01*
X00101Y-00571D02*
Y-0054D01*
X0194Y-00015D02*
X02003D01*
X0194Y-00047D02*
Y-00015D01*
Y-00047D02*
X02003D01*
Y-00015*
X01955Y-00047D02*
Y-00015D01*
X01198D02*
X01261D01*
X01198Y-00047D02*
Y-00015D01*
Y-00047D02*
X01261D01*
Y-00015*
X01214Y-00047D02*
Y-00015D01*
X00853Y-00999D02*
Y-00739D01*
X00704Y-00999D02*
X00853D01*
X00704D02*
Y-00739D01*
X00853*
X00616Y-00322D02*
X01006D01*
Y-00562D02*
Y-00322D01*
X00616Y-00562D02*
X01006D01*
X00616D02*
Y-00322D01*
X00027Y-00605D02*
X00136D01*
X00027Y-00818D02*
Y-00605D01*
Y-00818D02*
X00136D01*
Y-00605*
X01427Y-00128D02*
X01639D01*
X01427D02*
Y-00019D01*
X01639*
Y-00128D02*
Y-00019D01*
X00722Y-00128D02*
X00935D01*
X00722D02*
Y-00019D01*
X00935*
Y-00128D02*
Y-00019D01*
X00234Y-00727D02*
Y-0068D01*
X00195Y-00727D02*
X00234D01*
X00195D02*
Y-0068D01*
X00234*
G54D11*
X00163Y-00982D03*
X00055Y-00304D03*
G54D13*
X00165Y-00949D02*
X00173Y-00939D01*
X00146Y-00932D02*
X00155Y-00923D01*
X00146Y-00932D02*
X00165Y-00949D01*
X00155Y-00923D02*
X00173Y-00939D01*
X02237Y-0021D02*
X0225D01*
X02237Y-00185D02*
X0225D01*
X02237Y-0021D02*
Y-00185D01*
X0225Y-0021D02*
Y-00185D01*
X01697Y-00039D02*
X01722D01*
X01697Y-00026D02*
X01722D01*
Y-00039D02*
Y-00026D01*
X01697Y-00039D02*
Y-00026D01*
X00619Y-00024D02*
X00643D01*
X00619Y-00037D02*
X00643D01*
X00619D02*
Y-00024D01*
X00643Y-00037D02*
Y-00024D01*
X0103Y-00037D02*
X01055D01*
X0103Y-00024D02*
X01055D01*
Y-00037D02*
Y-00024D01*
X0103Y-00037D02*
Y-00024D01*
X00113Y-00206D02*
Y-00181D01*
X00126Y-00206D02*
Y-00181D01*
X00113Y-00206D02*
X00126D01*
X00113Y-00181D02*
X00126D01*
X00287Y-0004D02*
X00312D01*
X00287Y-00027D02*
X00312D01*
Y-0004D02*
Y-00027D01*
X00287Y-0004D02*
Y-00027D01*
X00144Y-00874D02*
Y-00849D01*
X00157Y-00874D02*
Y-00849D01*
X00144Y-00874D02*
X00157D01*
X00144Y-00849D02*
X00157D01*
X00142Y-00568D02*
Y-00543D01*
X00155Y-00568D02*
Y-00543D01*
X00142Y-00568D02*
X00155D01*
X00142Y-00543D02*
X00155D01*
X02053Y-00022D02*
X02078D01*
X02053Y-00035D02*
X02078D01*
X02053D02*
Y-00022D01*
X02078Y-00035D02*
Y-00022D01*
X01319Y-00024D02*
X01344D01*
X01319Y-00037D02*
X01344D01*
X01319D02*
Y-00024D01*
X01344Y-00037D02*
Y-00024D01*
X00349Y-001D02*
X00368Y-0012D01*
X0029Y-001D02*
X00368D01*
X0029Y-00179D02*
Y-001D01*
Y-00179D02*
X00368D01*
Y-001*
X00641Y-00178D02*
Y-001D01*
X00562Y-00178D02*
X00641D01*
X00562D02*
Y-001D01*
X00641*
X00621D02*
X00641Y-00119D01*
X00578Y-01009D02*
X00608Y-00979D01*
Y-01009D02*
Y-0089D01*
X00489D02*
X00608D01*
X00489Y-01009D02*
Y-0089D01*
Y-01009D02*
X00608D01*
X00245Y-00929D02*
X00324D01*
Y-01007D02*
Y-00929D01*
X00245Y-01007D02*
X00324D01*
X00245D02*
Y-00929D01*
Y-00948D02*
X00265Y-00929D01*
X00245Y-00801D02*
X00324D01*
Y-0088D02*
Y-00801D01*
X00245Y-0088D02*
X00324D01*
X00245D02*
Y-00801D01*
Y-0082D02*
X00265Y-00801D01*
X01102Y-00102D02*
X01122Y-00122D01*
X01043Y-00102D02*
X01122D01*
X01043Y-00181D02*
Y-00102D01*
Y-00181D02*
X01122D01*
Y-00102*
X01287Y-00102D02*
X01307Y-00122D01*
X01228Y-00102D02*
X01307D01*
X01228Y-00181D02*
Y-00102D01*
Y-00181D02*
X01307D01*
Y-00102*
X00272Y-00726D02*
X00284D01*
Y-00703*
X00272D02*
X00284D01*
X00272Y-00726D02*
Y-00703D01*
X00174Y-00623D02*
X00185D01*
X00174Y-00646D02*
Y-00623D01*
Y-00646D02*
X00185D01*
Y-00623*
X01916Y-00179D02*
Y-001D01*
X01837Y-00179D02*
X01916D01*
X01837D02*
Y-001D01*
X01916*
X01896D02*
X01916Y-0012D01*
X0205Y-00181D02*
Y-00102D01*
X01971Y-00181D02*
X0205D01*
X01971D02*
Y-00102D01*
X0205*
X0203D02*
X0205Y-00122D01*
X01778Y-00179D02*
Y-001D01*
X01699Y-00179D02*
X01778D01*
X01699D02*
Y-001D01*
X01778*
X01758D02*
X01778Y-0012D01*
X00507Y-00178D02*
Y-001D01*
X00428Y-00178D02*
X00507D01*
X00428D02*
Y-001D01*
X00507*
X00487D02*
X00507Y-00119D01*
X00094Y-00285D02*
Y-00261D01*
X00081Y-00285D02*
Y-00261D01*
X00094*
X00081Y-00285D02*
X00094D01*
G54D15*
X00145Y-00975D02*
X00156Y-00962D01*
X00135Y-00943D02*
X00156Y-00962D01*
X00123Y-00956D02*
X00135Y-00943D01*
X00123Y-00956D02*
X00145Y-00975D01*
X00048Y-00287D02*
Y-00259D01*
X00065*
Y-00287D02*
Y-00259D01*
X00048Y-00287D02*
X00065D01*
G54D17*
X00363Y-01037D02*
X00561Y-0121D01*
X00494Y-01288D02*
X00561Y-0121D01*
X00295Y-01114D02*
X00494Y-01288D01*
X00295Y-01114D02*
X00363Y-01037D01*
X00359Y-01248D02*
X00398Y-01203D01*
X00359Y-01248D02*
X00398Y-01282D01*
X00436Y-01237*
M02*