%FSTAX23Y23*%
%MOIN*%
%SFA1B1*%

%IPPOS*%
%ADD10C,0.007870*%
%ADD11C,0.003940*%
%ADD12C,0.009840*%
%ADD13C,0.003940*%
%ADD14C,0.010000*%
%ADD15C,0.005000*%
%ADD16C,0.004920*%
%ADD17C,0.010000*%
%ADD18C,0.006000*%
%LNdextrems_v1-1*%
%LPD*%
G54D10*
X00175Y-00159D02*
X00167D01*
X00175*
X00092Y-00229D02*
X00086D01*
X00092*
X02329Y-00234D02*
X02323D01*
X02329*
X02281Y-00159D02*
X02289D01*
X02281*
X01812Y-00069D02*
X01807D01*
X01812*
X00587Y-00067D02*
X00581D01*
X00587*
X01149Y-00066D02*
X01143D01*
X01149*
X00416Y-00066D02*
X0041D01*
X00416*
X00112Y-00897D02*
X00106D01*
X00112*
X00063Y-0052D02*
X00057D01*
X00063*
X01999Y-00066D02*
X01994D01*
X01999*
X01258D02*
X01252D01*
X01258*
X00077Y-00496D02*
X00069D01*
X00077*
X00168Y-00668D02*
Y-0066D01*
Y-00668*
X01584Y-00159D02*
X01577D01*
X01584*
X0088D02*
X00872D01*
X0088*
X00652Y-00649D02*
X0066D01*
X00652Y-00625D02*
X0066D01*
X00564Y-00424D02*
Y-00404D01*
X00544D02*
X00564D01*
X00328D02*
X00348D01*
X00328Y-00424D02*
Y-00404D01*
Y-0064D02*
Y-0062D01*
Y-0064D02*
X00348D01*
X00544D02*
X00564Y-0062D01*
X00544Y-00676D02*
X00552D01*
X00544Y-007D02*
X00552D01*
G54D11*
X00163Y-00982D03*
X00055Y-00304D03*
G54D12*
X00662Y-00084D02*
X00654Y-0008D01*
Y-00088*
X00662Y-00084*
X00628Y-01014D02*
X00621Y-0101D01*
Y-01019*
X00628Y-01014*
X01142Y-00087D02*
X01135Y-00082D01*
Y-00091*
X01142Y-00087*
X01328Y-00087D02*
X0132Y-00082D01*
Y-00091*
X01328Y-00087*
X00235Y-00913D02*
X00227Y-00909D01*
Y-00917*
X00235Y-00913*
X00235Y-00785D02*
X00227Y-00781D01*
Y-00789*
X00235Y-00785*
X00604Y-00609D02*
X00597Y-00604D01*
Y-00613*
X00604Y-00609*
X01936Y-00085D02*
X01929Y-0008D01*
Y-00089*
X01936Y-00085*
X0207Y-00086D02*
X02063Y-00082D01*
Y-0009*
X0207Y-00086*
X01799Y-00085D02*
X01791Y-0008D01*
Y-00089*
X01799Y-00085*
X00389Y-00085D02*
X00382Y-0008D01*
Y-00089*
X00389Y-00085*
X00528Y-00084D02*
X0052Y-0008D01*
Y-00088*
X00528Y-00084*
G54D13*
X00183Y-0069D02*
Y-00686D01*
Y-0069*
X00202Y-00128D02*
X0023D01*
Y-00089*
X00017Y-00128D02*
X00045D01*
X00017D02*
Y-00089D01*
X00064Y-00019D02*
X00183D01*
X02179D02*
X02297D01*
X02132Y-00128D02*
Y-00089D01*
Y-00128D02*
X02159D01*
X02344D02*
Y-00089D01*
X02317Y-00128D02*
X02344D01*
X00704Y-00999D02*
X00739D01*
X00704D02*
Y-00948D01*
Y-00739D02*
X00739D01*
X00704Y-0079D02*
Y-00739D01*
X00616Y-00322D02*
X01006D01*
Y-00562D02*
Y-00322D01*
X00616Y-00562D02*
X01006D01*
X00616D02*
Y-00322D01*
X00027Y-00771D02*
Y-00652D01*
X00097Y-00818D02*
X00136D01*
Y-0079*
X00097Y-00605D02*
X00136D01*
Y-00633D02*
Y-00605D01*
X01612Y-00128D02*
X01639D01*
Y-00089*
X01427Y-00128D02*
X01454D01*
X01427D02*
Y-00089D01*
X01474Y-00019D02*
X01592D01*
X00907Y-00128D02*
X00935D01*
Y-00089*
X00722Y-00128D02*
X0075D01*
X00722D02*
Y-00089D01*
X00769Y-00019D02*
X00887D01*
G54D14*
X00409Y-01006D03*
G54D15*
X00088Y-00441D02*
Y-00362D01*
X00025Y-00441D02*
Y-00362D01*
X0028Y-00338D02*
Y-00319D01*
X0029*
X00293Y-00322*
Y-00328*
X0029Y-00331*
X0028*
X00312Y-00338D02*
X00299D01*
X00312Y-00325*
Y-00322*
X00309Y-00319*
X00303*
X00299Y-00322*
X00331Y-00338D02*
X00318D01*
X00331Y-00325*
Y-00322*
X00328Y-00319*
X00322*
X00318Y-00322*
X00204Y-00337D02*
Y-00318D01*
X00213*
X00216Y-00321*
Y-00327*
X00213Y-00331*
X00204*
X00235Y-00337D02*
X00222D01*
X00235Y-00324*
Y-00321*
X00232Y-00318*
X00226*
X00222Y-00321*
X00241D02*
X00245Y-00318D01*
X00251*
X00254Y-00321*
Y-00324*
X00251Y-00327*
X00248*
X00251*
X00254Y-00331*
Y-00334*
X00251Y-00337*
X00245*
X00241Y-00334*
X00254Y-00136D02*
X00247D01*
X00251*
Y-00152*
X00247Y-00155*
X00244*
X00241Y-00152*
X0027Y-00155D02*
Y-00136D01*
X0026Y-00145*
X00273*
X00022Y-00227D02*
Y-00246D01*
X00032*
X00035Y-00243*
Y-0023*
X00032Y-00227*
X00022*
X00054D02*
X00047Y-0023D01*
X00041Y-00237*
Y-00243*
X00044Y-00246*
X00051*
X00054Y-00243*
Y-0024*
X00051Y-00237*
X00041*
X00135Y-00909D02*
Y-0089D01*
X00145*
X00148Y-00893*
Y-00899*
X00145Y-00903*
X00135*
X00142D02*
X00148Y-00909D01*
X00154D02*
X00161D01*
X00158*
Y-0089*
X00154Y-00893*
X00102Y-00923D02*
Y-00942D01*
X00112*
X00115Y-00939*
Y-00926*
X00112Y-00923*
X00102*
X00121Y-00942D02*
X00128D01*
X00125*
Y-00923*
X00121Y-00926*
X02211Y-00263D02*
Y-00244D01*
X0222*
X02223Y-00247*
Y-00254*
X0222Y-00257*
X02211*
X02217D02*
X02223Y-00263D01*
X0223D02*
X02236D01*
X02233*
Y-00244*
X0223Y-00247*
X02245Y-00263D02*
X02252D01*
X02249*
Y-00244*
X02245Y-00247*
X02279Y-00244D02*
Y-00263D01*
X02288*
X02291Y-0026*
Y-00247*
X02288Y-00244*
X02279*
X02298Y-00263D02*
X02304D01*
X02301*
Y-00244*
X02298Y-00247*
X02313Y-00263D02*
X0232D01*
X02317*
Y-00244*
X02313Y-00247*
X0218Y-00162D02*
X02174D01*
X02177*
Y-00178*
X02174Y-00181*
X02171*
X02168Y-00178*
X02187Y-00162D02*
X02199D01*
Y-00165*
X02187Y-00178*
Y-00181*
X01658Y-00011D02*
Y-0003D01*
X01667*
X0167Y-00027*
Y-00014*
X01667Y-00011*
X01658*
X01677Y-00027D02*
X0168Y-0003D01*
X01686*
X01689Y-00027*
Y-00014*
X01686Y-00011*
X0168*
X01677Y-00014*
Y-00017*
X0168Y-0002*
X01689*
X02072Y-00076D02*
Y-00057D01*
X02081*
X02085Y-0006*
Y-00066*
X02081Y-0007*
X02072*
X02078D02*
X02085Y-00076D01*
X02091D02*
X02097D01*
X02094*
Y-00057*
X02091Y-0006*
X02119Y-00076D02*
X02107D01*
X02119Y-00063*
Y-0006*
X02116Y-00057*
X0211*
X02107Y-0006*
X01366Y-00028D02*
Y-00009D01*
X01375*
X01378Y-00012*
Y-00018*
X01375Y-00021*
X01366*
X01372D02*
X01378Y-00028D01*
X01385D02*
X01391D01*
X01388*
Y-00009*
X01385Y-00012*
X01401D02*
X01404Y-00009D01*
X0141*
X01413Y-00012*
Y-00025*
X0141Y-00028*
X01404*
X01401Y-00025*
Y-00012*
X01695Y-00072D02*
Y-00053D01*
X01705*
X01708Y-00057*
Y-00063*
X01705Y-00066*
X01695*
X01702D02*
X01708Y-00072D01*
X01714Y-00069D02*
X01718Y-00072D01*
X01724*
X01727Y-00069*
Y-00057*
X01724Y-00053*
X01718*
X01714Y-00057*
Y-0006*
X01718Y-00063*
X01727*
X00673Y-00031D02*
Y-00012D01*
X00683*
X00686Y-00016*
Y-00022*
X00683Y-00025*
X00673*
X0068D02*
X00686Y-00031D01*
X00692Y-00016D02*
X00696Y-00012D01*
X00702*
X00705Y-00016*
Y-00019*
X00702Y-00022*
X00705Y-00025*
Y-00028*
X00702Y-00031*
X00696*
X00692Y-00028*
Y-00025*
X00696Y-00022*
X00692Y-00019*
Y-00016*
X00696Y-00022D02*
X00702D01*
X01021Y-00073D02*
Y-00054D01*
X0103*
X01033Y-00058*
Y-00064*
X0103Y-00067*
X01021*
X01027D02*
X01033Y-00073D01*
X0104Y-00054D02*
X01052D01*
Y-00058*
X0104Y-0007*
Y-00073*
X00138Y-00202D02*
Y-00183D01*
X00147*
X0015Y-00187*
Y-00193*
X00147Y-00196*
X00138*
X00144D02*
X0015Y-00202D01*
X00169Y-00183D02*
X00163Y-00187D01*
X00157Y-00193*
Y-00199*
X0016Y-00202*
X00166*
X00169Y-00199*
Y-00196*
X00166Y-00193*
X00157*
X00261Y-00071D02*
Y-00052D01*
X0027*
X00273Y-00055*
Y-00062*
X0027Y-00065*
X00261*
X00267D02*
X00273Y-00071D01*
X00292Y-00052D02*
X0028D01*
Y-00062*
X00286Y-00058*
X00289*
X00292Y-00062*
Y-00068*
X00289Y-00071*
X00283*
X0028Y-00068*
X00151Y-00835D02*
Y-00816D01*
X0016*
X00164Y-00819*
Y-00826*
X0016Y-00829*
X00151*
X00157D02*
X00164Y-00835D01*
X00179D02*
Y-00816D01*
X0017Y-00826*
X00183*
X00167Y-00565D02*
Y-00546D01*
X00176*
X00179Y-00549*
Y-00555*
X00176Y-00558*
X00167*
X00173D02*
X00179Y-00565D01*
X00186Y-00549D02*
X00189Y-00546D01*
X00195*
X00198Y-00549*
Y-00552*
X00195Y-00555*
X00192*
X00195*
X00198Y-00558*
Y-00562*
X00195Y-00565*
X00189*
X00186Y-00562*
X01871Y-00028D02*
Y-00047D01*
X0188*
X01883Y-00044*
Y-00031*
X0188Y-00028*
X01871*
X0189Y-00047D02*
X01896D01*
X01893*
Y-00028*
X0189Y-00031*
X01918Y-00047D02*
X01906D01*
X01918Y-00034*
Y-00031*
X01915Y-00028*
X01909*
X01906Y-00031*
X01186Y-00062D02*
Y-00081D01*
X01196*
X01199Y-00078*
Y-00065*
X01196Y-00062*
X01186*
X01205Y-00081D02*
X01211D01*
X01208*
Y-00062*
X01205Y-00065*
X01221D02*
X01224Y-00062D01*
X0123*
X01234Y-00065*
Y-00078*
X0123Y-00081*
X01224*
X01221Y-00078*
Y-00065*
X00479Y-00009D02*
Y-00028D01*
X00488*
X00491Y-00025*
Y-00012*
X00488Y-00009*
X00479*
X00498Y-00012D02*
X00501Y-00009D01*
X00507*
X0051Y-00012*
Y-00015*
X00507Y-00018*
X0051Y-00021*
Y-00025*
X00507Y-00028*
X00501*
X00498Y-00025*
Y-00021*
X00501Y-00018*
X00498Y-00015*
Y-00012*
X00501Y-00018D02*
X00507D01*
X00971Y-00012D02*
Y-00031D01*
X00981*
X00984Y-00028*
Y-00016*
X00981Y-00012*
X00971*
X0099D02*
X01003D01*
Y-00016*
X0099Y-00028*
Y-00031*
X00438Y-0004D02*
Y-00059D01*
X00448*
X00451Y-00056*
Y-00043*
X00448Y-0004*
X00438*
X0047D02*
X00457D01*
Y-0005*
X00463Y-00046*
X00467*
X0047Y-0005*
Y-00056*
X00467Y-00059*
X0046*
X00457Y-00056*
X00007Y-00842D02*
Y-00861D01*
X00016*
X00019Y-00858*
Y-00845*
X00016Y-00842*
X00007*
X00035Y-00861D02*
Y-00842D01*
X00026Y-00852*
X00038*
X00071Y-00503D02*
Y-00522D01*
X00081*
X00084Y-00519*
Y-00506*
X00081Y-00503*
X00071*
X0009Y-00506D02*
X00093Y-00503D01*
X001*
X00103Y-00506*
Y-00509*
X001Y-00512*
X00097*
X001*
X00103Y-00515*
Y-00519*
X001Y-00522*
X00093*
X0009Y-00519*
X00844Y-00697D02*
X00838D01*
X00841*
Y-00713*
X00838Y-00716*
X00835*
X00832Y-00713*
X00851Y-007D02*
X00854Y-00697D01*
X0086*
X00863Y-007*
Y-00703*
X0086Y-00707*
X00863Y-0071*
Y-00713*
X0086Y-00716*
X00854*
X00851Y-00713*
Y-0071*
X00854Y-00707*
X00851Y-00703*
Y-007*
X00854Y-00707D02*
X0086D01*
X01651Y-00172D02*
X01645D01*
X01648*
Y-00188*
X01645Y-00191*
X01642*
X01639Y-00188*
X0167Y-00172D02*
X01664Y-00175D01*
X01658Y-00182*
Y-00188*
X01661Y-00191*
X01667*
X0167Y-00188*
Y-00185*
X01667Y-00182*
X01658*
X00919Y-00152D02*
X00913D01*
X00916*
Y-00168*
X00913Y-00171*
X0091*
X00907Y-00168*
X00938Y-00152D02*
X00926D01*
Y-00161*
X00932Y-00158*
X00935*
X00938Y-00161*
Y-00168*
X00935Y-00171*
X00929*
X00926Y-00168*
X00019Y-00568D02*
X00013D01*
X00016*
Y-00584*
X00013Y-00587*
X0001*
X00007Y-00584*
X00026Y-00571D02*
X00029Y-00568D01*
X00035*
X00038Y-00571*
Y-00574*
X00035Y-00577*
X00032*
X00035*
X00038Y-0058*
Y-00584*
X00035Y-00587*
X00029*
X00026Y-00584*
X02106Y-00181D02*
X02103Y-00178D01*
X02096*
X02093Y-00181*
Y-00194*
X02096Y-00197*
X02103*
X02106Y-00194*
X02112Y-00181D02*
X02115Y-00178D01*
X02122*
X02125Y-00181*
Y-00184*
X02122Y-00187*
X02119*
X02122*
X02125Y-0019*
Y-00194*
X02122Y-00197*
X02115*
X02112Y-00194*
X02131Y-00181D02*
X02134Y-00178D01*
X02141*
X02144Y-00181*
Y-00184*
X02141Y-00187*
X02137*
X02141*
X02144Y-0019*
Y-00194*
X02141Y-00197*
X02134*
X02131Y-00194*
X02108Y-00142D02*
X02105Y-00139D01*
X02099*
X02096Y-00142*
Y-00155*
X02099Y-00158*
X02105*
X02108Y-00155*
X02115Y-00142D02*
X02118Y-00139D01*
X02124*
X02127Y-00142*
Y-00145*
X02124Y-00149*
X02121*
X02124*
X02127Y-00152*
Y-00155*
X02124Y-00158*
X02118*
X02115Y-00155*
X02146Y-00158D02*
X02134D01*
X02146Y-00145*
Y-00142*
X02143Y-00139*
X02137*
X02134Y-00142*
X01359Y-0021D02*
X01356Y-00207D01*
X0135*
X01347Y-0021*
Y-00223*
X0135Y-00226*
X01356*
X01359Y-00223*
X01378Y-00226D02*
X01366D01*
X01378Y-00213*
Y-0021*
X01375Y-00207*
X01369*
X01366Y-0021*
X01385Y-00223D02*
X01388Y-00226D01*
X01394*
X01397Y-00223*
Y-0021*
X01394Y-00207*
X01388*
X01385Y-0021*
Y-00213*
X01388Y-00217*
X01397*
X01365Y-00069D02*
X01362Y-00065D01*
X01355*
X01352Y-00069*
Y-00081*
X01355Y-00084*
X01362*
X01365Y-00081*
X01384Y-00084D02*
X01371D01*
X01384Y-00072*
Y-00069*
X01381Y-00065*
X01374*
X01371Y-00069*
X0139D02*
X01393Y-00065D01*
X014*
X01403Y-00069*
Y-00072*
X014Y-00075*
X01403Y-00078*
Y-00081*
X014Y-00084*
X01393*
X0139Y-00081*
Y-00078*
X01393Y-00075*
X0139Y-00072*
Y-00069*
X01393Y-00075D02*
X014D01*
X00663Y-00215D02*
X0066Y-00212D01*
X00654*
X0065Y-00215*
Y-00228*
X00654Y-00231*
X0066*
X00663Y-00228*
X00682Y-00231D02*
X00669D01*
X00682Y-00218*
Y-00215*
X00679Y-00212*
X00673*
X00669Y-00215*
X00701Y-00212D02*
X00688D01*
Y-00222*
X00695Y-00218*
X00698*
X00701Y-00222*
Y-00228*
X00698Y-00231*
X00692*
X00688Y-00228*
X00653Y-00052D02*
X0065Y-00049D01*
X00644*
X00641Y-00052*
Y-00064*
X00644Y-00068*
X0065*
X00653Y-00064*
X00672Y-00068D02*
X0066D01*
X00672Y-00055*
Y-00052*
X00669Y-00049*
X00663*
X0066Y-00052*
X00688Y-00068D02*
Y-00049D01*
X00679Y-00058*
X00691*
X00522Y-00215D02*
X00519Y-00212D01*
X00513*
X00509Y-00215*
Y-00228*
X00513Y-00231*
X00519*
X00522Y-00228*
X00541Y-00231D02*
X00528D01*
X00541Y-00218*
Y-00215*
X00538Y-00212*
X00532*
X00528Y-00215*
X00547Y-00231D02*
X00554D01*
X00551*
Y-00212*
X00547Y-00215*
X00517Y-00049D02*
X00514Y-00046D01*
X00508*
X00505Y-00049*
Y-00062*
X00508Y-00065*
X00514*
X00517Y-00062*
X00536Y-00065D02*
X00524D01*
X00536Y-00053*
Y-00049*
X00533Y-00046*
X00527*
X00524Y-00049*
X00543D02*
X00546Y-00046D01*
X00552*
X00555Y-00049*
Y-00062*
X00552Y-00065*
X00546*
X00543Y-00062*
Y-00049*
X0037Y-00906D02*
X00367Y-00903D01*
X00361*
X00358Y-00906*
Y-00919*
X00361Y-00922*
X00367*
X0037Y-00919*
X00377Y-00922D02*
X00383D01*
X0038*
Y-00903*
X00377Y-00906*
X00392Y-00903D02*
X00405D01*
Y-00906*
X00392Y-00919*
Y-00922*
X00186Y-00898D02*
X00183Y-00894D01*
X00177*
X00174Y-00898*
Y-0091*
X00177Y-00913*
X00183*
X00186Y-0091*
X00193Y-00913D02*
X00199D01*
X00196*
Y-00894*
X00193Y-00898*
X00221Y-00894D02*
X00215Y-00898D01*
X00209Y-00904*
Y-0091*
X00212Y-00913*
X00218*
X00221Y-0091*
Y-00907*
X00218Y-00904*
X00209*
X00276Y-00663D02*
X00272Y-0066D01*
X00266*
X00263Y-00663*
Y-00676*
X00266Y-00679*
X00272*
X00276Y-00676*
X00294Y-00679D02*
X00282D01*
X00294Y-00666*
Y-00663*
X00291Y-0066*
X00285*
X00282Y-00663*
X00202Y-00739D02*
X00214Y-00758D01*
Y-00739D02*
X00202Y-00758D01*
X00221D02*
X00227D01*
X00224*
Y-00739*
X00221Y-00742*
X01987Y-00215D02*
Y-00231D01*
X0199Y-00234*
X01996*
X01999Y-00231*
Y-00215*
X02006Y-00234D02*
X02012D01*
X02009*
Y-00215*
X02006Y-00218*
X02034Y-00234D02*
X02021D01*
X02034Y-00222*
Y-00218*
X02031Y-00215*
X02025*
X02021Y-00218*
X01854Y-00213D02*
Y-00229D01*
X01857Y-00232*
X01863*
X01867Y-00229*
Y-00213*
X01873Y-00232D02*
X01879D01*
X01876*
Y-00213*
X01873Y-00216*
X01889Y-00232D02*
X01895D01*
X01892*
Y-00213*
X01889Y-00216*
X01245Y-00215D02*
Y-00231D01*
X01248Y-00234*
X01254*
X01257Y-00231*
Y-00215*
X01264Y-00234D02*
X0127D01*
X01267*
Y-00215*
X01264Y-00218*
X0128D02*
X01283Y-00215D01*
X01289*
X01292Y-00218*
Y-00231*
X01289Y-00234*
X01283*
X0128Y-00231*
Y-00218*
X01723Y-00213D02*
Y-00229D01*
X01726Y-00232*
X01732*
X01736Y-00229*
Y-00213*
X01742Y-00229D02*
X01745Y-00232D01*
X01751*
X01755Y-00229*
Y-00216*
X01751Y-00213*
X01745*
X01742Y-00216*
Y-0022*
X01745Y-00223*
X01755*
X00586Y-00212D02*
Y-00228D01*
X00589Y-00231*
X00595*
X00598Y-00228*
Y-00212*
X00605Y-00215D02*
X00608Y-00212D01*
X00614*
X00617Y-00215*
Y-00218*
X00614Y-00221*
X00617Y-00224*
Y-00228*
X00614Y-00231*
X00608*
X00605Y-00228*
Y-00224*
X00608Y-00221*
X00605Y-00218*
Y-00215*
X00608Y-00221D02*
X00614D01*
X01066Y-00215D02*
Y-00231D01*
X01069Y-00234*
X01076*
X01079Y-00231*
Y-00215*
X01085D02*
X01098D01*
Y-00218*
X01085Y-00231*
Y-00234*
X00451Y-00212D02*
Y-00228D01*
X00454Y-00231*
X00461*
X00464Y-00228*
Y-00212*
X00483D02*
X00477Y-00215D01*
X0047Y-00221*
Y-00228*
X00473Y-00231*
X0048*
X00483Y-00228*
Y-00224*
X0048Y-00221*
X0047*
X00313Y-00212D02*
Y-00228D01*
X00316Y-00231*
X00323*
X00326Y-00228*
Y-00212*
X00345D02*
X00332D01*
Y-00221*
X00339Y-00218*
X00342*
X00345Y-00221*
Y-00228*
X00342Y-00231*
X00335*
X00332Y-00228*
X00271Y-01017D02*
Y-01033D01*
X00274Y-01036*
X00281*
X00284Y-01033*
Y-01017*
X003Y-01036D02*
Y-01017D01*
X0029Y-01026*
X00303*
X00364Y-0084D02*
Y-00855D01*
X00367Y-00859*
X00374*
X00377Y-00855*
Y-0084*
X00383Y-00843D02*
X00386Y-0084D01*
X00393*
X00396Y-00843*
Y-00846*
X00393Y-00849*
X00389*
X00393*
X00396Y-00852*
Y-00855*
X00393Y-00859*
X00386*
X00383Y-00855*
X00533Y-00862D02*
Y-00878D01*
X00536Y-00881*
X00542*
X00545Y-00878*
Y-00862*
X00564Y-00881D02*
X00552D01*
X00564Y-00868*
Y-00865*
X00561Y-00862*
X00555*
X00552Y-00865*
X00288Y-01079D02*
X00288Y-01074D01*
X00283Y-0107*
X00279Y-0107*
X00277Y-01073*
X00277Y-01077*
X00282Y-01081*
X00282Y-01086*
X0028Y-01088*
X00276Y-01089*
X00271Y-01084*
X0027Y-0108*
X00283Y-01095D02*
X00287Y-01099D01*
X00285Y-01097*
X00298Y-01083*
X00293Y-01083*
X00105Y-00281D02*
Y-00262D01*
X00114*
X00118Y-00265*
Y-00272*
X00114Y-00275*
X00105*
X00111D02*
X00118Y-00281D01*
X00137D02*
X00124D01*
X00137Y-00268*
Y-00265*
X00133Y-00262*
X00127*
X00124Y-00265*
X00978Y-00546D02*
X00984D01*
X00981*
Y-0053*
X00984Y-00527*
X00987*
X0099Y-0053*
X00959Y-00527D02*
X00971D01*
X00959Y-0054*
Y-00543*
X00962Y-00546*
X00968*
X00971Y-00543*
X0001Y-00293D02*
Y-00312D01*
X00019*
X00023Y-00309*
Y-00296*
X00019Y-00293*
X0001*
X00042Y-00312D02*
X00029D01*
X00042Y-00299*
Y-00296*
X00038Y-00293*
X00032*
X00029Y-00296*
X0193Y-00219D02*
X01927Y-00216D01*
X01921*
X01918Y-00219*
Y-00232*
X01921Y-00235*
X01927*
X0193Y-00232*
X01937Y-00219D02*
X0194Y-00216D01*
X01946*
X01949Y-00219*
Y-00222*
X01946Y-00226*
X01943*
X01946*
X01949Y-00229*
Y-00232*
X01946Y-00235*
X0194*
X01937Y-00232*
X01956Y-00235D02*
X01962D01*
X01959*
Y-00216*
X01956Y-00219*
X01946Y-00065D02*
X01943Y-00062D01*
X01936*
X01933Y-00065*
Y-00078*
X01936Y-00081*
X01943*
X01946Y-00078*
X01952Y-00065D02*
X01955Y-00062D01*
X01962*
X01965Y-00065*
Y-00068*
X01962Y-00072*
X01959*
X01962*
X01965Y-00075*
Y-00078*
X01962Y-00081*
X01955*
X01952Y-00078*
X01971Y-00065D02*
X01974Y-00062D01*
X01981*
X01984Y-00065*
Y-00078*
X01981Y-00081*
X01974*
X01971Y-00078*
Y-00065*
X0179Y-00219D02*
X01786Y-00216D01*
X0178*
X01777Y-00219*
Y-00232*
X0178Y-00235*
X01786*
X0179Y-00232*
X01809Y-00235D02*
X01796D01*
X01809Y-00222*
Y-00219*
X01805Y-00216*
X01799*
X01796Y-00219*
X01815Y-00216D02*
X01828D01*
Y-00219*
X01815Y-00232*
Y-00235*
X01803Y-00065D02*
X018Y-00062D01*
X01793*
X0179Y-00065*
Y-00078*
X01793Y-00081*
X018*
X01803Y-00078*
X01822Y-00081D02*
X01809D01*
X01822Y-00069*
Y-00065*
X01819Y-00062*
X01812*
X01809Y-00065*
X01841Y-00062D02*
X01834Y-00065D01*
X01828Y-00072*
Y-00078*
X01831Y-00081*
X01838*
X01841Y-00078*
Y-00075*
X01838Y-00072*
X01828*
X01166Y-00211D02*
X01163Y-00208D01*
X01157*
X01154Y-00211*
Y-00224*
X01157Y-00227*
X01163*
X01166Y-00224*
X01185Y-00227D02*
X01173D01*
X01185Y-00214*
Y-00211*
X01182Y-00208*
X01176*
X01173Y-00211*
X01192D02*
X01195Y-00208D01*
X01201*
X01204Y-00211*
Y-00214*
X01201Y-00218*
X01198*
X01201*
X01204Y-00221*
Y-00224*
X01201Y-00227*
X01195*
X01192Y-00224*
X01175Y-00099D02*
X01172Y-00096D01*
X01165*
X01162Y-00099*
Y-00112*
X01165Y-00115*
X01172*
X01175Y-00112*
X01194Y-00115D02*
X01181D01*
X01194Y-00102*
Y-00099*
X01191Y-00096*
X01184*
X01181Y-00099*
X01213Y-00115D02*
X012D01*
X01213Y-00102*
Y-00099*
X0121Y-00096*
X01203*
X012Y-00099*
X00381Y-00218D02*
X00378Y-00215D01*
X00372*
X00369Y-00218*
Y-0023*
X00372Y-00234*
X00378*
X00381Y-0023*
X00388Y-00234D02*
X00394D01*
X00391*
Y-00215*
X00388Y-00218*
X00403Y-0023D02*
X00407Y-00234D01*
X00413*
X00416Y-0023*
Y-00218*
X00413Y-00215*
X00407*
X00403Y-00218*
Y-00221*
X00407Y-00224*
X00416*
X00381Y-00049D02*
X00378Y-00045D01*
X00372*
X00369Y-00049*
Y-00061*
X00372Y-00064*
X00378*
X00381Y-00061*
X00388Y-00064D02*
X00394D01*
X00391*
Y-00045*
X00388Y-00049*
X00403D02*
X00407Y-00045D01*
X00413*
X00416Y-00049*
Y-00052*
X00413Y-00055*
X00416Y-00058*
Y-00061*
X00413Y-00064*
X00407*
X00403Y-00061*
Y-00058*
X00407Y-00055*
X00403Y-00052*
Y-00049*
X00407Y-00055D02*
X00413D01*
X0037Y-00775D02*
X00367Y-00772D01*
X00361*
X00358Y-00775*
Y-00788*
X00361Y-00791*
X00367*
X0037Y-00788*
X00377Y-00791D02*
X00383D01*
X0038*
Y-00772*
X00377Y-00775*
X00405Y-00772D02*
X00392D01*
Y-00781*
X00399Y-00778*
X00402*
X00405Y-00781*
Y-00788*
X00402Y-00791*
X00396*
X00392Y-00788*
X00174Y-00775D02*
X00171Y-00772D01*
X00165*
X00162Y-00775*
Y-00788*
X00165Y-00791*
X00171*
X00174Y-00788*
X00181Y-00791D02*
X00187D01*
X00184*
Y-00772*
X00181Y-00775*
X00206Y-00791D02*
Y-00772D01*
X00197Y-00781*
X00209*
X00616Y-01047D02*
X00613Y-01044D01*
X00607*
X00603Y-01047*
Y-0106*
X00607Y-01063*
X00613*
X00616Y-0106*
X00622Y-01063D02*
X00629D01*
X00626*
Y-01044*
X00622Y-01047*
X00638D02*
X00641Y-01044D01*
X00648*
X00651Y-01047*
Y-0105*
X00648Y-01054*
X00645*
X00648*
X00651Y-01057*
Y-0106*
X00648Y-01063*
X00641*
X00638Y-0106*
X0014Y-00433D02*
X00128D01*
X00121Y-00426*
X00128Y-0042*
X0014*
X00131*
Y-00433*
X0014Y-00414D02*
X00121D01*
X0014Y-00401*
X00121*
Y-00395D02*
Y-00382D01*
Y-00388*
X0014*
Y-00376D02*
Y-0037D01*
Y-00373*
X00121*
X00125Y-00376*
X00537Y-00717D02*
X00534Y-00713D01*
X00528*
X00525Y-00717*
Y-00729*
X00528Y-00732*
X00534*
X00537Y-00729*
X00544Y-00732D02*
X0055D01*
X00547*
Y-00713*
X00544Y-00717*
X00559D02*
X00562Y-00713D01*
X00569*
X00572Y-00717*
Y-00729*
X00569Y-00732*
X00562*
X00559Y-00729*
Y-00717*
X00279Y-00462D02*
X00276Y-00459D01*
X00269*
X00266Y-00462*
Y-00475*
X00269Y-00478*
X00276*
X00279Y-00475*
X00285Y-00462D02*
X00288Y-00459D01*
X00295*
X00298Y-00462*
Y-00465*
X00295Y-00468*
X00291*
X00295*
X00298Y-00472*
Y-00475*
X00295Y-00478*
X00288*
X00285Y-00475*
X00213Y-00457D02*
Y-00476D01*
X00225*
X00232D02*
X00238D01*
X00235*
Y-00457*
X00232Y-00461*
X00423Y-00674D02*
Y-0069D01*
X00426Y-00693*
X00432*
X00436Y-0069*
Y-00674*
X00442Y-00693D02*
X00448D01*
X00445*
Y-00674*
X00442Y-00678*
X00235Y-00552D02*
X00232Y-00549D01*
X00226*
X00223Y-00552*
Y-00564*
X00226Y-00568*
X00232*
X00235Y-00564*
X00254Y-00549D02*
X00248Y-00552D01*
X00241Y-00558*
Y-00564*
X00245Y-00568*
X00251*
X00254Y-00564*
Y-00561*
X00251Y-00558*
X00241*
X00707Y-00664D02*
X00704Y-0066D01*
X00698*
X00695Y-00664*
Y-00676*
X00698Y-00679*
X00704*
X00707Y-00676*
X00714D02*
X00717Y-00679D01*
X00723*
X00726Y-00676*
Y-00664*
X00723Y-0066*
X00717*
X00714Y-00664*
Y-00667*
X00717Y-0067*
X00726*
X00355Y-00713D02*
X00351Y-0071D01*
X00345*
X00342Y-00713*
Y-00726*
X00345Y-00729*
X00351*
X00355Y-00726*
X00361Y-00713D02*
X00364Y-0071D01*
X0037*
X00374Y-00713*
Y-00717*
X0037Y-0072*
X00374Y-00723*
Y-00726*
X0037Y-00729*
X00364*
X00361Y-00726*
Y-00723*
X00364Y-0072*
X00361Y-00717*
Y-00713*
X00364Y-0072D02*
X0037D01*
X00166Y-00582D02*
X00163Y-00579D01*
X00157*
X00154Y-00582*
Y-00595*
X00157Y-00598*
X00163*
X00166Y-00595*
X00172Y-00598D02*
X00179D01*
X00176*
Y-00579*
X00172Y-00582*
X00235Y-00651D02*
X00232Y-00648D01*
X00226*
X00223Y-00651*
Y-00664*
X00226Y-00667*
X00232*
X00235Y-00664*
X00241Y-00648D02*
X00254D01*
Y-00651*
X00241Y-00664*
Y-00667*
X00552Y-00402D02*
X00549Y-00406D01*
Y-00412*
X00552Y-00415*
X00565*
X00568Y-00412*
Y-00406*
X00565Y-00402*
X00549Y-00384D02*
Y-00396D01*
X00559*
X00555Y-0039*
Y-00387*
X00559Y-00384*
X00565*
X00568Y-00387*
Y-00393*
X00565Y-00396*
X00612Y-0056D02*
X00609Y-00557D01*
X00603*
X006Y-0056*
Y-00572*
X00603Y-00576*
X00609*
X00612Y-00572*
X00628Y-00576D02*
Y-00557D01*
X00619Y-00566*
X00631*
G54D16*
X00657Y-001D02*
Y-00088D01*
X00674*
Y-001D02*
Y-00088D01*
X00657Y-00126D02*
Y-00114D01*
X00674Y-00126D02*
Y-00114D01*
X00657Y-00126D02*
X00674D01*
Y-00191D02*
Y-00179D01*
X00657Y-00191D02*
X00674D01*
X00657D02*
Y-00179D01*
X00674Y-00165D02*
Y-00152D01*
X00657Y-00165D02*
Y-00152D01*
X00674*
X00231Y-00913D02*
X00244D01*
X00231D02*
Y-00895D01*
X00244*
X00258Y-00913D02*
X0027D01*
X00258Y-00895D02*
X0027D01*
Y-00913D02*
Y-00895D01*
X00326D02*
X00339D01*
Y-00913D02*
Y-00895D01*
X00326Y-00913D02*
X00339D01*
X003Y-00895D02*
X00312D01*
X003Y-00913D02*
X00312D01*
X003D02*
Y-00895D01*
X01137Y-00156D02*
X01154D01*
X01137Y-00168D02*
Y-00156D01*
X01154Y-00168D02*
Y-00156D01*
X01137Y-00194D02*
Y-00182D01*
Y-00194D02*
X01154D01*
Y-00182*
X01137Y-00103D02*
Y-00091D01*
X01154*
Y-00103D02*
Y-00091D01*
X01137Y-0013D02*
Y-00117D01*
X01154Y-0013D02*
Y-00117D01*
X01137Y-0013D02*
X01154D01*
X01323Y-00129D02*
X01341D01*
Y-00116*
X01323Y-00129D02*
Y-00116D01*
X01341Y-00103D02*
Y-0009D01*
X01323D02*
X01341D01*
X01323Y-00103D02*
Y-0009D01*
X00233Y-00785D02*
X00245D01*
X00233D02*
Y-00768D01*
X00245*
X00259Y-00785D02*
X00271D01*
X00259Y-00768D02*
X00271D01*
Y-00785D02*
Y-00768D01*
X00326D02*
X00338D01*
Y-00785D02*
Y-00768D01*
X00326Y-00785D02*
X00338D01*
X003Y-00768D02*
X00312D01*
X003Y-00785D02*
X00312D01*
X003D02*
Y-00768D01*
X00523Y-001D02*
Y-00087D01*
X0054*
Y-001D02*
Y-00087D01*
X00523Y-00126D02*
Y-00114D01*
X0054Y-00126D02*
Y-00114D01*
X00523Y-00126D02*
X0054D01*
X02066Y-00128D02*
X02084D01*
Y-00116*
X02066Y-00128D02*
Y-00116D01*
X02084Y-00102D02*
Y-0009D01*
X02066D02*
X02084D01*
X02066Y-00102D02*
Y-0009D01*
X0054Y-00191D02*
Y-00178D01*
X00523Y-00191D02*
X0054D01*
X00523D02*
Y-00178D01*
X0054Y-00165D02*
Y-00152D01*
X00523Y-00165D02*
Y-00152D01*
X0054*
X01341Y-00194D02*
Y-00181D01*
X01323Y-00194D02*
X01341D01*
X01323D02*
Y-00181D01*
X01341Y-00167D02*
Y-00155D01*
X01323Y-00167D02*
Y-00155D01*
X01341*
X02084Y-00193D02*
Y-00181D01*
X02066Y-00193D02*
X02084D01*
X02066D02*
Y-00181D01*
X02084Y-00167D02*
Y-00154D01*
X02066Y-00167D02*
Y-00154D01*
X02084*
X01794Y-00127D02*
X01811D01*
Y-00115*
X01794Y-00127D02*
Y-00115D01*
X01811Y-00101D02*
Y-00088D01*
X01794D02*
X01811D01*
X01794Y-00101D02*
Y-00088D01*
X01931Y-00127D02*
X01949D01*
Y-00115*
X01931Y-00127D02*
Y-00115D01*
X01949Y-00101D02*
Y-00088D01*
X01931D02*
X01949D01*
X01931Y-00101D02*
Y-00088D01*
X01949Y-00192D02*
Y-00179D01*
X01931Y-00192D02*
X01949D01*
X01931D02*
Y-00179D01*
X01949Y-00166D02*
Y-00153D01*
X01931Y-00166D02*
Y-00153D01*
X01949*
X01811Y-00192D02*
Y-0018D01*
X01794Y-00192D02*
X01811D01*
X01794D02*
Y-0018D01*
X01811Y-00166D02*
Y-00153D01*
X01794Y-00166D02*
Y-00153D01*
X01811*
X00384Y-00101D02*
Y-00089D01*
X00401*
Y-00101D02*
Y-00089D01*
X00384Y-00128D02*
Y-00115D01*
X00401Y-00128D02*
Y-00115D01*
X00384Y-00128D02*
X00401D01*
X00402Y-00194D02*
Y-00181D01*
X00384Y-00194D02*
X00402D01*
X00384D02*
Y-00181D01*
X00402Y-00168D02*
Y-00155D01*
X00384Y-00168D02*
Y-00155D01*
X00402*
G54D17*
X00494Y-01288D02*
X00561Y-0121D01*
X00295Y-01114D02*
X00494Y-01288D01*
X00295Y-01114D02*
X00363Y-01037D01*
X00359Y-01248D02*
X00398Y-01203D01*
X00359Y-01248D02*
X00398Y-01282D01*
X00436Y-01237*
X00412Y-0108D02*
X00466Y-01128D01*
G54D18*
X00513Y-01067D02*
Y-0104D01*
X00584Y-01067D02*
Y-0104D01*
X00558Y-01067D02*
X00584D01*
X00513D02*
X00539D01*
X00558Y-0104D02*
X00584D01*
X00513D02*
X00539D01*
X00301Y-00747D02*
X00328D01*
X00301Y-00677D02*
X00328D01*
Y-00702D02*
Y-00677D01*
Y-00747D02*
Y-00722D01*
X00301Y-00702D02*
Y-00677D01*
Y-00747D02*
Y-00722D01*
X00203Y-00611D02*
X00228D01*
X00248D02*
X00273D01*
X00203Y-00639D02*
X00228D01*
X00248D02*
X00273D01*
Y-00611*
X00203Y-00639D02*
Y-00611D01*
X00248Y-00604D02*
X00273D01*
X00203D02*
X00228D01*
X00248Y-00576D02*
X00273D01*
X00203D02*
X00228D01*
X00203Y-00604D02*
Y-00576D01*
X00273Y-00604D02*
Y-00576D01*
X0019Y-00516D02*
Y-00488D01*
X0026Y-00516D02*
Y-00488D01*
X00235Y-00516D02*
X0026D01*
X0019D02*
X00215D01*
X00235Y-00488D02*
X0026D01*
X0019D02*
X00215D01*
X00295Y-00512D02*
Y-00487D01*
Y-00558D02*
Y-00532D01*
X00267Y-00512D02*
Y-00487D01*
Y-00558D02*
Y-00532D01*
Y-00558D02*
X00295D01*
X00267Y-00487D02*
X00295D01*
X00666Y-00657D02*
X00702D01*
X0061D02*
X00646D01*
X00666Y-00617D02*
X00702D01*
X0061D02*
X00646D01*
X0061Y-00657D02*
Y-00617D01*
X00702Y-00657D02*
Y-00617D01*
X00666Y-0061D02*
X00691D01*
X00621D02*
X00646D01*
X00666Y-00582D02*
X00691D01*
X00621D02*
X00646D01*
X00621Y-0061D02*
Y-00582D01*
X00691Y-0061D02*
Y-00582D01*
X00502Y-00668D02*
X00538D01*
X00558D02*
X00594D01*
X00502Y-00708D02*
X00538D01*
X00558D02*
X00594D01*
Y-00668*
X00502Y-00708D02*
Y-00668D01*
X00575Y-00323D02*
Y-00298D01*
Y-00369D02*
Y-00343D01*
X00547Y-00323D02*
Y-00298D01*
Y-00369D02*
Y-00343D01*
Y-00369D02*
X00575D01*
X00547Y-00298D02*
X00575D01*
M02*