%FSTAX23Y23*%
%MOIN*%
%SFA1B1*%

%IPPOS*%
%AMD24*
4,1,4,0.009600,0.000700,-0.000700,0.009600,-0.009600,-0.000700,0.000700,-0.009600,0.009600,0.000700,0.0*
%
%AMD32*
4,1,4,0.009100,0.031200,-0.029700,-0.013200,-0.009100,-0.031200,0.029700,0.013200,0.009100,0.031200,0.0*
%
%AMD94*
4,1,4,-0.007400,-0.002600,-0.001500,-0.007700,0.007400,0.002600,0.001500,0.007700,-0.007400,-0.002600,0.0*
%
%ADD17C,0.010000*%
%ADD18C,0.006000*%
%ADD19R,0.150000X0.050000*%
%ADD20R,0.019680X0.039370*%
%ADD21R,0.035430X0.062990*%
%ADD22R,0.027560X0.015750*%
%ADD23R,0.050000X0.050000*%
G04~CAMADD=24~10~0.0~137.8~0.0~0.0~0.0~0.0~0~0.0~0.0~0.0~0.0~0~0.0~0.0~0.0~0.0~0~0.0~0.0~0.0~318.9~137.8~0.0*
%ADD24D24*%
%ADD25R,0.013780X0.013780*%
%ADD26R,0.013780X0.013780*%
%ADD27R,0.062990X0.031500*%
%ADD28R,0.025590X0.031500*%
%ADD29R,0.066930X0.039370*%
%ADD30R,0.011810X0.027560*%
%ADD31R,0.011810X0.010630*%
G04~CAMADD=32~9~0.0~0.0~590.6~275.6~0.0~0.0~0~0.0~0.0~0.0~0.0~0~0.0~0.0~0.0~0.0~0~0.0~0.0~0.0~48.9~594.0~623.0*
%ADD32D32*%
%ADD33R,0.068900X0.098430*%
%ADD34R,0.031500X0.015750*%
%ADD35R,0.062990X0.011810*%
%ADD36R,0.070870X0.031500*%
%ADD37R,0.027560X0.011810*%
%ADD38R,0.039370X0.066930*%
%ADD39R,0.010630X0.011810*%
%ADD40R,0.023620X0.019680*%
%ADD41C,0.033980*%
%ADD42R,0.062990X0.035430*%
%ADD43R,0.039370X0.019680*%
%ADD44R,0.016540X0.018110*%
%ADD45R,0.018500X0.020470*%
%ADD46R,0.019680X0.023620*%
%ADD47R,0.025590X0.019680*%
%ADD48R,0.029530X0.031500*%
%ADD49R,0.185040X0.185040*%
%ADD50O,0.007870X0.025590*%
%ADD51O,0.025590X0.007870*%
%ADD91C,0.030000*%
%ADD93C,0.030000*%
G04~CAMADD=94~9~0.0~0.0~78.7~137.8~0.0~0.0~0~0.0~0.0~0.0~0.0~0~0.0~0.0~0.0~0.0~0~0.0~0.0~0.0~138.9~148.0~153.0*
%ADD94D94*%
%ADD95R,0.013780X0.007870*%
%ADD96C,0.015000*%
%ADD97C,0.009000*%
%ADD98C,0.020000*%
%ADD99C,0.008000*%
%ADD100C,0.090000*%
%ADD101C,0.035430*%
%ADD102C,0.012800*%
%ADD103C,0.061020*%
%ADD104C,0.024000*%
%ADD105C,0.025980*%
%LNdextrems_v1-1*%
%LPD*%
G36*
X00509Y-00025D02*
X00508Y-00026D01*
X00504Y-00027*
X00503Y-00026*
X005Y-00024*
X00498Y-00023*
X00495Y-00022*
X00492Y-00021*
X00489Y-00021*
X00487Y-00021*
X00484Y-00022*
X00483Y-00022*
X00479Y-00018*
X00479Y-00018*
X00479Y-00018*
X00483Y-00013*
X00509*
Y-00025*
G37*
G36*
X01409Y-00026D02*
X01404Y-00027D01*
X01403Y-00026*
X01402Y-00024*
X01395Y-00017*
X01397Y-00013*
X01409*
Y-00026*
G37*
G36*
X01867Y-00018D02*
X01867Y-00018D01*
X01866Y-00021*
X01867Y-00023*
X01867Y-00024*
X01866Y-00026*
X01864Y-00028*
X01863Y-00029*
X01862Y-00028*
X01859Y-00029*
X01858Y-00029*
X01857Y-00028*
X01854Y-00025*
X01854Y-00025*
X01854Y-00024*
X01854Y-00021*
X01854Y-00018*
X01854Y-00018*
X01857Y-00013*
X01858Y-00013*
X01863*
X01867Y-00018*
G37*
G36*
X01296Y-00032D02*
X01296Y-00032D01*
X01279*
Y-00027*
X01293*
X01296Y-00032*
G37*
G36*
X00686Y-00031D02*
Y-00039D01*
X00686Y-00039*
X00686Y-0004*
X00681Y-00042*
X00681Y-00042*
X00681Y-00042*
X00678Y-0004*
X00678Y-00039*
X00677Y-00037*
X00677Y-00035*
X00678Y-00033*
X00677Y-0003*
X00677Y-0003*
X00678Y-00029*
X00683Y-00027*
X00686Y-00031*
G37*
G36*
X00271Y-00017D02*
D01*
Y-00033*
X00259Y-00045*
X00259Y-00046*
X00257Y-00047*
X00252Y-00052*
X00248Y-0005*
Y-00013*
X00269*
X00271Y-00017*
G37*
G36*
X0168Y-00016D02*
Y-00034D01*
X01671Y-00044*
X0167Y-00044*
X01669Y-00045*
X01662Y-00053*
X01657Y-00051*
Y-00013*
X01677*
X0168Y-00016*
G37*
G36*
X0191Y-00037D02*
Y-00056D01*
X0191Y-00058*
X0191Y-0006*
X01911Y-00062*
X01912Y-00064*
X01913Y-00066*
X01917Y-0007*
X01916Y-00074*
X01915Y-00075*
X01901*
Y-00039*
X01905Y-00036*
X0191Y-00037*
G37*
G36*
X01848Y-00068D02*
X01848Y-00068D01*
X0185Y-0007*
X01851Y-0007*
Y-00075*
X01842*
X0184Y-0007*
X01841Y-00068*
X01844Y-00067*
X01848Y-00068*
G37*
G36*
X01014Y-00014D02*
Y-00025D01*
X01013Y-00026*
X00997Y-00042*
X00995Y-00042*
X00992Y-00043*
X0099Y-00044*
X00988Y-00045*
X00986Y-00046*
X00986Y-00047*
X00986Y-00047*
X00958Y-00075*
X00953Y-00073*
Y-00013*
X01009*
X01014Y-00014*
G37*
G36*
X00192Y-00082D02*
D01*
X00191Y-00086*
X00176*
X00175Y-00086*
X00129*
X00128Y-00085*
X00127Y-00082*
X00125Y-0008*
X00123Y-00078*
X00121Y-00076*
X00119Y-00074*
X00116Y-00073*
X00113Y-00072*
X00111Y-00072*
X00108Y-00071*
X00105Y-00072*
X00102Y-00072*
X00099Y-00073*
X00097Y-00074*
X00094Y-00076*
X00092Y-00078*
X0009Y-00076*
X00087Y-00074*
X00085Y-00073*
X00082Y-00072*
X00079Y-00072*
X00076Y-00071*
X00073Y-00072*
X00071Y-00072*
X00068Y-00073*
X00065Y-00074*
X00063Y-00076*
X00061Y-00078*
X0006Y-00079*
X00055Y-00078*
X00055Y-00077*
Y-00013*
X00192*
Y-00082*
G37*
G36*
X02307Y-00081D02*
X02303Y-00085D01*
X02303Y-00085*
X02301Y-00082*
X02299Y-0008*
X02296Y-00079*
X02294Y-00078*
X02291Y-00077*
X02288Y-00076*
X02285Y-00076*
X02282Y-00076*
X0228Y-00077*
X02277Y-00078*
X02274Y-00079*
X02272Y-0008*
X0227Y-00082*
X02269Y-00082*
X02267Y-0008*
X02265Y-00078*
X02262Y-00077*
X02259Y-00076*
X02257Y-00076*
X02254Y-00075*
X02251Y-00076*
X02248Y-00076*
X02245Y-00077*
X02243Y-00078*
X0224Y-0008*
X02238Y-00082*
X02236Y-00084*
X02235Y-00086*
X02192*
X02185Y-00079*
X02183Y-00077*
X02181Y-00076*
X02179Y-00075*
X02176Y-00075*
X02174Y-00074*
X02169*
Y-00013*
X02307*
Y-00081*
G37*
G36*
X01602Y-00079D02*
X01592D01*
X0159Y-0008*
X01588Y-0008*
X01586Y-00081*
X01585Y-00081*
X01583Y-00082*
X01582Y-00084*
X01579Y-00086*
X01485*
X01477Y-00079*
X01475Y-00077*
X01473Y-00076*
X01472Y-00075*
X01471Y-00075*
X01469Y-00074*
X01467Y-00074*
X01464*
Y-00013*
X01602*
Y-00079*
G37*
G36*
X00897D02*
X00887D01*
X00885Y-0008*
X00883Y-0008*
X00882Y-00081*
X00881Y-00081*
X00879Y-00082*
X00877Y-00084*
X00874Y-00086*
X00783*
X00781Y-00085*
X00779Y-00084*
X00777Y-00082*
X00776Y-00082*
X00775Y-00081*
X00773Y-00081*
X00771Y-00081*
X0076*
Y-00013*
X00897*
Y-00079*
G37*
G36*
X00206Y-00121D02*
X00196Y-00131D01*
X00191Y-0013*
Y-00116*
X00204*
X00206Y-00121*
G37*
G36*
X00944Y-00114D02*
X00926Y-00131D01*
X00895*
Y-0011*
X00942*
X00944Y-00114*
G37*
G36*
X01623D02*
X01605Y-00132D01*
X016*
Y-0011*
X01621*
X01623Y-00114*
G37*
G36*
X01466Y-0011D02*
Y-00132D01*
X01444*
X01421Y-00109*
X01423Y-00104*
X0146*
X01466Y-0011*
G37*
G36*
X00761Y-00132D02*
X00752D01*
X00736Y-00115*
X00737Y-00111*
X00761*
Y-00132*
G37*
G36*
X02171Y-00108D02*
Y-00133D01*
X02159*
X02152Y-00126*
X02152Y-00126*
X02154Y-00124*
X02155Y-00121*
X02156Y-00118*
X02156Y-00115*
X02157Y-00113*
X02156Y-0011*
X02156Y-00109*
X0216Y-00104*
X02168*
X02171Y-00108*
G37*
G36*
X00443Y-00041D02*
Y-00074D01*
X00422*
Y-00093*
X00438*
Y-00103*
X00422*
Y-00121*
X00424*
Y-00134*
X00511*
Y-00134*
X00516Y-00133*
X00527*
Y-00118*
X00532*
Y-00113*
X00548*
Y-00111*
Y-0008*
X00527*
X00526Y-00079*
X00523Y-00078*
X0052Y-00077*
X00517Y-00077*
X00515Y-00076*
X00513Y-00075*
Y-00074*
X00492*
Y-00066*
X00494Y-00065*
X00495Y-00065*
X00498Y-00064*
X005Y-00062*
X00503Y-00061*
X00504Y-0006*
X00508Y-00061*
X00509Y-00062*
Y-00064*
X00538*
X00548Y-00074*
X0055Y-00075*
X00552Y-00076*
X00553Y-00077*
X00555Y-00077*
X00556Y-00077*
Y-00093*
X00572*
Y-00103*
X00556*
Y-00122*
X00558*
Y-00134*
X00645*
Y-00134*
X0065Y-00133*
X00661*
Y-00118*
X00666*
Y-00113*
X00682*
Y-00111*
X00683Y-0011*
X00686Y-00109*
X00701Y-00123*
X007Y-00123*
X00699Y-00126*
X00698Y-00129*
X00698Y-00132*
X00697Y-00134*
X00698Y-00137*
X00698Y-0014*
X00699Y-00143*
X007Y-00145*
X00702Y-00148*
X00704Y-0015*
X00706Y-00152*
X00708Y-00154*
X00711Y-00155*
X00714Y-00156*
X00717Y-00156*
X0072Y-00156*
X00722Y-00156*
X00725Y-00156*
X00728Y-00155*
X00731Y-00154*
X00731Y-00153*
X00735Y-00157*
X00737Y-00159*
X00739Y-0016*
X00741Y-00161*
X00743Y-00162*
X00746Y-00162*
X00796*
X00799Y-00162*
X00801Y-00161*
X00803Y-0016*
X00805Y-00159*
X00807Y-00157*
X00818Y-00146*
X00818Y-00146*
X00835*
X00836Y-00146*
X00837Y-00148*
X00838Y-0015*
X00846Y-00157*
X00848Y-00159*
X0085Y-0016*
X00852Y-00161*
X00854Y-00162*
X00857Y-00162*
X0089*
X00892Y-00162*
X00893Y-00162*
X00933*
X00935Y-00161*
X00937Y-00161*
X00939Y-0016*
X00941Y-00159*
X00943Y-00157*
X00949Y-00151*
X00949Y-00152*
X00952Y-00153*
X00955Y-00154*
X00958Y-00154*
X00961Y-00155*
X00963Y-00154*
X00966Y-00154*
X00969Y-00153*
X00972Y-00152*
X00974Y-0015*
X00976Y-00148*
X00978Y-00146*
X0098Y-00144*
X00981Y-00141*
X00982Y-00138*
X00982Y-00135*
X00983Y-00133*
X00982Y-0013*
X00982Y-00127*
X00981Y-00124*
X0098Y-00121*
X00979Y-00121*
X01012Y-00089*
X01037*
Y-00096*
X01053*
Y-00106*
X01037*
Y-00124*
X01039*
Y-00137*
X0113*
X01141*
Y-00122*
X01146*
Y-00117*
X01162*
Y-00114*
Y-00084*
X01147*
X01146Y-00083*
X01145Y-00082*
X01148Y-00077*
X01163*
X01165Y-00077*
X01167Y-00077*
X01169Y-00076*
X01171Y-00075*
X01173Y-00073*
X01181Y-00065*
X01182Y-00064*
X01183Y-00063*
X01209*
X01219Y-00073*
X01222Y-00077*
Y-00095*
X01238*
Y-00105*
X01222*
Y-00124*
X01224*
Y-00137*
X01311*
Y-00136*
X01316Y-00136*
X01327*
Y-00121*
X01332*
Y-00116*
X01348*
Y-0009*
X01358*
X01361Y-00094*
X01361Y-00094*
X0136Y-00097*
X0136Y-001*
X01359Y-00103*
X0136Y-00105*
X0136Y-00108*
X01361Y-00111*
X01362Y-00114*
X01364Y-00116*
X01366Y-00118*
X01368Y-0012*
X0137Y-00122*
X01373Y-00123*
X01376Y-00124*
X01379Y-00124*
X01382Y-00125*
X01384Y-00124*
X01387Y-00124*
X0139Y-00123*
X01392Y-00122*
X01427Y-00157*
X01429Y-00159*
X01431Y-0016*
X01433Y-00161*
X01435Y-00162*
X01437Y-00162*
X01501*
X01504Y-00162*
X01506Y-00161*
X01508Y-0016*
X0151Y-00159*
X01512Y-00157*
X01523Y-00146*
X01523Y-00146*
X01543*
X01543Y-00146*
X01555Y-00157*
X01556Y-00159*
X01558Y-0016*
X01561Y-00161*
X01563Y-00162*
X01565Y-00162*
X01612*
X01614Y-00162*
X01616Y-00161*
X01618Y-0016*
X01621Y-00159*
X01622Y-00157*
X01664Y-00116*
X01665Y-00117*
X01668Y-00118*
X01671Y-00118*
X01674Y-00118*
X01676Y-00118*
X01679Y-00118*
X01682Y-00117*
X01685Y-00116*
X01687Y-00114*
X01688Y-00113*
X01691Y-00114*
X01693Y-00115*
Y-00122*
X01695*
Y-00135*
X01785*
X01786Y-00134*
X01797*
Y-00119*
X01802*
Y-00114*
X01818*
Y-00112*
Y-00081*
X01821Y-00077*
X01827*
X0183Y-00081*
X01831Y-00082*
Y-00093*
X01847*
Y-00103*
X01831*
Y-00122*
X01833*
Y-00135*
X01923*
X01924Y-00134*
X01935*
Y-00119*
X0194*
Y-00114*
X01956*
Y-00112*
Y-00081*
X01936*
X01935Y-0008*
X01937Y-00075*
X01961*
X01965Y-00076*
Y-00095*
X01981*
Y-00105*
X01965*
Y-00124*
X01967*
Y-00136*
X02054*
Y-00132*
X02054Y-00132*
X02059Y-00135*
Y-00136*
X0207*
Y-0012*
X02075*
Y-00115*
X02091*
X02096Y-00113*
X02142Y-00159*
X02143Y-00161*
X02145Y-00162*
X02148Y-00163*
X0215Y-00163*
X02152Y-00164*
X02199*
X02199Y-00164*
X02201Y-00166*
X02203Y-00169*
X02203Y-0017*
Y-0021*
X02203Y-00212*
X02203Y-00214*
X02204Y-00216*
X02205Y-00217*
X02206Y-00219*
X02222Y-00234*
X02223Y-00236*
X02225Y-00237*
X02227Y-00238*
X02229Y-00238*
X02231Y-00238*
X02256*
X02258Y-00238*
X0226Y-00238*
X02262Y-00237*
X02264Y-00236*
X02265Y-00234*
X0227Y-0023*
X02279*
X0228Y-0023*
X02282*
X0229Y-00238*
X02291Y-0024*
X02293Y-00241*
X02295Y-00242*
X02297Y-00242*
X02299Y-00242*
X02344*
X02344*
X02348Y-00245*
X02349Y-00246*
Y-00347*
X02142*
X02142Y-00342*
X02145Y-00341*
X02148Y-0034*
X02152Y-00337*
X02156Y-00335*
X02159Y-00332*
X02162Y-00329*
X02165Y-00326*
X02168Y-00323*
X0217Y-00319*
X02173Y-00315*
X02174Y-00312*
X02176Y-00308*
X02177Y-00303*
X02178Y-00299*
X02178Y-00296*
X02069*
X02069Y-00299*
X0207Y-00303*
X02071Y-00308*
X02073Y-00312*
X02074Y-00315*
X02077Y-00319*
X02079Y-00323*
X02082Y-00326*
X02085Y-00329*
X02088Y-00332*
X02091Y-00335*
X02095Y-00337*
X02099Y-0034*
X02102Y-00341*
X02105Y-00342*
X02105Y-00347*
X01886*
X01884Y-00343*
X0201Y-00217*
X02011Y-00215*
X02012Y-00213*
X02013Y-00211*
X02013Y-00209*
X02014Y-00207*
Y-00206*
X02056*
Y-00206*
X02056Y-00205*
X02059Y-00205*
X02062Y-00204*
X02065Y-00204*
X02067Y-00202*
X0207Y-00201*
X0207Y-002*
X02091*
Y-00178*
Y-00168*
X02075*
Y-00163*
X0207*
Y-00147*
X02059*
Y-0015*
X02054Y-00153*
X02054Y-00153*
Y-00146*
X01967*
Y-00159*
X01965*
Y-00203*
X01844Y-00323*
X01776*
X01774Y-00319*
X01875Y-00218*
X01876Y-00216*
X01877Y-00214*
X01878Y-00212*
X01879Y-0021*
X01879Y-00208*
Y-00205*
X01922*
Y-00203*
X01924Y-00202*
X01927Y-00202*
X0193Y-00201*
X01932Y-002*
X01933Y-00199*
X01956*
Y-00177*
Y-00166*
X0194*
Y-00161*
X01935*
Y-00146*
X01924*
X01922Y-00145*
X01833*
Y-00157*
X01831*
Y-00201*
X01733Y-00299*
X01654*
X01652Y-00295*
X01737Y-0021*
X01738Y-00208*
X01739Y-00206*
X0174Y-00205*
X01784*
Y-00203*
X01786Y-00203*
X01789Y-00202*
X01792Y-00202*
X01795Y-002*
X01796Y-00199*
X01818*
Y-00177*
Y-00166*
X01802*
Y-00161*
X01797*
Y-00146*
X01786*
X01784Y-00145*
X01695*
Y-00157*
X01693*
Y-00158*
X01692Y-00159*
X01688Y-00161*
X01687Y-00161*
X01685Y-0016*
X01682Y-00159*
X01679Y-00159*
X01676Y-00159*
X01673Y-0016*
X0167Y-00161*
X01668Y-00162*
X01665Y-00164*
X01663Y-00165*
X01661Y-00168*
X0166Y-0017*
X01659Y-00173*
X01658Y-00175*
X01656Y-00177*
X0135*
X01348Y-00175*
Y-00168*
X01342*
X01341Y-00167*
X01339Y-00166*
X01336Y-00165*
X01334Y-00165*
X01332Y-00165*
Y-00163*
X01327*
Y-00148*
X01316*
X01311Y-00148*
Y-00147*
X01224*
Y-00159*
X01222*
Y-00186*
X01158Y-00249*
X01045*
X01043Y-00245*
X01079Y-00209*
X0108Y-00208*
X01081Y-00207*
X01128*
Y-00204*
X0113Y-00203*
X01133Y-00203*
X01136Y-00202*
X01137Y-00201*
X01162*
Y-00179*
Y-00169*
X0115*
X0115Y-00169*
X01148Y-00168*
X01146Y-00168*
Y-00164*
X01141*
Y-00148*
X0113*
X01127Y-00147*
X01039*
Y-00155*
X01037Y-00159*
X01032Y-00162*
X01031Y-00161*
X01028Y-0016*
X01025Y-0016*
X01023Y-00159*
X0102Y-0016*
X01017Y-0016*
X01014Y-00161*
X01011Y-00162*
X01009Y-00164*
X01007Y-00166*
X01005Y-00168*
X01003Y-0017*
X01002Y-00173*
X01001Y-00176*
X01001Y-00179*
X00975Y-00204*
X00712*
X00682Y-00174*
X00682Y-00174*
X00682Y-00174*
Y-00165*
X00674*
X00672Y-00165*
X0067Y-00164*
X00668Y-00163*
X00666Y-00163*
Y-0016*
X00661*
Y-00145*
X0065*
X00645Y-00145*
Y-00144*
X00558*
Y-00157*
X00556*
Y-00186*
X00552Y-0019*
X00548Y-00188*
Y-00165*
X00532*
Y-0016*
X00527*
Y-00145*
X00516*
X00511Y-00144*
Y-00144*
X00424*
Y-00156*
X00422*
Y-00204*
X00422Y-00209*
X00383Y-00248*
X00345Y-0021*
X00347Y-00205*
X00374*
Y-00203*
X00377Y-00203*
X0038Y-00202*
X00382Y-00202*
X00383Y-00201*
X00409*
Y-00179*
Y-00168*
X00395*
X00395Y-00168*
X00393Y-00168*
Y-00163*
X00388*
Y-00148*
X00377*
X00372Y-00147*
Y-00145*
X00286*
Y-00157*
X00284*
Y-00205*
X00288*
X00289Y-00206*
X0029Y-00208*
X00291Y-0021*
X00346Y-00265*
Y-00334*
X00345Y-00335*
X00341Y-00336*
X0034Y-00335*
X00338Y-00334*
X00335Y-00333*
X00333Y-00332*
X0033Y-00331*
X00327Y-00331*
X00324Y-00331*
X00321Y-00332*
X00318Y-00333*
X00316Y-00334*
X00313Y-00335*
X00311Y-00337*
X00309Y-0034*
X00308Y-00341*
X00305Y-00341*
X00303Y-0034*
Y-00308*
X00246*
X00245Y-00303*
X00248Y-00301*
X00252Y-003*
X00256Y-00297*
X0026Y-00295*
X00263Y-00292*
X00266Y-00289*
X00269Y-00286*
X00272Y-00283*
X00274Y-00279*
X00276Y-00275*
X00278Y-00272*
X0028Y-00268*
X00281Y-00263*
X00282Y-00259*
X00282Y-00256*
X00232*
Y-00308*
X00233Y-00309*
X00233Y-0031*
Y-00359*
X00218Y-00375*
X00217Y-00376*
X00216Y-00378*
X00215Y-0038*
X00214Y-00382*
X00214Y-00384*
Y-00438*
X00209Y-00441*
X00208Y-0044*
Y-00328*
X00208Y-00325*
X00207Y-00324*
X00206Y-00322*
X00205Y-0032*
X00204Y-00318*
X00196Y-0031*
X00195Y-00309*
X0019Y-00304*
X00189Y-00303*
X00165Y-00279*
X00163Y-00278*
X00162Y-00277*
X0016Y-00276*
X00158Y-00276*
X00156Y-00275*
X00105*
Y-00244*
X00071*
Y-00249*
X00057*
X00055Y-00249*
X00053Y-0025*
X00051Y-00251*
X0005Y-00251*
X0004*
Y-00279*
X00057*
Y-00281*
X00062*
Y-00295*
X00071*
Y-00302*
X00105*
Y-00302*
X0015*
X00156Y-00308*
X00155Y-00312*
X00091*
X00091Y-00312*
X00062*
Y-00338*
X00052*
Y-00312*
X00021*
X0002Y-00312*
X00013*
Y-00241*
X00014Y-00239*
X00018Y-00237*
X00018Y-00237*
X0002Y-00237*
X00066*
X00068Y-00237*
X0007Y-00237*
X00072Y-00236*
X00074Y-00235*
X00076Y-00234*
X00084Y-00225*
X00113*
Y-00222*
X00136*
Y-00199*
Y-00165*
X00127*
Y-00146*
X00134*
X00145Y-00157*
X00147Y-00159*
X00149Y-0016*
X00151Y-00161*
X00153Y-00162*
X00156Y-00162*
X00201*
X00203Y-00162*
X00206Y-00161*
X00208Y-0016*
X0021Y-00159*
X00212Y-00157*
X00243Y-00126*
X00244Y-00127*
X00247Y-00128*
X0025Y-00128*
X00253Y-00128*
X00256Y-00128*
X00258Y-00128*
X00261Y-00127*
X00264Y-00125*
X00266Y-00124*
X00268Y-00122*
X0027Y-0012*
X00272Y-00117*
X00273Y-00115*
X00274Y-00112*
X00274Y-0011*
X00279Y-00105*
X00284Y-00107*
Y-00122*
X00286*
Y-00135*
X00377*
X00387*
Y-0012*
X00392*
Y-00115*
X00408*
Y-00112*
Y-00082*
X00403*
X00401Y-00077*
X00416Y-00063*
X00437*
Y-00043*
X00442Y-0004*
X00443Y-00041*
G37*
G36*
X00053Y-00083D02*
X00055Y-00087D01*
X00055Y-00088*
X00054Y-00091*
X00054Y-00094*
X00054Y-00096*
X00055Y-00099*
X00056Y-00102*
X00056Y-00103*
Y-00146*
X00066*
Y-00161*
X00062Y-00162*
X00014*
X00013Y-00158*
Y-00082*
X00052*
X00053Y-00083*
G37*
G36*
X001Y-00162D02*
X00092D01*
Y-00146*
X001*
Y-00162*
G37*
G36*
X02349Y-00167D02*
X02302D01*
X02299*
X02297*
X02291*
X02289Y-00162*
X02295Y-00156*
X02296Y-00155*
X02297Y-00153*
X02298Y-00151*
X02298Y-00149*
X02298Y-00147*
Y-00146*
X02305*
Y-00107*
X02306Y-00106*
X02307Y-00104*
X02307Y-00101*
X02307Y-00098*
X02307Y-00095*
X02307Y-00092*
X02306Y-00091*
X02305Y-00086*
X02307Y-00082*
X02307Y-00082*
X02349*
Y-00167*
G37*
G36*
X00679Y-00221D02*
X00677Y-00225D01*
X00584*
X00582Y-00221*
X00598Y-00205*
X00599Y-00204*
X00647*
Y-00203*
X00647Y-00202*
X0065Y-00202*
X00653Y-00202*
X00656Y-00201*
X00658Y-002*
X00679Y-00221*
G37*
G36*
X01331Y-00207D02*
X01332Y-00208D01*
X01334Y-0021*
X01336Y-00211*
X01338Y-00211*
X01341Y-00212*
X01343Y-00212*
X01663*
X01665Y-00212*
X01668Y-00211*
X0167Y-00211*
X01672Y-0021*
X01674Y-00208*
X01675Y-00207*
X01679Y-00204*
X01682Y-00204*
X01684Y-00209*
X01619Y-00273*
X01206*
X01204Y-00269*
X01264Y-00209*
X01265Y-00207*
X01266Y-00207*
X01313*
Y-00204*
X01313Y-00204*
X01316Y-00203*
X01319Y-00203*
X01322Y-00202*
X01324Y-00201*
X01324*
X01331Y-00207*
G37*
G36*
X00693Y-00304D02*
X00576Y-00422D01*
X00574Y-00421*
X00556*
X00554Y-00422*
X00554Y-00422*
X00549Y-0042*
X00546Y-00415*
X00546Y-00414*
X00547Y-00412*
Y-00407*
X00547Y-00405*
X00547Y-00403*
Y-0039*
X00556Y-00382*
X00556Y-00382*
X00558Y-00383*
X00561Y-00384*
X00564Y-00385*
X00567Y-00385*
X0057Y-00385*
X00573Y-00384*
X00575Y-00383*
X00578Y-00382*
X0058Y-0038*
X00582Y-00378*
X00584Y-00376*
X00586Y-00374*
X00587Y-00371*
X00588Y-00369*
X00589Y-00366*
X00589Y-00363*
X00589Y-0036*
X00588Y-00357*
X00587Y-00354*
X00586Y-00352*
X00584Y-00349*
X00582Y-00347*
X00581Y-00346*
Y-00319*
X00561*
X00541*
Y-00335*
Y-00355*
X00535Y-00362*
X0053Y-0036*
Y-00308*
X00536Y-00302*
X00541Y-00304*
Y-00309*
X00561*
X00581*
Y-003*
X00691*
X00693Y-00304*
G37*
G36*
X0089Y-00363D02*
X0089Y-00367D01*
X00888Y-00368*
X00885Y-0037*
X00882Y-00373*
X00879Y-00376*
X00877Y-00379*
X00875Y-00383*
X00873Y-00386*
X00873Y-00387*
X0087Y-0039*
X00867Y-0039*
X00864Y-0039*
X00861Y-0039*
X00857Y-0039*
X00854Y-0039*
X00852Y-00391*
X00849Y-00392*
X00846Y-00394*
X00844Y-00396*
X00841Y-00398*
X00839Y-004*
X00838Y-00401*
X00836Y-00402*
X00835*
X00833Y-00401*
X00832Y-004*
X0083Y-00398*
X00827Y-00396*
X00825Y-00394*
X00822Y-00392*
X00819Y-00391*
X00817Y-0039*
X00814Y-0039*
X00811Y-0039*
X00807Y-0039*
X00804Y-0039*
X00802Y-00391*
X00799Y-00392*
X00796Y-00394*
X00794Y-00396*
X00791Y-00398*
X00789Y-004*
X00788Y-00401*
X00787Y-00401*
X00784Y-004*
X00782Y-00399*
X00782Y-00396*
X00781Y-00393*
X0078Y-00391*
X00778Y-00388*
X00776Y-00386*
X00774Y-00384*
X00772Y-00383*
X00769Y-00381*
X00766Y-0038*
X00763Y-0038*
X00761Y-0038*
X00758Y-0038*
X00755Y-0038*
X00752Y-00381*
X00749Y-00383*
X00747Y-00384*
X00745Y-00386*
X00743Y-00388*
X00741Y-00391*
X0074Y-00393*
X00739Y-00396*
X00739Y-00399*
X00738Y-00401*
X00738Y-00402*
X00737Y-00404*
X00736Y-00405*
X00736Y-00405*
X0073Y-00406*
X0073Y-00406*
X0073Y-00406*
X00726Y-00404*
X00722Y-00403*
X00718Y-00402*
X00714Y-00401*
X00711Y-00401*
X00709Y-00401*
X00707Y-00396*
X00741Y-00362*
X00889*
X0089Y-00363*
G37*
G36*
X00887Y-00435D02*
X00888Y-00435D01*
X00891Y-00438*
X00895Y-00439*
X00895Y-0044*
Y-00443*
X00895Y-00444*
X00891Y-00446*
X00888Y-00448*
X00887Y-00449*
X00883Y-0045*
X0088Y-00448*
X0088Y-00448*
X00877Y-00446*
X00876Y-00445*
X00875Y-00442*
Y-00442*
X00876Y-00439*
X00877Y-00438*
X0088Y-00436*
X0088Y-00435*
X00883Y-00434*
X00887Y-00435*
G37*
G36*
X00788Y-00432D02*
X00789Y-00434D01*
X00791Y-00436*
X00794Y-00438*
X00795Y-00439*
X00796Y-00442*
Y-00442*
X00795Y-00445*
X00794Y-00446*
X00791Y-00448*
X00789Y-0045*
X00788Y-00451*
X00786Y-00452*
X00785*
X00783Y-00451*
X00782Y-0045*
X0078Y-00448*
X00777Y-00446*
X00776Y-00445*
X00775Y-00442*
Y-00442*
X00776Y-00439*
X00777Y-00438*
X0078Y-00436*
X00782Y-00434*
X00783Y-00432*
X00785Y-00432*
X00786*
X00788Y-00432*
G37*
G36*
X00836Y-00432D02*
X00838Y-00432D01*
X00839Y-00434*
X00841Y-00436*
X00844Y-00438*
X00845Y-00439*
X00846Y-00442*
Y-00442*
X00845Y-00445*
X00844Y-00446*
X00841Y-00448*
X00839Y-0045*
X00838Y-00451*
X00836Y-00452*
X00835*
X00833Y-00451*
X00832Y-0045*
X0083Y-00448*
X00827Y-00446*
X00826Y-00445*
X00825Y-00442*
Y-00442*
X00826Y-00439*
X00827Y-00438*
X0083Y-00436*
X00832Y-00434*
X00833Y-00432*
X00835Y-00432*
X00836*
G37*
G36*
X00277Y-00448D02*
X00278Y-00449D01*
X0028Y-00451*
X00281Y-00452*
X00279Y-00457*
X00257*
X00251Y-00451*
X00253Y-00447*
X00277*
X00277Y-00448*
G37*
G36*
X0067Y-0044D02*
X0067Y-00442D01*
X0067Y-00446*
X00671Y-0045*
X00672Y-00454*
X00673Y-00457*
X00675Y-00461*
X00676Y-00463*
X00676Y-00464*
X00674Y-00467*
X00673Y-00468*
X0067Y-00468*
X00669Y-00467*
X00667Y-00466*
X00664Y-00465*
X00662Y-00464*
X00659Y-00463*
X00656Y-00463*
X00653Y-00463*
X0065Y-00464*
X00647Y-00465*
X00645Y-00466*
X00643Y-00467*
X0064Y-00463*
X00665Y-00438*
X0067Y-0044*
G37*
G36*
X00205Y-00477D02*
X00203Y-00482D01*
X00192*
X00187Y-0048*
Y-00466*
X00192Y-00464*
X00205Y-00477*
G37*
G36*
X00043Y-0049D02*
X00061D01*
X00064Y-00494*
X00064Y-00494*
X00067Y-00498*
X00069Y-00502*
X00073Y-00505*
X00074Y-00507*
X00072Y-00512*
X00039*
X00037Y-00512*
X00035Y-00512*
X00033Y-00513*
X00031Y-00514*
X0003Y-00516*
X00025Y-00521*
X00023Y-00522*
X00022Y-00524*
X00022Y-00526*
X00021Y-00528*
X00021Y-0053*
Y-00555*
X00021Y-00557*
X00022Y-00559*
X00022Y-00561*
X00023Y-00563*
X00025Y-00564*
X00034Y-00574*
X00035Y-00575*
X00036Y-00575*
Y-00587*
X00031Y-00587*
X00013*
Y-0049*
X0002*
X00021Y-0049*
X00033*
Y-00464*
X00043*
Y-0049*
G37*
G36*
X00638Y-00472D02*
X00637Y-00474D01*
X00635Y-00476*
X00635Y-00479*
X00634Y-00482*
X00634Y-00485*
X00634Y-00488*
X00635Y-00491*
X00635Y-00493*
X00637Y-00496*
X00637Y-00496*
X00634Y-00501*
X00608*
X00607Y-00497*
X00634Y-00469*
X00638Y-00472*
G37*
G36*
X01001Y-01318D02*
X00538D01*
X00153Y-00982*
X00153Y-00977*
X00153Y-00977*
X00142Y-00968*
X00149Y-0096*
X0016Y-00969*
X00165Y-00963*
X0017Y-00967*
X00174Y-00967*
X00189Y-00982*
X00189Y-00983*
X00188Y-00985*
X00187Y-00988*
X00186Y-00991*
X00186Y-00994*
X00186Y-00997*
X00187Y-01*
X00188Y-01002*
X00189Y-01005*
X0019Y-01007*
X00192Y-01009*
X00194Y-01011*
X00197Y-01013*
X00199Y-01014*
X00202Y-01015*
X00205Y-01016*
X00208Y-01016*
X00211Y-01016*
X00214Y-01015*
X00215Y-01015*
X0022Y-01013*
X00238*
Y-00997*
X00248*
Y-01013*
X00267*
Y-01011*
X0028*
Y-00968*
Y-00924*
X00278*
X00277Y-0092*
Y-00909*
X00262*
Y-00899*
X00277*
Y-00888*
X00279Y-00884*
X0028*
Y-0084*
Y-00796*
X00278Y-00792*
Y-00782*
X00263*
Y-00777*
X00258*
Y-00761*
X00225*
Y-00774*
X00225Y-00775*
X0022Y-00772*
Y-00757*
X0022Y-00755*
X00219Y-00753*
X00218Y-00751*
X00217Y-00749*
X00216Y-00748*
X00213Y-00744*
X00215Y-0074*
X00247*
Y-0073*
X00249Y-00729*
X00251Y-00728*
X00252Y-00727*
X00255Y-00724*
X0026Y-00726*
Y-00746*
X00273*
Y-00727*
X00283*
Y-00746*
X00295*
Y-00754*
X0031*
Y-00732*
X0032*
Y-00754*
X00322Y-00759*
X00321Y-00761*
X00313*
Y-00777*
X00308*
Y-00782*
X00292*
Y-00792*
X00291Y-00797*
X0029*
Y-0084*
Y-00884*
X00291*
X00293Y-00888*
Y-00899*
X00308*
Y-00909*
X00293*
Y-0092*
X00292Y-00924*
X0029*
Y-00968*
Y-01011*
X00302*
Y-01013*
X0035*
Y-0101*
X00351Y-0101*
X00353Y-01009*
X00355Y-01008*
X00356Y-01007*
X00436Y-00927*
X00437Y-00926*
X00438Y-00924*
X00439Y-00922*
X0044Y-0092*
X0044Y-00918*
Y-0075*
X00444Y-00749*
X00545Y-00849*
X00543Y-00854*
X00522*
X0052Y-00854*
X00518Y-00855*
X00516Y-00855*
X00514Y-00857*
X00512Y-00858*
X0049Y-0088*
X00489Y-0088*
X00487Y-0088*
X00484Y-0088*
X00481Y-00881*
X00478Y-00883*
X00476Y-00884*
X00474Y-00886*
X00472Y-00888*
X0047Y-00891*
X00469Y-00893*
X00469Y-00894*
X00464*
Y-0093*
Y-00932*
Y-00967*
Y-00969*
Y-01005*
X00472*
Y-01014*
X00472Y-01017*
X00473Y-01019*
X00473Y-01021*
X00474Y-01023*
X00476Y-01025*
X00477Y-01027*
X00507Y-01057*
Y-01073*
X00514*
Y-01086*
X00509Y-01089*
X00504Y-01084*
X00452Y-01144*
X00481Y-01169*
X00479Y-01174*
X00477Y-01174*
X00474Y-01173*
X00471Y-01173*
X00468Y-01174*
X00465Y-01175*
X00462Y-01176*
X00459Y-01177*
X00457Y-01179*
X00454Y-01181*
X00452Y-01183*
X0045Y-01185*
X00448Y-01188*
X00447Y-01191*
X00446Y-01194*
X00446Y-01197*
X00445Y-012*
X00445Y-01203*
X00446Y-01206*
X00446Y-01209*
X00447Y-01212*
X00449Y-01215*
X0045Y-01217*
X00452Y-0122*
X00455Y-01222*
X00457Y-01224*
X0046Y-01226*
X00463Y-01227*
X00466Y-01228*
X00469Y-01229*
X00472Y-01229*
X00475Y-01229*
X00478Y-01228*
X00481Y-01228*
X00484Y-01227*
X00487Y-01225*
X00489Y-01224*
X00492Y-01222*
X00494Y-01219*
X00496Y-01217*
X00497Y-01214*
X00499Y-01211*
X005Y-01209*
X005Y-01205*
X00501Y-01202*
X00501Y-01199*
X005Y-01196*
X005Y-01193*
X00499Y-01191*
X00503Y-01189*
X00532Y-01214*
X00584Y-01154*
X00549Y-01123*
X00498Y-01181*
X00497Y-01181*
X00492Y-01181*
X00491Y-0118*
X0049Y-01179*
X00489Y-01175*
X0049Y-01173*
X0054Y-01116*
X00538Y-01114*
X00538Y-01109*
X00539Y-01107*
X00541Y-01105*
X00542Y-01103*
X00543Y-01101*
X00544Y-01099*
X00544Y-01097*
Y-01073*
X00563*
Y-01054*
X00568*
Y-01049*
X0059*
Y-01037*
X00591Y-01036*
X00622Y-01005*
X00633*
Y-01004*
X00634Y-01004*
X00636Y-01003*
X00638Y-01003*
X00641Y-01002*
X00642Y-01*
X00644Y-00999*
X00696Y-00947*
X00697Y-00946*
X00707*
X00709Y-00946*
X00711Y-00946*
X00713Y-00945*
X00716Y-00944*
X00716Y-00944*
X00749*
Y-00904*
Y-00892*
X00715*
X00714Y-00892*
X00712Y-00891*
X0071Y-00891*
X00708Y-00891*
Y-00885*
X00749*
Y-00865*
Y-00826*
Y-00794*
X00666*
Y-00797*
X00563*
X00476Y-00709*
Y-00666*
X00477Y-00665*
X00481Y-00663*
X00481Y-00663*
X00483Y-00664*
X00485Y-00664*
X00487Y-00665*
Y-00666*
X00487Y-00668*
X00487Y-00671*
X00488Y-00673*
X00489Y-00675*
X00491Y-00676*
X00497Y-00682*
Y-00714*
X00545*
X00546*
X0055*
X00551*
X00569*
Y-00688*
Y-00662*
X00551*
X00549*
X00547Y-00657*
X00548Y-00655*
X00605*
Y-00663*
X00628*
X00634Y-00669*
X00634Y-0067*
X00635Y-00673*
X00635Y-00675*
X00637Y-00678*
X00638Y-0068*
X0064Y-00682*
X00642Y-00684*
X00645Y-00686*
X00647Y-00687*
X0065Y-00688*
X00653Y-00689*
X00656Y-00689*
X00659Y-00689*
X00662Y-00688*
X00664Y-00687*
X00667Y-00686*
X00669Y-00684*
X00671Y-00682*
X00673Y-0068*
X00675Y-00678*
X00676Y-00675*
X00677Y-00673*
X00678Y-0067*
X00678Y-00667*
X00682Y-00663*
X00707*
Y-00642*
X00683*
Y-00632*
X00707*
Y-00611*
X00698*
Y-00601*
X00676*
Y-00591*
X00698*
Y-00587*
X00749*
X00879Y-00717*
Y-00794*
X00849*
X00848Y-00789*
X00849Y-00788*
X00851Y-00787*
X00854Y-00785*
X00856Y-00782*
X00857Y-0078*
X00859Y-00777*
X0086Y-00774*
X0086Y-00771*
X0086Y-00768*
X0086Y-00765*
X0086Y-00763*
X00859Y-0076*
X00857Y-00757*
X00856Y-00755*
X00854Y-00752*
X00851Y-0075*
X00849Y-00749*
X00846Y-00747*
X00843Y-00746*
X00841Y-00746*
X00838Y-00746*
X00835Y-00746*
X00832Y-00746*
X00829Y-00747*
X00824Y-00744*
Y-00715*
X00733*
Y-00767*
X00813*
X00815Y-00768*
X00815Y-00771*
X00815Y-00774*
X00816Y-00777*
X00818Y-0078*
X00819Y-00782*
X00821Y-00785*
X00824Y-00787*
X00826Y-00788*
X00827Y-00789*
X00826Y-00794*
X00808*
Y-00826*
Y-00865*
Y-00904*
Y-00924*
X00891*
Y-00921*
X00893Y-0092*
X00894Y-00919*
X00896Y-00917*
X00962Y-00852*
X00963Y-0085*
X00964Y-00848*
X00965Y-00847*
X00965Y-00845*
X00966Y-00843*
Y-00687*
X00965Y-00685*
X00965Y-00683*
X00964Y-00681*
X00963Y-00679*
X00962Y-00678*
X00789Y-00505*
X00787Y-00504*
X00786Y-00503*
X00784Y-00502*
X00782Y-00501*
X0078Y-00501*
X00747*
X00746Y-005*
X00745Y-00496*
X00746Y-00496*
X0075Y-00491*
X00752Y-00492*
X00754Y-00493*
X00757Y-00494*
X00761Y-00494*
X00764Y-00494*
X00767Y-00493*
X00769Y-00492*
X00772Y-00491*
X00775Y-0049*
X00777Y-00488*
X0078Y-00486*
X00782Y-00484*
X00783Y-00482*
X00784Y-00482*
X00787Y-00484*
X00789Y-00485*
X00789Y-00487*
X0079Y-0049*
X00791Y-00493*
X00793Y-00495*
X00795Y-00497*
X00797Y-00499*
X00799Y-00501*
X00802Y-00502*
X00805Y-00503*
X00808Y-00504*
X00811Y-00504*
X00813Y-00504*
X00816Y-00503*
X00819Y-00502*
X00822Y-00501*
X00824Y-00499*
X00826Y-00497*
X00828Y-00495*
X0083Y-00493*
X00831Y-0049*
X00832Y-00487*
X00832Y-00485*
X00834Y-00484*
X00837Y-00482*
X00838Y-00482*
X00839Y-00484*
X00841Y-00486*
X00844Y-00488*
X00846Y-0049*
X00849Y-00491*
X00852Y-00492*
X00854Y-00493*
X00856Y-00493*
Y-00467*
X00866*
Y-00493*
X00867Y-00493*
X0087Y-00493*
X00873Y-00496*
X00873Y-00497*
X00875Y-00501*
X00877Y-00504*
X00879Y-00507*
X00882Y-0051*
X00885Y-00513*
X00888Y-00515*
X00891Y-00518*
X00895Y-00519*
X00899Y-00521*
X00903Y-00522*
X00907Y-00522*
X00911Y-00522*
X00914Y-00522*
X00918Y-00522*
X00922Y-00521*
X00926Y-00519*
X0093Y-00518*
X00933Y-00515*
X00936Y-00513*
X00939Y-0051*
X00942Y-00507*
X00944Y-00504*
X00946Y-00501*
X00948Y-00497*
X00949Y-00494*
X0095Y-0049*
X00951Y-00486*
X00951Y-00482*
X00951Y-00478*
X0095Y-00474*
X00949Y-0047*
X00948Y-00466*
X00946Y-00463*
X00944Y-00459*
X00942Y-00456*
X00939Y-00453*
X00936Y-0045*
X00933Y-00448*
X0093Y-00446*
X00926Y-00444*
X00926Y-00443*
Y-0044*
X00926Y-00439*
X0093Y-00438*
X00933Y-00435*
X00936Y-00433*
X00939Y-0043*
X00942Y-00427*
X00944Y-00424*
X00946Y-00421*
X00948Y-00417*
X00949Y-00414*
X0095Y-0041*
X00951Y-00406*
X00951Y-00402*
X00951Y-00398*
X0095Y-00394*
X00949Y-0039*
X00948Y-00386*
X00946Y-00383*
X00944Y-00379*
X00942Y-00376*
X00939Y-00373*
X00936Y-0037*
X00933Y-00368*
X00931Y-00367*
X00931Y-00363*
X00932Y-00362*
X01001*
Y-01318*
G37*
G36*
X00218Y-0052D02*
X0022Y-00522D01*
X00221Y-00522*
Y-0057*
X00197*
Y-00585*
X00218*
Y-00595*
X00197*
Y-00602*
X00184*
X0018Y-00599*
Y-0056*
X0018Y-00557*
X00179Y-00555*
X00178Y-00554*
X00177Y-00552*
X00176Y-0055*
X00165Y-00539*
Y-00527*
X00166Y-00522*
X00206*
X00209Y-00522*
X00211Y-00521*
X00214Y-00521*
X00216Y-0052*
X00218Y-0052*
G37*
G36*
X00154Y-00594D02*
X00136Y-00612D01*
X00135Y-00614*
X00133Y-00615*
X00133Y-00617*
X00132Y-00619*
X00132Y-00621*
Y-00644*
X00131*
X00131Y-00644*
X00102*
Y-00593*
X00102Y-00592*
X00105Y-00589*
X00106Y-00587*
X00106Y-00587*
X00135*
Y-00584*
X00154*
Y-00594*
G37*
G36*
X00213Y-0065D02*
X00203Y-0066D01*
X00198Y-00658*
Y-00645*
X00211*
X00213Y-0065*
G37*
G36*
X00345Y-00636D02*
Y-0065D01*
X00346Y-00652*
X00346Y-00654*
X00346Y-00655*
Y-00662*
X00346Y-00662*
X00343Y-00666*
X00342Y-00667*
X00342Y-00667*
X0034Y-00667*
X00337Y-00668*
X00336Y-00668*
X00332Y-00666*
X00331Y-00665*
Y-00646*
X00337Y-0064*
X00338Y-00638*
X00338Y-00638*
X00339Y-00637*
X0034Y-00635*
X0034Y-00635*
X00345Y-00636*
G37*
G36*
X00301Y-0066D02*
Y-00667D01*
X00299Y-00669*
X00293Y-00669*
X00291Y-00667*
Y-00663*
X00296Y-00658*
X00301Y-0066*
G37*
G36*
X00265Y-00669D02*
Y-00682D01*
X0026*
Y-00688*
X00259*
X00257Y-00688*
X00255Y-00689*
X00253Y-0069*
X00252Y-0069*
X0025Y-0069*
X00247Y-00688*
Y-00667*
X00252Y-00667*
X00264*
X00265Y-00669*
G37*
G36*
X00076Y-00671D02*
X00076Y-00673D01*
X00077Y-00675*
X00078Y-00677*
X00079Y-00679*
X0008Y-00681*
X00095Y-00695*
Y-00728*
X00087Y-00736*
X00085Y-00738*
X00084Y-00739*
X00083Y-00741*
X00083Y-00743*
X00083Y-00745*
Y-00772*
X00083Y-00774*
X00083Y-00775*
X00081Y-00779*
X00081Y-0078*
X0008Y-0078*
X00013*
Y-00643*
X00076*
Y-00671*
G37*
G36*
X00158Y-008D02*
Y-00809D01*
X00153Y-00811*
X00125Y-00783*
X00127Y-00779*
X00136*
X00158Y-008*
G37*
G36*
X00117Y-00812D02*
X00115Y-00816D01*
X0009*
Y-00792*
X00095Y-0079*
X00117Y-00812*
G37*
G36*
X00369Y-00692D02*
X00378Y-007D01*
Y-00825*
X00366Y-00837*
X0035*
Y-00804*
X00351Y-00802*
X00352Y-008*
X00353Y-00797*
X00353Y-00794*
X00353Y-00791*
X00352Y-00788*
X00351Y-00785*
X0035Y-00783*
X00348Y-0078*
X00346Y-00778*
X00347Y-00773*
X00352Y-00769*
X00353Y-00767*
X00354Y-00765*
X00355Y-00763*
X00356Y-00761*
X00356Y-00759*
Y-00707*
X00356Y-00707*
X00358Y-00705*
X0036Y-00702*
X00362Y-007*
X00363Y-00697*
X00364Y-00695*
X00364Y-00694*
X00369Y-00692*
X00369Y-00692*
G37*
G36*
X00034Y-00872D02*
X00029Y-00874D01*
X00013Y-0086*
Y-00836*
X00034*
Y-00872*
G37*
G36*
X00219Y-00856D02*
X0022Y-00857D01*
Y-00866*
X00244*
Y-00875*
X0022*
Y-00886*
X0022*
X00224Y-00888*
Y-00908*
X00223Y-00909*
X00222Y-00911*
X0022Y-00914*
X00219Y-00916*
X00219Y-00919*
X00219Y-00922*
X00219Y-00924*
X00217Y-00925*
X00214Y-00927*
X00196Y-00908*
Y-0084*
X002Y-00838*
X00219Y-00856*
G37*
G36*
X00078Y-00909D02*
X0008Y-0091D01*
X00082Y-00911*
X00084Y-00912*
X00086Y-00912*
X00088Y-00912*
X00136*
X00138Y-00917*
X00127Y-0093*
X00128Y-00931*
X00129Y-00936*
X00127Y-00938*
X00125Y-00939*
X00124Y-00941*
X00123Y-00943*
X00123Y-00945*
X00117Y-00951*
X00056Y-00898*
X00058Y-00893*
X00063*
X00078Y-00909*
G37*
G36*
X00402Y-00862D02*
Y-00906D01*
X00355Y-00953*
X0035Y-00951*
Y-00932*
X0035Y-00931*
X00351Y-00928*
X00352Y-00925*
X00352Y-00923*
X00352Y-0092*
X00351Y-00917*
X0035Y-00914*
X00349Y-00912*
X00348Y-00909*
X00346Y-00907*
Y-00888*
X0035Y-00886*
X0035*
Y-00883*
X00369*
X00371Y-00883*
X00373Y-00882*
X00375Y-00881*
X00377Y-0088*
X00378Y-00879*
X00397Y-0086*
X00402Y-00862*
G37*
G36*
X00666Y-00927D02*
X00638Y-00956D01*
X00635Y-00955*
X00608*
Y-00945*
X00633*
Y-00932*
Y-0093*
Y-00894*
X00593*
Y-0089*
X00554*
Y-0095*
X00544*
Y-0089*
X00533*
X0053Y-00885*
X00531Y-00884*
X00666*
Y-00927*
G37*
G36*
X00538Y-01014D02*
X00526Y-01026D01*
X00513Y-01013*
X00515Y-01009*
X00536*
X00538Y-01014*
G37*
%LNdextrems_v1-2*%
%LPC*%
G36*
X00548Y-00123D02*
X00537D01*
Y-00133*
X00548*
Y-00123*
G37*
G36*
X00682Y-00123D02*
X00671D01*
Y-00133*
X00682*
Y-00123*
G37*
G36*
X01956Y-00124D02*
X01945D01*
Y-00134*
X01956*
Y-00124*
G37*
G36*
X01818D02*
X01807D01*
Y-00134*
X01818*
Y-00124*
G37*
G36*
X00408Y-00125D02*
X00397D01*
Y-00135*
X00408*
Y-00125*
G37*
G36*
X02091Y-00125D02*
X0208D01*
Y-00136*
X02091*
Y-00125*
G37*
G36*
X01348Y-00126D02*
X01337D01*
Y-00136*
X01348*
Y-00126*
G37*
G36*
X01162Y-00127D02*
X01151D01*
Y-00137*
X01162*
Y-00127*
G37*
G36*
X00548Y-00145D02*
X00537D01*
Y-00155*
X00548*
Y-00145*
G37*
G36*
X00682Y-00145D02*
X00671D01*
Y-00155*
X00682*
Y-00145*
G37*
G36*
X01956Y-00146D02*
X01945D01*
Y-00156*
X01956*
Y-00146*
G37*
G36*
X01818Y-00146D02*
X01807D01*
Y-00156*
X01818*
Y-00146*
G37*
G36*
X02091Y-00147D02*
X0208D01*
Y-00158*
X02091*
Y-00147*
G37*
G36*
X01348Y-00148D02*
X01337D01*
Y-00158*
X01348*
Y-00148*
G37*
G36*
X00409Y-00148D02*
X00398D01*
Y-00158*
X00409*
Y-00148*
G37*
G36*
X01162Y-00148D02*
X01151D01*
Y-00159*
X01162*
Y-00148*
G37*
G36*
X00232Y-00196D02*
Y-00246D01*
X00282*
X00282Y-00242*
X00281Y-00238*
X0028Y-00233*
X00278Y-00229*
X00276Y-00226*
X00274Y-00222*
X00272Y-00218*
X00269Y-00215*
X00266Y-00212*
X00263Y-00209*
X0026Y-00206*
X00256Y-00204*
X00252Y-00201*
X00248Y-002*
X00244Y-00198*
X0024Y-00197*
X00236Y-00196*
X00232Y-00196*
G37*
G36*
X00222D02*
X00219Y-00196D01*
X00214Y-00197*
X0021Y-00198*
X00206Y-002*
X00202Y-00201*
X00198Y-00204*
X00195Y-00206*
X00191Y-00209*
X00188Y-00212*
X00185Y-00215*
X00183Y-00218*
X0018Y-00222*
X00178Y-00226*
X00176Y-00229*
X00175Y-00233*
X00174Y-00238*
X00173Y-00242*
X00172Y-00246*
X00222*
Y-00196*
G37*
G36*
X02129Y-00236D02*
Y-00286D01*
X02178*
X02178Y-00282*
X02177Y-00278*
X02176Y-00273*
X02174Y-00269*
X02173Y-00266*
X0217Y-00262*
X02168Y-00258*
X02165Y-00255*
X02162Y-00252*
X02159Y-00249*
X02156Y-00246*
X02152Y-00244*
X02148Y-00241*
X02145Y-0024*
X02141Y-00238*
X02136Y-00237*
X02132Y-00236*
X02129Y-00236*
G37*
G36*
X02119D02*
X02115Y-00236D01*
X02111Y-00237*
X02106Y-00238*
X02102Y-0024*
X02099Y-00241*
X02095Y-00244*
X02091Y-00246*
X02088Y-00249*
X02085Y-00252*
X02082Y-00255*
X02079Y-00258*
X02077Y-00262*
X02074Y-00266*
X02073Y-00269*
X02071Y-00273*
X0207Y-00278*
X02069Y-00282*
X02069Y-00286*
X02119*
Y-00236*
G37*
G36*
X00052Y-00286D02*
X0004D01*
Y-00295*
X00052*
Y-00286*
G37*
G36*
X00222Y-00256D02*
X00172D01*
X00173Y-00259*
X00174Y-00263*
X00175Y-00268*
X00176Y-00272*
X00178Y-00275*
X0018Y-00279*
X00183Y-00283*
X00185Y-00286*
X00188Y-00289*
X00191Y-00292*
X00195Y-00295*
X00198Y-00297*
X00202Y-003*
X00206Y-00301*
X0021Y-00303*
X00214Y-00304*
X00219Y-00305*
X00222Y-00305*
Y-00256*
G37*
G36*
X00579Y-00662D02*
Y-00683D01*
X00599*
Y-00662*
X00579*
G37*
G36*
X00599Y-00693D02*
X00579D01*
Y-00714*
X00599*
Y-00693*
G37*
G36*
X00278Y-00761D02*
X00268D01*
Y-00772*
X00278*
Y-00761*
G37*
G36*
X00303D02*
X00292D01*
Y-00772*
X00303*
Y-00761*
G37*
G36*
X00891Y-00933D02*
X00808D01*
Y-00944*
X00826*
X00827Y-00949*
X00826Y-00949*
X00824Y-00951*
X00821Y-00953*
X00819Y-00955*
X00818Y-00958*
X00816Y-0096*
X00815Y-00963*
X00815Y-00966*
X00815Y-00969*
X00813Y-00971*
X00733*
Y-01023*
X00824*
Y-00993*
X00829Y-0099*
X00832Y-00991*
X00835Y-00992*
X00838Y-00992*
X00841Y-00992*
X00843Y-00991*
X00846Y-0099*
X00849Y-00989*
X00851Y-00987*
X00854Y-00985*
X00856Y-00983*
X00857Y-00981*
X00859Y-00978*
X0086Y-00975*
X0086Y-00972*
X0086Y-00969*
X0086Y-00966*
X0086Y-00963*
X00859Y-0096*
X00857Y-00958*
X00856Y-00955*
X00854Y-00953*
X00851Y-00951*
X00849Y-00949*
X00848Y-00949*
X00849Y-00944*
X00891*
Y-00933*
G37*
G36*
X0059Y-01059D02*
X00573D01*
Y-01073*
X0059*
Y-01059*
G37*
G36*
X00938Y-0105D02*
X00858D01*
Y-0108*
X00938*
Y-0105*
G37*
G36*
X00848D02*
X00768D01*
Y-0108*
X00848*
Y-0105*
G37*
G36*
X00938Y-0109D02*
X00858D01*
Y-0112*
X00938*
Y-0109*
G37*
G36*
X00848D02*
X00768D01*
Y-0112*
X00848*
Y-0109*
G37*
G36*
X00415Y-01007D02*
X00363Y-01066D01*
X00368Y-0107*
X00367Y-01072*
X00368Y-01074*
X00368Y-01077*
X00369Y-0108*
X0037Y-01083*
X00372Y-01085*
X00374Y-01087*
X00376Y-01089*
X00378Y-01091*
X00379Y-01091*
X00379Y-01096*
X00379Y-01096*
X00376Y-01097*
X00373Y-01098*
X0037Y-01099*
X00368Y-01101*
X00365Y-01103*
X00363Y-01105*
X00361Y-01108*
X00359Y-0111*
X00358Y-01113*
X00357Y-01116*
X00357Y-01119*
X00356Y-01122*
X00356Y-01125*
X00357Y-01128*
X00357Y-01132*
X00358Y-01134*
X0036Y-01137*
X00361Y-0114*
X00363Y-01142*
X00366Y-01144*
X00368Y-01146*
X00371Y-01148*
X00374Y-01149*
X00377Y-0115*
X0038Y-01151*
X00383Y-01151*
X00386Y-01151*
X00389Y-01151*
X00392Y-0115*
X00395Y-01149*
X00398Y-01148*
X004Y-01146*
X00403Y-01144*
X00405Y-01142*
X00407Y-01139*
X00408Y-01137*
X0041Y-01134*
X00411Y-01131*
X00411Y-01128*
X00412Y-01125*
X00412Y-01122*
X00411Y-01119*
X00411Y-01116*
X00409Y-01113*
X00408Y-0111*
X00406Y-01107*
X00404Y-01105*
X00402Y-01103*
X00401Y-01102*
X004Y-01097*
X00401Y-01095*
X00451Y-01038*
X00415Y-01007*
G37*
G36*
X00937Y-01162D02*
X00767D01*
Y-01232*
X00937*
Y-01162*
G37*
G36*
X00673Y-01182D02*
Y-01232D01*
X00722*
X00722Y-01229*
X00721Y-01224*
X0072Y-0122*
X00718Y-01216*
X00717Y-01212*
X00714Y-01208*
X00712Y-01205*
X00709Y-01201*
X00706Y-01198*
X00703Y-01195*
X007Y-01193*
X00696Y-0119*
X00692Y-01188*
X00689Y-01186*
X00685Y-01185*
X0068Y-01184*
X00676Y-01183*
X00673Y-01182*
G37*
G36*
X00663D02*
X00659Y-01183D01*
X00655Y-01184*
X0065Y-01185*
X00646Y-01186*
X00643Y-01188*
X00639Y-0119*
X00635Y-01193*
X00632Y-01195*
X00629Y-01198*
X00626Y-01201*
X00623Y-01205*
X00621Y-01208*
X00618Y-01212*
X00617Y-01216*
X00615Y-0122*
X00614Y-01224*
X00613Y-01229*
X00613Y-01232*
X00663*
Y-01182*
G37*
G36*
X00722Y-01242D02*
X00673D01*
Y-01292*
X00676Y-01291*
X0068Y-01291*
X00685Y-01289*
X00689Y-01288*
X00692Y-01286*
X00696Y-01284*
X007Y-01282*
X00703Y-01279*
X00706Y-01276*
X00709Y-01273*
X00712Y-01269*
X00714Y-01266*
X00717Y-01262*
X00718Y-01258*
X0072Y-01254*
X00721Y-0125*
X00722Y-01246*
X00722Y-01242*
G37*
G36*
X00663D02*
X00613D01*
X00613Y-01246*
X00614Y-0125*
X00615Y-01254*
X00617Y-01258*
X00618Y-01262*
X00621Y-01266*
X00623Y-01269*
X00626Y-01273*
X00629Y-01276*
X00632Y-01279*
X00635Y-01282*
X00639Y-01284*
X00643Y-01286*
X00646Y-01288*
X0065Y-01289*
X00655Y-01291*
X00659Y-01291*
X00663Y-01292*
Y-01242*
G37*
%LNdextrems_v1-3*%
%LPD*%
G54D17*
X00656Y-00485D02*
X00735D01*
X00656D02*
X00656D01*
X00315Y-00691D02*
X00316D01*
X00492Y-0091D02*
Y-00902D01*
X02083Y-0006D02*
X02091D01*
X02001Y-00078D02*
X02021Y-00059D01*
X02083D02*
X02083Y-0006D01*
X02021Y-00059D02*
X02083D01*
X02091Y-0006D02*
X02114Y-00082D01*
X0205Y-00075D02*
X02051Y-00076D01*
X02029Y-00075D02*
X0205D01*
X02021Y-00083D02*
X02029Y-00075D01*
X02051Y-00076D02*
X02079D01*
X02152Y-00149*
X02114Y-00082D02*
X02121Y-00089D01*
X02152Y-00149D02*
X02206D01*
X02121Y-00089D02*
X02174D01*
X02191Y-00106*
X02021Y-00097D02*
Y-00083D01*
X02001Y-00097D02*
Y-00078D01*
X02064Y-00098D02*
X02075D01*
X02075Y-00098*
X01886Y-00098D02*
Y-00023D01*
X01889Y-00021*
X01612Y-00147D02*
X01687Y-00072D01*
X01365Y-00075D02*
X01437Y-00147D01*
X00649Y-00098D02*
X00666D01*
X01259Y-00081D02*
X01281Y-00059D01*
X01373D02*
X01393Y-00078D01*
X01278Y-00084D02*
X01287Y-00075D01*
X01365*
X01281Y-00059D02*
X01373D01*
X01397Y-00083D02*
X01404Y-00089D01*
X01259Y-00097D02*
Y-00081D01*
X01258Y-00098D02*
X01259Y-00097D01*
X01278D02*
Y-00084D01*
X00933Y-00147D02*
X01005Y-00074D01*
X01315Y-00098D02*
X01332D01*
X01437Y-00147D02*
X01501D01*
X01277Y-00098D02*
X01278Y-00097D01*
X01069Y-00057D02*
X01092Y-0008D01*
X00997Y-00057D02*
X01069D01*
X00318Y-00098D02*
Y-00082D01*
X0031Y-00074D02*
X00318Y-00082D01*
X00317Y-00058D02*
X00338Y-00079D01*
X00289Y-00074D02*
X0031D01*
X00224Y-00101D02*
X00267Y-00058D01*
X00317*
X00262Y-00101D02*
X00289Y-00074D01*
X00247Y-00101D02*
X00262D01*
X00338Y-00098D02*
Y-00079D01*
X00201Y-00147D02*
X00247Y-00101D01*
X00338Y-00098D02*
X00339Y-00099D01*
X00458Y-00034D02*
X00458Y-00034D01*
X00458Y-00034D02*
Y-00021D01*
X00458Y-00098D02*
Y-00034D01*
X00477Y-0006D02*
X00489Y-00048D01*
Y-00043*
X00672Y-00073D02*
X00746Y-00147D01*
X00689Y-00068D02*
X00717Y-00096D01*
X00679Y-00057D02*
X00689Y-00068D01*
X00717Y-00096D02*
X00771D01*
X00781Y-00106*
X01728Y-00098D02*
Y-00078D01*
X01687Y-00072D02*
X01722D01*
X01728Y-00078*
X0168Y-00056D02*
X01729D01*
X01641Y-00095D02*
X0168Y-00056D01*
X01748Y-00098D02*
Y-00075D01*
X01729Y-00056D02*
X01748Y-00075D01*
X01565Y-00147D02*
X01612D01*
X01592Y-00095D02*
X01641D01*
X00316Y-00688D02*
Y-0064D01*
Y-00691D02*
Y-00691D01*
X01554Y-00135D02*
X01565Y-00147D01*
X01554Y-00135D02*
Y-00121D01*
X01513Y-00135D02*
Y-00121D01*
X01501Y-00147D02*
X01513Y-00135D01*
X00621Y-00073D02*
X00672D01*
X00746Y-00147D02*
X00796D01*
X00614Y-00057D02*
X00679D01*
X00156Y-00147D02*
X00201D01*
X00171Y-00106D02*
X00176Y-00101D01*
X00224*
X00522Y-00869D02*
X00708D01*
X00489Y-00902D02*
X00522Y-00869D01*
X00489Y-00912D02*
X00492Y-0091D01*
X00735Y-00485D02*
X00753Y-00467D01*
X00707Y-00929D02*
X00708Y-00928D01*
X00529Y-01097D02*
Y-01054D01*
X00496Y-01129D02*
X00529Y-01097D01*
X01866Y-00097D02*
Y-00057D01*
X01862Y-00053D02*
X01866Y-00057D01*
Y-00097D02*
X01867Y-00098D01*
X02217Y-00137D02*
Y-00121D01*
X02206Y-00149D02*
X02217Y-00137D01*
Y-00121D02*
X02222Y-00116D01*
X02001Y-00098D02*
X02001Y-00097D01*
X0202Y-00098D02*
X02021Y-00097D01*
X02191Y-00116D02*
Y-00106D01*
X01549Y-00116D02*
X01554Y-00121D01*
X01748Y-00098D02*
X01749Y-00098D01*
X0158Y-00106D02*
X01592Y-00095D01*
X0158Y-00116D02*
Y-00106D01*
X01728Y-00098D02*
X01729Y-00098D01*
X01404Y-00089D02*
X01467D01*
X01479Y-00101D02*
X01481D01*
X01467Y-00089D02*
X01479Y-00101D01*
X01513Y-00121D02*
X01517Y-00116D01*
X01486D02*
Y-00106D01*
X01481Y-00101D02*
X01486Y-00106D01*
X00849Y-00139D02*
Y-00122D01*
X00857Y-00147D02*
X0089D01*
X00844Y-00116D02*
X00849Y-00121D01*
Y-00139D02*
X00857Y-00147D01*
X0089Y-00147D02*
X00933D01*
X0089Y-00147D02*
X0089Y-00147D01*
X01005Y-00074D02*
X01063D01*
X00887Y-00095D02*
X0096D01*
X00996Y-00058*
X00876Y-00106D02*
X00887Y-00095D01*
X01092Y-00099D02*
Y-0008D01*
X00876Y-00116D02*
Y-00106D01*
X01063Y-00074D02*
X01071Y-00082D01*
Y-00098D02*
X01072Y-00099D01*
X01071Y-00098D02*
Y-00082D01*
X00593Y-00078D02*
X00614Y-00057D01*
X00612Y-00081D02*
X00621Y-00073D01*
X00593Y-00097D02*
Y-00078D01*
X00592Y-00098D02*
X00593Y-00097D01*
X00612D02*
Y-00081D01*
X00781Y-00116D02*
Y-00106D01*
X00611Y-00098D02*
X00612Y-00097D01*
X00796Y-00147D02*
X00808Y-00135D01*
Y-00121*
X00813Y-00116*
X00171D02*
Y-00106D01*
X00139Y-00116D02*
X00144Y-00121D01*
Y-00135D02*
Y-00121D01*
Y-00135D02*
X00156Y-00147D01*
X00318Y-00098D02*
X00319Y-00099D01*
X00477Y-00098D02*
Y-0006D01*
X00316Y-0064D02*
X00326Y-00629D01*
X00316Y-00688D02*
X00342D01*
X00343Y-00689*
X00315Y-00692D02*
X00316Y-00691D01*
X00327Y-00629D02*
Y-0061D01*
G54D18*
X01886Y-00181D02*
X0194D01*
X02021Y-00181D02*
X02075D01*
X01749Y-00181D02*
X01802D01*
X01278Y-00181D02*
X01313D01*
X01127Y-00181D02*
X01146D01*
X00612Y-0018D02*
X00647D01*
X01092Y-00181D02*
X01127D01*
X00328Y-00774D02*
X0033Y-00776D01*
Y-00794D02*
Y-00776D01*
X00331Y-00826D02*
Y-00794D01*
X00326Y-0083D02*
X00331Y-00826D01*
X00327Y-00958D02*
Y-00938D01*
X00227Y-00384D02*
X00268Y-00343D01*
X00297Y-0045D02*
D01*
X00269Y-00412D02*
X00289Y-00432D01*
Y-00442D02*
Y-00432D01*
Y-00442D02*
X00297Y-0045D01*
X00314Y-00467D01*
X00305Y-00441D02*
X00313Y-00448D01*
X00305Y-00441D02*
Y-00375D01*
X003Y-0047D02*
X00312Y-00482D01*
X00227Y-00445D02*
Y-00384D01*
X00295Y-00482D02*
X00308Y-00495D01*
X00327Y-00482D02*
X00327Y-00483D01*
X00251Y-0047D02*
X003D01*
X00227Y-00445D02*
X00251Y-0047D01*
X00312Y-00482D02*
X00327D01*
X00228Y-00482D02*
X00295D01*
X00308Y-00495D02*
X00312Y-00498D01*
X00327*
X00195Y-00449D02*
Y-00328D01*
Y-00449D02*
X00228Y-00482D01*
X01768Y-00098D02*
X01769Y-001D01*
X01785*
X01709Y-00123D02*
X01726Y-0014D01*
X01709Y-00123D02*
Y-00098D01*
X01726Y-0014D02*
X01739D01*
X00299Y-00123D02*
X00316Y-0014D01*
X00299Y-00123D02*
Y-00099D01*
X00316Y-0014D02*
X00329D01*
X00169Y-00944D02*
X00208Y-00982D01*
Y-00994D02*
Y-00982D01*
X00268Y-0087D02*
X00285Y-00853D01*
X00244Y-0087D02*
X00268D01*
X00285Y-00853D02*
Y-0084D01*
X00019Y-0018D02*
X00038D01*
X00083Y-00208D02*
X00085D01*
X00039Y-00203D02*
X00059D01*
X00015Y-00184D02*
X00019Y-0018D01*
X00015Y-00219D02*
X0002Y-00224D01*
X00066*
X00034Y-00208D02*
X00039Y-00203D01*
X00084Y-0018D02*
X00089D01*
X00015Y-00219D02*
Y-00184D01*
X00077Y-00185D02*
X0008D01*
X00085Y-0018*
X00066Y-00224D02*
X00083Y-00208D01*
X00059Y-00203D02*
X00077Y-00185D01*
X00186Y-00319D02*
Y-00319D01*
Y-00319D02*
X00195Y-00328D01*
X00181Y-00313D02*
X00186Y-00319D01*
X00305Y-00375D02*
X00327Y-00353D01*
X00327Y-00435D02*
Y-00388D01*
X00328Y-00388*
X00327Y-00435D02*
X00327Y-00435D01*
X00313Y-00448D02*
X00315D01*
X00318Y-00451*
X00327*
X01834Y-00057D02*
Y-00022D01*
X01782Y-00064D02*
X01827D01*
X01834Y-00057*
X01769Y-00052D02*
X01782Y-00064D01*
X01923Y-00056D02*
Y-00032D01*
X01928Y-00062D02*
X01974D01*
X01923Y-00056D02*
X01928Y-00062D01*
X01974D02*
X01991Y-00045D01*
X02115Y-00081D02*
Y-00028D01*
X02114Y-00082D02*
X02115Y-00081D01*
X02001Y-00013D02*
X021D01*
X02115Y-00028*
X02031Y-00029D02*
X02054D01*
X01997Y-00045D02*
X02001Y-0004D01*
X02019*
X02031Y-00029*
X01255Y-00045D02*
X01306D01*
X01221Y-00028D02*
X0123D01*
X0125Y-0004D02*
X01255Y-00045D01*
X01242Y-0004D02*
X0125D01*
X0123Y-00028D02*
X01242Y-0004D01*
X01204Y-00017D02*
X0121D01*
X01221Y-00028*
X00094Y-00289D02*
X00156D01*
X00181Y-00313*
X00181*
X00106Y-00537D02*
X00111Y-00542D01*
X00039Y-00525D02*
X00087D01*
X00099Y-00537D02*
X00106D01*
X00087Y-00525D02*
X00099Y-00537D01*
X0008Y-00547D02*
X00098Y-00564D01*
X00066Y-00542D02*
X00071Y-00547D01*
X00098Y-00564D02*
X00106D01*
X00071Y-00547D02*
X0008D01*
X00106Y-00564D02*
X00111Y-00569D01*
X00125Y-00696D02*
X00131Y-00703D01*
X0006Y-00542D02*
X00066D01*
X00034Y-00555D02*
Y-0053D01*
X00055Y-00564D02*
X0006Y-00569D01*
X00043Y-00564D02*
X00055D01*
X00034Y-00555D02*
X00043Y-00564D01*
X00131Y-00657D02*
X00142D01*
X00145Y-00621D02*
X00167Y-00599D01*
X00142Y-00657D02*
X00145Y-00654D01*
Y-00621*
X00124Y-00664D02*
X00131Y-00657D01*
X00167Y-00599D02*
Y-0056D01*
X00155Y-00548D02*
X00167Y-0056D01*
X00148Y-00544D02*
X00152Y-00548D01*
X00155*
X00111Y-00569D02*
X00112Y-00568D01*
X00147*
X00148Y-00567*
X00107Y-00689D02*
X00118D01*
X00089Y-00671D02*
X00107Y-00689D01*
X0006Y-00569D02*
X00066D01*
X00089Y-00593*
Y-00671D02*
Y-00593D01*
X00118Y-00689D02*
X00124Y-00696D01*
X00034Y-0053D02*
X00039Y-00525D01*
X00135Y-00873D02*
Y-00833D01*
Y-00873D02*
X00151D01*
X00111D02*
X00135D01*
X00131Y-00829D02*
X00135Y-00833D01*
X00089Y-00829D02*
X00131D01*
X00096Y-00772D02*
X00151Y-00827D01*
X00096Y-00772D02*
Y-00745D01*
X00109Y-00875D02*
X00111Y-00873D01*
X00062Y-00843D02*
X00076D01*
X00089Y-00829*
X00058Y-00848D02*
X00062Y-00843D01*
X00081Y-00859D02*
D01*
X00106Y-0085D02*
X00109Y-00848D01*
X0009Y-0085D02*
X00106D01*
X00081Y-00859D02*
X0009Y-0085D01*
X00069Y-0087D02*
X00081Y-00859D01*
X00151Y-0085D02*
Y-00827D01*
X00062Y-0087D02*
X00069D01*
X00058Y-00875D02*
X00062Y-0087D01*
X00107Y-00734D02*
X00118D01*
X00096Y-00745D02*
X00107Y-00734D01*
X00118D02*
X00124Y-00727D01*
X00058Y-00875D02*
X00064D01*
X00088Y-00899*
X00151*
X00171Y-00919*
X00151Y-00932D02*
Y-00928D01*
X00134Y-00954D02*
X00136Y-00952D01*
Y-00947*
X00151Y-00932*
X00169Y-00944D02*
X00169D01*
X00327Y-00938D02*
X00327D01*
X00326D02*
X00327D01*
X00183Y-00914D02*
Y-00775D01*
Y-00914D02*
X00224Y-00955D01*
X00241*
X00171Y-00919D02*
Y-00795D01*
Y-00919D02*
X00219Y-00967D01*
Y-00972D02*
Y-00967D01*
Y-00972D02*
X00224Y-00977D01*
X00243*
X02243Y-00208D02*
X02244Y-00209D01*
X02228Y-00205D02*
X02231Y-00208D01*
X02228Y-00205D02*
Y-00175D01*
X02231Y-00208D02*
X02243D01*
X02216Y-0021D02*
X02231Y-00225D01*
X02216Y-0017D02*
X0223Y-00155D01*
X02216Y-0021D02*
Y-0017D01*
X0223Y-00155D02*
X02243D01*
X02228Y-00175D02*
X02235Y-00167D01*
X02265*
X02231Y-00225D02*
X02256D01*
X02249Y-00186D02*
X02249Y-00185D01*
X02287Y-00217D02*
X02299Y-00229D01*
X0228Y-00217D02*
X02287D01*
X02314Y-00207D02*
X02321D01*
X02303Y-00196D02*
X02314Y-00207D01*
X02294Y-00187D02*
X02303Y-00196D01*
X02277Y-00187D02*
X02294D01*
X02275Y-00185D02*
X02277Y-00187D01*
X02303Y-00196D02*
D01*
X02326Y-00185D02*
X02326Y-00185D01*
X02321Y-00207D02*
X02326Y-00212D01*
X02269D02*
X02275D01*
X0228Y-00217*
X02349Y-00224D02*
Y-00189D01*
X02344Y-00229D02*
X02349Y-00224D01*
X02299Y-00229D02*
X02344D01*
X02249Y-00185D02*
X02275D01*
X02345Y-00185D02*
X02349Y-00189D01*
X02326Y-00185D02*
X02345D01*
X02256Y-00225D02*
X02269Y-00212D01*
X02254Y-00145D02*
Y-00116D01*
X02243Y-00155D02*
X02254Y-00145D01*
X02265Y-00167D02*
X02285Y-00147D01*
Y-00116*
X01923Y-00032D02*
X01932Y-00022D01*
X01941*
X01945Y-00017*
X01965Y-00042D02*
X01985Y-00022D01*
X01948Y-00042D02*
X01965D01*
X01945Y-00045D02*
X01948Y-00042D01*
X01992Y-00022D02*
X02001Y-00013D01*
X01991Y-00045D02*
X01997D01*
X01985Y-00022D02*
X01992D01*
X01805Y-00042D02*
X01809Y-00047D01*
X0181Y-0002D02*
X01832D01*
X01798Y-00042D02*
X01805D01*
X01787Y-00031D02*
X01798Y-00042D01*
X01778Y-00022D02*
X01787Y-00031D01*
X01758Y-00047D02*
X01763Y-00052D01*
X01769*
X01832Y-00021D02*
X01834Y-00022D01*
X01787Y-00031D02*
D01*
X01758Y-00019D02*
X01761Y-00022D01*
X01778*
X01809Y-00019D02*
X0181Y-0002D01*
X0168Y-00056D02*
Y-00053D01*
X01693Y-00036D02*
X01697Y-00033D01*
X01693Y-0004D02*
Y-00036D01*
X0168Y-00053D02*
X01693Y-0004D01*
X01721Y-00033D02*
X01737D01*
X01745Y-00024*
X01753*
X01758Y-00019*
X00243Y-00779D02*
X00245Y-00777D01*
X01306Y-00045D02*
X0132Y-00031D01*
X01255Y-00017D02*
X01259Y-00014D01*
X01373*
X01393Y-00078D02*
Y-00033D01*
Y-00078D02*
X01397Y-00083D01*
X01373Y-00014D02*
X01393Y-00033D01*
X01204Y-00045D02*
X0121D01*
X0123Y-00065*
X01243*
X01259Y-00081*
X00524Y-00275D02*
X0118D01*
X01255Y-002D02*
Y-00184D01*
X0118Y-00275D02*
X01255Y-002D01*
X00503Y-00251D02*
X01019D01*
X01069Y-002D02*
Y-00184D01*
X01019Y-00251D02*
X01069Y-002D01*
X01119Y-00064D02*
X01163D01*
X01172Y-00056D02*
Y-00021D01*
X01163Y-00064D02*
X01172Y-00056D01*
X01106Y-00051D02*
X01119Y-00064D01*
X01106Y-00051D02*
Y-0005D01*
X0117Y-00019D02*
X01172Y-00021D01*
X01157Y-00019D02*
X0117D01*
X01095Y-00017D02*
X011Y-00022D01*
X01111*
X01129Y-0004*
X01141*
X01146Y-00045*
X01067Y-00018D02*
X01104D01*
X01157Y-00023D02*
Y-00022D01*
X01152Y-00017D02*
X01157Y-00022D01*
X01095Y-00045D02*
X01101D01*
X01155Y-00018D02*
X01161D01*
X01101Y-00045D02*
X01106Y-0005D01*
X01058Y-00027D02*
D01*
X01067Y-00018*
X01055Y-0003D02*
X01058Y-00027D01*
X01027Y-00035D02*
X01031Y-00031D01*
X01023Y-00035D02*
X01027D01*
X01Y-00057D02*
X01023Y-00035D01*
X00267Y-00058D02*
Y-00055D01*
X00284Y-00038D02*
X00288Y-00034D01*
X00284Y-00039D02*
Y-00038D01*
X00267Y-00055D02*
X00284Y-00039D01*
X00355Y-00074D02*
X00386D01*
X00313Y-00032D02*
X00327Y-00018D01*
X00319Y-00038D02*
X00355Y-00074D01*
X00311Y-00034D02*
X00315Y-00038D01*
X00311Y-00034D02*
X00313Y-00032D01*
X00315Y-00038D02*
X00319D01*
X00386Y-00074D02*
X00413Y-00047D01*
X00357Y-00017D02*
X00362D01*
X00327Y-00018D02*
X00351D01*
X00589Y-00041D02*
X00596D01*
X006Y-00037D02*
X00613D01*
X00619Y-00031*
X00584Y-00046D02*
X00589Y-00041D01*
X00596D02*
X006Y-00037D01*
X00597Y-00012D02*
X00686D01*
X00584Y-00018D02*
X0059D01*
X00597Y-00012*
X00579Y-00041D02*
X00584Y-00046D01*
X00538Y-00023D02*
X00551D01*
X00568Y-00041*
X00579*
X00533Y-00018D02*
X00538Y-00023D01*
X00686Y-00012D02*
X007Y-00026D01*
X00533Y-00046D02*
X00539D01*
X00557Y-00064*
X00579*
X00593Y-00078*
X007Y-00057D02*
Y-00026D01*
X00689Y-00068D02*
X007Y-00057D01*
X00404Y-0002D02*
Y-00015D01*
X00413*
X00391Y-00022D02*
X00402D01*
X00371Y-0004D02*
X00374D01*
X00391Y-00022*
X00368Y-00043D02*
X00371Y-0004D01*
X00402Y-00022D02*
X00404Y-0002D01*
X00355Y-00022D02*
X00357Y-0002D01*
X0035Y-00022D02*
X00355D01*
X00113Y-00176D02*
X00119Y-00182D01*
X00108Y-00116D02*
X00113Y-00122D01*
Y-00176D02*
Y-00122D01*
X00076Y-00116D02*
X00079Y-00119D01*
Y-00175D02*
Y-00119D01*
Y-00175D02*
X00084Y-0018D01*
X00089Y-00207D02*
X00114D01*
X00115Y-00206*
X0033Y-00923D02*
X0033Y-00922D01*
Y-00904*
X00327Y-00938D02*
X0033Y-00936D01*
Y-00923*
X00328Y-00774D02*
X00343Y-00759D01*
X0033Y-00794D02*
X00331Y-00794D01*
X00238Y-00677D02*
X00253D01*
X00228Y-00686D02*
X00238Y-00677D01*
X00228Y-00687D02*
Y-00686D01*
X00215Y-00622D02*
X00218Y-00625D01*
X0018Y-00622D02*
X00215D01*
X00218Y-00625D02*
Y-0059D01*
Y-00625D02*
D01*
X00339Y-00181D02*
X00359D01*
X00611Y-0018D02*
X00612Y-0018D01*
X00243Y-00977D02*
X00243Y-00978D01*
X00208Y-00673D02*
X00227Y-00654D01*
X00208Y-00681D02*
Y-00673D01*
X00227Y-00654D02*
X00264D01*
X00293Y-00625*
X0023Y-00717D02*
X00243D01*
X00259Y-00701D02*
X00278D01*
X00228Y-0072D02*
X0023Y-00717D01*
X00243D02*
X00259Y-00701D01*
X00202Y-00687D02*
X00208Y-00681D01*
X00463Y-00714D02*
Y-00665D01*
X00451Y-00719D02*
X00561Y-00829D01*
X00439Y-00724D02*
X00563Y-00849D01*
X00732*
X00439Y-00724D02*
Y-00675D01*
X00451Y-00719D02*
Y-0067D01*
X00463Y-00714D02*
X00558Y-0081D01*
X00561Y-00829D02*
X00714D01*
X00558Y-0081D02*
X00726D01*
X00423Y-00659D02*
X00439Y-00675D01*
X00407Y-00661D02*
X00427Y-0068D01*
X00403Y-00836D02*
Y-0069D01*
X00427Y-00918D02*
Y-0068D01*
X00391Y-0083D02*
Y-00695D01*
X00454Y-00656D02*
X00463Y-00665D01*
X00349Y-00977D02*
X00415Y-00911D01*
X00371Y-0085D02*
X00391Y-0083D01*
X00359Y-00664D02*
X00391Y-00695D01*
X00438Y-00658D02*
X00451Y-0067D01*
X00415Y-00911D02*
Y-00685D01*
X00375Y-00663D02*
X00403Y-0069D01*
X00391Y-00662D02*
X00415Y-00685D01*
X00347Y-00997D02*
X00427Y-00918D01*
X00369Y-0087D02*
X00403Y-00836D01*
X01004Y-00239D02*
X0105Y-00193D01*
X00491Y-00239D02*
X01004D01*
X00647Y-0018D02*
X00648Y-00181D01*
X01277Y-00181D02*
X01278Y-00181D01*
X00422Y-00267D02*
X00474Y-00215D01*
X00558Y-00227D02*
X00589Y-00196D01*
X00517Y-00302D02*
X00533Y-00287D01*
X0047Y-00284D02*
X00503Y-00251D01*
X00514Y-00263D02*
X01164D01*
X00485Y-00291D02*
X00514Y-00263D01*
X01164D02*
X01238Y-00188D01*
X00501Y-00298D02*
X00524Y-00275D01*
X00438Y-00272D02*
X00484Y-00227D01*
X00474Y-00215D02*
X00546D01*
X00572Y-00188*
X00533Y-00287D02*
X01625D01*
X01709Y-00202*
X00484Y-00227D02*
X00558D01*
X00454Y-00276D02*
X00491Y-00239D01*
X00753Y-00467D02*
X00761D01*
X00496Y-0113D02*
Y-01129D01*
X00087Y-00282D02*
X00094Y-00289D01*
X00057Y-00262D02*
X00084D01*
X00087Y-00258*
X00929Y-0083D02*
Y-00697D01*
X00849Y-00869D02*
X0089D01*
X00929Y-0083*
X00849Y-00849D02*
X00891D01*
X00917Y-00824*
Y-00702*
X00888Y-00889D02*
X00941Y-00836D01*
X00775Y-00526D02*
X00941Y-00692D01*
X00849Y-00889D02*
X00888D01*
X00941Y-00836D02*
Y-00692D01*
X00887Y-00908D02*
X00953Y-00843D01*
X0078Y-00514D02*
X00953Y-00687D01*
X00849Y-00908D02*
X00887D01*
X00953Y-00843D02*
Y-00687D01*
X00893Y-00803D02*
Y-00712D01*
X0085Y-0081D02*
X00886D01*
X00849Y-0081D02*
X0085Y-0081D01*
X00886D02*
X00893Y-00803D01*
X00905Y-00815D02*
Y-00707D01*
X00755Y-00574D02*
X00893Y-00712D01*
X00598Y-00538D02*
X0077D01*
X00565Y-00514D02*
X0078D01*
X0076Y-00562D02*
X00905Y-00707D01*
X00603Y-0055D02*
X00765D01*
X00593Y-00526D02*
X00775D01*
X00765Y-0055D02*
X00917Y-00702D01*
X0077Y-00538D02*
X00929Y-00697D01*
X00607Y-00562D02*
X0076D01*
X0089Y-00829D02*
X00905Y-00815D01*
X00849Y-00829D02*
X0089D01*
X00594Y-00593D02*
X00612Y-00574D01*
X00589Y-0053D02*
X00593Y-00526D01*
X00592Y-00577D02*
X00607Y-00562D01*
X00612Y-00574D02*
X00755D01*
X00591Y-00561D02*
X00603Y-0055D01*
X0059Y-00546D02*
X00598Y-00538D01*
X00565Y-00561D02*
X00591D01*
X00565Y-00593D02*
X00594D01*
X00565Y-00577D02*
X00592D01*
X00422Y-00641D02*
X00423Y-00642D01*
X00407Y-00661D02*
Y-00642D01*
X00438Y-00658D02*
Y-00642D01*
X00391Y-00641D02*
X00391Y-00642D01*
X00423Y-00659D02*
Y-00642D01*
X00391Y-00662D02*
Y-00642D01*
X00375Y-00663D02*
Y-00641D01*
X00359Y-00664D02*
Y-00641D01*
X00438D02*
X00438Y-00642D01*
X00407Y-00641D02*
X00407Y-00642D01*
X00454Y-00656D02*
Y-00641D01*
X00326Y-00958D02*
X00327Y-00958D01*
X00326Y-0083D02*
X00326Y-0083D01*
X00343Y-00759D02*
Y-00691D01*
X00326Y-0085D02*
X00371D01*
X00326Y-0087D02*
X00369D01*
X00327Y-00977D02*
X00349D01*
X00326Y-00997D02*
X00347D01*
X00326Y-00978D02*
X00327Y-00977D01*
X0202Y-00181D02*
X02021Y-00181D01*
X01886Y-00181D02*
X01886Y-00181D01*
X01749Y-00181D02*
X01749Y-00181D01*
X01092Y-00181D02*
X01092Y-00181D01*
X00531Y-0018D02*
X00532Y-00181D01*
X00513Y-0018D02*
X00531D01*
X00513Y-0018D02*
X00513Y-0018D01*
X00393Y-00181D02*
X00393Y-00181D01*
X00374Y-00181D02*
X00393D01*
X00374Y-00181D02*
X00374Y-00181D01*
X00497Y-0018D02*
X00513D01*
X00477D02*
X00497D01*
X00359Y-00181D02*
X00374D01*
X00586Y-00498D02*
X00736Y-00349D01*
X0186D02*
X02001Y-00207D01*
X00736Y-00349D02*
X0186D01*
X0185Y-00337D02*
X01981Y-00205D01*
X00731Y-00337D02*
X0185D01*
X01981Y-00205D02*
Y-00181D01*
X02001Y-00207D02*
Y-00181D01*
X00721Y-00313D02*
X01738D01*
X01847Y-00204D02*
Y-00181D01*
X01738Y-00313D02*
X01847Y-00204D01*
X0175Y-00325D02*
X01866Y-00208D01*
Y-00182*
X01867Y-00181*
X00726Y-00325D02*
X0175D01*
X00715Y-00301D02*
X01628D01*
X01728Y-00182D02*
X01729Y-00181D01*
X01728Y-002D02*
Y-00182D01*
X01709Y-00202D02*
Y-00181D01*
X01628Y-00301D02*
X01728Y-002D01*
X00565Y-00435D02*
X00581D01*
X00715Y-00301*
X00565Y-0053D02*
X00589D01*
X00565Y-00483D02*
X00585D01*
X00583Y-00451D02*
X00721Y-00313D01*
X00585Y-00483D02*
X00731Y-00337D01*
X00584Y-00467D02*
X00726Y-00325D01*
X00565Y-00546D02*
X0059D01*
X00565Y-00467D02*
X00584D01*
X00565Y-00451D02*
X00583D01*
X00565Y-00498D02*
X00586D01*
X00565Y-00451D02*
X00565Y-00451D01*
X00565Y-00435D02*
X00565Y-00435D01*
X00438Y-00403D02*
Y-00272D01*
X00454Y-00403D02*
Y-00276D01*
X0047Y-00403D02*
Y-00284D01*
X00485Y-00403D02*
Y-00291D01*
X00501Y-00403D02*
Y-00298D01*
X00517Y-00403D02*
Y-00302D01*
X00422Y-00392D02*
Y-00267D01*
X00438Y-00211D02*
Y-0018D01*
X00391Y-00258D02*
X00438Y-00211D01*
X00407Y-00259D02*
X00458Y-00208D01*
X00391Y-00403D02*
Y-00258D01*
X00458Y-00208D02*
Y-0018D01*
X00407Y-00403D02*
Y-00259D01*
X01255Y-00184D02*
X01258Y-00181D01*
X01238Y-00188D02*
Y-00181D01*
X01069Y-00184D02*
X01072Y-00181D01*
X0105Y-00193D02*
Y-00184D01*
X01053Y-00181*
X00572Y-00188D02*
Y-0018D01*
X00299Y-00181D02*
X00301Y-00182D01*
Y-002D02*
Y-00182D01*
X00359Y-00403D02*
Y-00259D01*
X00301Y-002D02*
X00359Y-00259D01*
X00375Y-00403D02*
Y-00258D01*
X00319Y-00202D02*
X00375Y-00258D01*
X00319Y-00202D02*
Y-00181D01*
X00589Y-00183D02*
X00592Y-0018D01*
X00589Y-00196D02*
Y-00183D01*
X00422Y-00403D02*
X00422Y-00403D01*
X00422Y-00392D02*
X00422Y-00392D01*
Y-00403D02*
Y-00392D01*
X00242Y-00905D02*
X00243Y-00904D01*
X00242Y-00921D02*
Y-00905D01*
X00241Y-00922D02*
X00242Y-00921D01*
X00243Y-00793D02*
Y-00779D01*
X00241Y-00795D02*
X00243Y-00793D01*
X00142Y-00671D02*
X00177Y-00706D01*
Y-00727D02*
X00207Y-00757D01*
X00177Y-00727D02*
Y-00706D01*
X00144Y-00703D02*
X00165Y-00724D01*
Y-00735D02*
Y-00724D01*
Y-00735D02*
X00195Y-00765D01*
X00131Y-00703D02*
X00144D01*
X00124Y-00727D02*
X00135D01*
X00124Y-00759D02*
X00135D01*
X00171Y-00795*
X00135Y-00727D02*
X00183Y-00775D01*
X00195Y-00814D02*
Y-00765D01*
Y-00814D02*
X00228Y-00847D01*
X00241Y-00955D02*
X00243Y-00958D01*
X00241Y-00847D02*
X00244Y-0085D01*
X00228Y-00847D02*
X00241D01*
X00207Y-00806D02*
Y-00757D01*
X00228Y-00827D02*
X00241D01*
X00207Y-00806D02*
X00228Y-00827D01*
X00131Y-00671D02*
X00142D01*
X00241Y-00827D02*
X00244Y-0083D01*
X00124Y-00664D02*
X00131Y-00671D01*
X00195Y-0068D02*
X00202Y-00686D01*
X00193Y-0068D02*
X00195D01*
X0018Y-00667D02*
Y-00647D01*
Y-00667D02*
X00193Y-0068D01*
X00202Y-00687D02*
Y-00686D01*
X00278Y-00701D02*
Y-00657D01*
X00305Y-00631*
Y-00603*
X00293Y-00625D02*
Y-00598D01*
X00281Y-00603D02*
Y-00593D01*
X00257Y-0059D02*
X00267D01*
X00262Y-00622D02*
X00281Y-00603D01*
X00267Y-0059D02*
X00312Y-00546D01*
X00293Y-00598D02*
X00314Y-00577D01*
X00281Y-00593D02*
X00313Y-00561D01*
X00316Y-00593D02*
X00327D01*
X00314Y-00577D02*
X00327D01*
X00313Y-00561D02*
X00327D01*
X00312Y-00546D02*
X00327D01*
X00305Y-00603D02*
X00316Y-00593D01*
X00314Y-00467D02*
X00327D01*
G54D19*
X00852Y-01197D03*
X00853Y-01085D03*
G54D20*
X00171Y-00116D03*
X00139D03*
X00108D03*
X00076D03*
X02191D03*
X02222D03*
X02254D03*
X02285D03*
X0158D03*
X01549D03*
X01517D03*
X01486D03*
X00876D03*
X00844D03*
X00813D03*
X00781D03*
G54D21*
X0022Y-00041D03*
X00027D03*
X02142D03*
X02335D03*
X0163D03*
X01437D03*
X00925D03*
X00732D03*
G54D22*
X00038Y-0018D03*
Y-00208D03*
X00089Y-0018D03*
Y-00208D03*
X02275Y-00185D03*
Y-00212D03*
X02326Y-00185D03*
Y-00212D03*
X01758Y-00019D03*
Y-00047D03*
X01809Y-00019D03*
Y-00047D03*
X00584Y-00046D03*
Y-00018D03*
X00533Y-00046D03*
Y-00018D03*
X01146Y-00045D03*
Y-00017D03*
X01095Y-00045D03*
Y-00017D03*
X00413Y-00045D03*
Y-00017D03*
X00362Y-00045D03*
Y-00017D03*
X00109Y-00875D03*
Y-00848D03*
X00058Y-00875D03*
Y-00848D03*
X0006Y-00542D03*
Y-00569D03*
X00111Y-00542D03*
Y-00569D03*
X01997Y-00045D03*
Y-00017D03*
X01945Y-00045D03*
Y-00017D03*
X01255Y-00045D03*
Y-00017D03*
X01204Y-00045D03*
Y-00017D03*
G54D23*
X00268Y-00343D03*
X00269Y-00412D03*
G54D24*
X00169Y-00944D03*
X00151Y-00928D03*
G54D25*
X02244Y-00209D03*
Y-00186D03*
X00119Y-00206D03*
Y-00182D03*
X00151Y-00873D03*
Y-0085D03*
X00148Y-00567D03*
Y-00544D03*
X00088Y-00261D03*
Y-00285D03*
G54D26*
X01721Y-00033D03*
X01697D03*
X00619Y-00031D03*
X00643D03*
X01054D03*
X01031D03*
X00311Y-00034D03*
X00288D03*
X02054Y-00029D03*
X02077D03*
X0132Y-00031D03*
X01344D03*
G54D27*
X00057Y-00338D03*
G54D28*
X00076Y-00464D03*
X00038D03*
G54D29*
X00329Y-0014D03*
X00602Y-00139D03*
X01082Y-00142D03*
X01268Y-00142D03*
X01876Y-0014D03*
X0201Y-00141D03*
X01739Y-0014D03*
X00468Y-00139D03*
G54D30*
X00359Y-00181D03*
X00339D03*
X00319D03*
X00299D03*
Y-00099D03*
X00319D03*
X00339D03*
X00359D03*
X00631Y-00098D03*
X00611D03*
X00592D03*
X00572D03*
Y-0018D03*
X00592D03*
X00611D03*
X00631D03*
X01112Y-00183D03*
X01092D03*
X01072D03*
X01053D03*
Y-00101D03*
X01072D03*
X01092D03*
X01112D03*
X01297Y-00183D03*
X01277D03*
X01258D03*
X01238D03*
Y-001D03*
X01258D03*
X01277D03*
X01297D03*
X01906Y-00098D03*
X01886D03*
X01867D03*
X01847D03*
Y-00181D03*
X01867D03*
X01886D03*
X01906D03*
X0204Y-001D03*
X0202D03*
X02001D03*
X01981D03*
Y-00183D03*
X02001D03*
X0202D03*
X0204D03*
X01768Y-00098D03*
X01749D03*
X01729D03*
X01709D03*
Y-00181D03*
X01729D03*
X01749D03*
X01768D03*
X00497Y-00098D03*
X00477D03*
X00458D03*
X00438D03*
Y-0018D03*
X00458D03*
X00477D03*
X00497D03*
G54D31*
X00666Y-00096D03*
Y-00118D03*
Y-00183D03*
Y-0016D03*
X01146Y-00164D03*
Y-00186D03*
Y-00099D03*
Y-00122D03*
X01332Y-00121D03*
Y-00098D03*
X00532Y-00095D03*
Y-00118D03*
X02075Y-0012D03*
Y-00098D03*
X00532Y-00183D03*
Y-0016D03*
X01332Y-00185D03*
Y-00163D03*
X02075Y-00185D03*
Y-00163D03*
X01802Y-00119D03*
Y-00096D03*
X0194Y-00119D03*
Y-00096D03*
Y-00184D03*
Y-00161D03*
X01802Y-00184D03*
Y-00161D03*
X00392Y-00097D03*
Y-0012D03*
X00393Y-00186D03*
Y-00163D03*
G54D32*
X00407Y-01052D03*
X00496Y-0113D03*
X0054Y-01169D03*
G54D33*
X00549Y-0095D03*
G54D34*
X00489Y-00987D03*
Y-0095D03*
Y-00912D03*
X00608D03*
Y-0095D03*
Y-00987D03*
G54D35*
X00708Y-0081D03*
X00849D03*
X00708Y-00829D03*
X00849D03*
X00708Y-00849D03*
X00849D03*
X00708Y-00869D03*
X00849D03*
X00708Y-00889D03*
X00849D03*
X00708Y-00908D03*
X00849D03*
X00708Y-00928D03*
X00849D03*
G54D36*
X00779Y-00741D03*
Y-00997D03*
G54D37*
X00243Y-00938D03*
Y-00958D03*
Y-00978D03*
Y-00997D03*
X00326D03*
Y-00978D03*
Y-00958D03*
Y-00938D03*
X00244Y-00811D03*
Y-0083D03*
Y-0085D03*
Y-0087D03*
X00326D03*
Y-0085D03*
Y-0083D03*
Y-00811D03*
G54D38*
X00285Y-00968D03*
X00285Y-0084D03*
G54D39*
X00239Y-00904D03*
X00262D03*
X00331D03*
X00308D03*
X00241Y-00777D03*
X00263D03*
X0033D03*
X00308D03*
G54D40*
X00568Y-01054D03*
X00529D03*
X00218Y-00625D03*
X00258D03*
Y-0059D03*
X00218D03*
X00676Y-00596D03*
X00636D03*
G54D41*
X00761Y-00467D03*
Y-00417D03*
X00811Y-00467D03*
Y-00417D03*
X00861Y-00467D03*
Y-00417D03*
G54D42*
X00049Y-00808D03*
Y-00615D03*
G54D43*
X00124Y-00759D03*
Y-00727D03*
Y-00696D03*
Y-00664D03*
G54D44*
X00278Y-00701D03*
Y-00727D03*
X0018Y-00647D03*
Y-00622D03*
G54D45*
X00202Y-00687D03*
Y-0072D03*
X00228D03*
Y-00687D03*
G54D46*
X00315Y-00692D03*
Y-00732D03*
X00281Y-00502D03*
Y-00542D03*
X00561Y-00314D03*
Y-00353D03*
G54D47*
X00244Y-00502D03*
X00206D03*
G54D48*
X00629Y-00637D03*
X00683D03*
X00574Y-00688D03*
X00521D03*
G54D49*
X00446Y-00522D03*
G54D50*
X00533Y-00641D03*
X00517D03*
X00501D03*
X00485D03*
X0047D03*
X00454D03*
X00438D03*
X00422D03*
X00407D03*
X00391D03*
X00375D03*
X00359D03*
Y-00403D03*
X00375D03*
X00391D03*
X00407D03*
X00422D03*
X00438D03*
X00454D03*
X0047D03*
X00485D03*
X00501D03*
X00517D03*
X00533D03*
G54D51*
X00327Y-00609D03*
Y-00593D03*
Y-00577D03*
Y-00561D03*
Y-00546D03*
Y-0053D03*
Y-00514D03*
Y-00498D03*
Y-00483D03*
Y-00467D03*
Y-00451D03*
Y-00435D03*
X00565D03*
Y-00451D03*
Y-00467D03*
Y-00483D03*
Y-00498D03*
Y-00514D03*
Y-0053D03*
Y-00546D03*
Y-00561D03*
Y-00577D03*
Y-00593D03*
Y-00609D03*
G54D91*
X00813Y-01201D03*
G54D93*
X00076Y-00464D02*
X00077Y-00474D01*
X00081Y-00483*
X00087Y-00491*
X00095Y-00497*
X00104Y-00501*
X00113Y-00502*
X00206*
G54D94*
X00146Y-00964D03*
X00134Y-00954D03*
G54D95*
X00057Y-00265D03*
Y-00281D03*
G54D96*
X00648Y-00181D02*
X00666D01*
X01314Y-00182D02*
X01332D01*
Y-00183D02*
X01343Y-00195D01*
X01663D02*
X01676Y-00181D01*
X01679*
X00666Y-00183D02*
X00704Y-00222D01*
X00983D02*
X01023Y-00182D01*
X00704Y-00222D02*
X00983D01*
X01343Y-00195D02*
X01663D01*
X01313Y-00182D02*
X01314Y-00182D01*
X00684Y-00935D02*
Y-00929D01*
X00632Y-00987D02*
X00684Y-00935D01*
X00684Y-00929D02*
X00707D01*
X00579Y-01024D02*
X00612Y-0099D01*
X00608Y-00987D02*
X00632D01*
X00684Y-00929D02*
X00684Y-00929D01*
X00529Y-01051D02*
X00533D01*
X00529D02*
Y-01048D01*
Y-01054D02*
Y-01051D01*
X00554Y-01024D02*
X00579D01*
X00533Y-01051D02*
Y-01044D01*
X00554Y-01024*
X00608Y-00987D02*
X00608Y-00987D01*
X00489Y-01014D02*
Y-00987D01*
Y-01014D02*
X00522Y-01047D01*
X00708Y-00928D02*
Y-00908D01*
G54D97*
X00626Y-0064D02*
X00653Y-00667D01*
X00533Y-00384D02*
X00563Y-00354D01*
X00281Y-00502D02*
X00296D01*
X00308Y-00514*
X00327*
X00486Y-00683D02*
X00488Y-00685D01*
X00485Y-00641D02*
X00486Y-00642D01*
Y-00683D02*
Y-00642D01*
X00281Y-00541D02*
X00297D01*
X00308Y-0053*
X00485Y-00641D02*
Y-00609D01*
X00308Y-0053D02*
X00422D01*
X00653Y-00667D02*
X00656D01*
X00533Y-00403D02*
Y-00384D01*
X00533Y-0064D02*
X00626D01*
X00501Y-00666D02*
Y-00641D01*
Y-00666D02*
X00517Y-00682D01*
G54D98*
X00246Y-00502D02*
X00281D01*
G54D99*
X00565Y-00609D02*
X00624D01*
X00636Y-00597*
G54D100*
X00227Y-00251D03*
X00668Y-01237D03*
X02124Y-00291D03*
G54D101*
X00384Y-01124D03*
X00473Y-01201D03*
G54D102*
X00838Y-00768D03*
Y-00969D03*
G54D103*
X00711Y-00442D03*
X00911Y-00482D03*
Y-00402D03*
G54D104*
X00118Y-00622D03*
X00718Y-00716D03*
X00469Y-0082D03*
X00562Y-00749D03*
X02335Y-00261D03*
X01961Y-00333D03*
X02335Y-00332D03*
X01516Y-00246D03*
X0072Y-00134D03*
X00961Y-00133D03*
X00828Y-00178D03*
X00029Y-00145D03*
X00027Y-0071D03*
X00986Y-00697D03*
Y-01011D03*
Y-01304D03*
X00543D03*
X00262Y-01059D03*
X00761Y-00402D03*
X00196Y-00544D03*
X01785Y-001D03*
X00208Y-00994D03*
X00328Y-00388D03*
X02093Y-00037D03*
X02054Y-00104D03*
X02285Y-00098D03*
X02254Y-00097D03*
X02135Y-00113D03*
X01889Y-00021D03*
X01832Y-00021D03*
X01674Y-00096D03*
X01382Y-00103D03*
X01757Y-0014D03*
X0136Y-00035D03*
X01679Y-00181D03*
X01312Y-00102D03*
X01287Y-00142D03*
X01251Y-00142D03*
X011Y-00142D03*
X01067D03*
X01172Y-00021D03*
X01129Y-001D03*
X00364Y-00053D03*
X00656Y-00033D03*
X00458Y-00021D03*
X00489Y-00043D03*
X00253Y-00106D03*
X0033Y-00923D03*
X00331Y-00794D03*
X00025Y-00507D03*
X00253Y-00677D03*
X00346Y-0014D03*
X00645Y-001D03*
X00586Y-00139D03*
X00619Y-00139D03*
X00278Y-0075D03*
X00209Y-0087D03*
X02028Y-0014D03*
X01995Y-0014D03*
X01895Y-0014D03*
X01859D03*
X00485Y-00139D03*
X00451D03*
X00548Y-00975D03*
Y-00925D03*
X00284Y-00825D03*
X01023Y-00182D03*
X01313D03*
X00489Y-00902D03*
X00586Y-00309D03*
X00811Y-00482D03*
X00656Y-00485D03*
X00327Y-00353D03*
X0039Y-01072D03*
X00488Y-00685D03*
X02056Y-00183D03*
X01921Y-00181D03*
X01784Y-00181D03*
X01127Y-00182D03*
X00647Y-0018D03*
X00513D03*
X00374Y-00181D03*
X01862Y-00051D03*
X00108Y-00094D03*
X00076D03*
X01923Y-001D03*
X00515Y-00099D03*
X00375Y-001D03*
X00241Y-00795D03*
X00241Y-00922D03*
X00567Y-00363D03*
X00343Y-00689D03*
X00656Y-00667D03*
G54D105*
X00375Y-00451D03*
X00422D03*
X0047D03*
X00517D03*
X00375Y-00498D03*
X00422D03*
X0047D03*
X00517D03*
X00375Y-00546D03*
X00422D03*
X0047D03*
X00517D03*
X00375Y-00593D03*
X00422D03*
X0047D03*
X00517D03*
M02*