%FSTAX23Y23*%
%MOIN*%
%SFA1B1*%

%IPPOS*%
%ADD17C,0.010000*%
%ADD18C,0.006000*%
%ADD91C,0.030000*%
%ADD96C,0.015000*%
%ADD98C,0.020000*%
%ADD100C,0.090000*%
%ADD101C,0.035430*%
%ADD102C,0.012800*%
%ADD103C,0.061020*%
%ADD104C,0.024000*%
%ADD105C,0.025980*%
%LNdextrems_v1-1*%
%LPD*%
G36*
X01057Y-00017D02*
X00964Y-00111D01*
X00961Y-0011*
X00952Y-00112*
X00945Y-00117*
X0094Y-00124*
X00938Y-00133*
X0094Y-00141*
X00945Y-00148*
X00952Y-00153*
X00959Y-00155*
X00961Y-0016*
X00922Y-00199*
X00771*
X00731Y-00159*
X00732Y-00153*
X00735Y-0015*
X0074Y-00143*
X00742Y-00134*
X0074Y-00126*
X00735Y-00119*
X00733Y-00117*
Y-00081*
X00732Y-00075*
X00729Y-00071*
X00682Y-00024*
X00677Y-00021*
X00676Y-00021*
X00674Y-00018*
X00676Y-00013*
X01055*
X01057Y-00017*
G37*
G36*
X02348Y-00347D02*
X02143D01*
X02142Y-00342*
X02151Y-00339*
X02163Y-0033*
X02172Y-00318*
X02177Y-00305*
X02178Y-00296*
X02069*
X0207Y-00305*
X02075Y-00318*
X02084Y-0033*
X02096Y-00339*
X02105Y-00342*
X02104Y-00347*
X01015*
X01012Y-00348*
X01007Y-00344*
Y-00327*
X01067Y-00268*
X01336*
X01344Y-00266*
X0135Y-00262*
X01362Y-0025*
X01366Y-00244*
X01368Y-00236*
Y-0016*
X01662*
X01664Y-00165*
X01663Y-00165*
X01658Y-00172*
X01656Y-00181*
X01658Y-0019*
X01663Y-00197*
X0167Y-00202*
X01679Y-00203*
X01687Y-00202*
X01692Y-00199*
X0177*
X01775Y-00202*
X01784Y-00204*
X01792Y-00202*
X01797Y-00199*
X01909*
X01913Y-00201*
X01921Y-00203*
X0193Y-00201*
X01933Y-00199*
X0204*
X0204Y-00199*
X02048Y-00204*
X02056Y-00206*
X02065Y-00204*
X02072Y-00199*
X02077Y-00192*
X02079Y-00183*
X02077Y-00175*
X02072Y-00167*
X02065Y-00162*
X02056Y-00161*
X02048Y-00162*
X02046Y-00163*
X01935*
X0193Y-0016*
X01921Y-00158*
X01913Y-0016*
X01908Y-00163*
X01796*
X01792Y-0016*
X01784Y-00159*
X01775Y-0016*
X01771Y-00163*
X01692*
X01688Y-00161*
X01687Y-00158*
Y-00155*
X0169Y-00154*
X01724Y-0012*
X01775*
X01776Y-0012*
X01785Y-00122*
X01785Y-00122*
X01785Y-00122*
X02042*
X02046Y-00124*
X02054Y-00126*
X02063Y-00124*
X0207Y-00119*
X02074Y-00114*
X0208Y-00113*
X02115Y-00148*
X0212Y-00152*
X02126Y-00153*
X02214*
X0222Y-00152*
X02225Y-00148*
X02253Y-0012*
X02254Y-0012*
X02262Y-00118*
X02269Y-00114*
X02269Y-00114*
X02277Y-00119*
X02285Y-0012*
X02294Y-00119*
X02301Y-00114*
X02306Y-00107*
X02308Y-00098*
X02306Y-00089*
X02301Y-00082*
X02294Y-00077*
X02286Y-00076*
X02228Y-00017*
X0223Y-00013*
X02348*
Y-00347*
G37*
G36*
X01327Y-00148D02*
Y-00159D01*
X01323Y-00161*
X01322Y-00161*
X01313Y-00159*
X01305Y-00161*
X01301Y-00163*
X0114*
X01136Y-00161*
X01127Y-00159*
X01119Y-00161*
X01114Y-00164*
X01035*
X01031Y-00161*
X01026Y-0016*
X01024Y-00154*
X01056Y-00122*
X01301*
X01327Y-00148*
G37*
G36*
X0013Y-00017D02*
X00076Y-00071D01*
X00068Y-00073*
X0006Y-00078*
X00056Y-00085*
X00054Y-00094*
X00056Y-00102*
X0006Y-00109*
X00068Y-00114*
X00076Y-00116*
X00085Y-00114*
X00092Y-00109*
X00099Y-00114*
X00108Y-00116*
X00116Y-00114*
X00124Y-00109*
X00128Y-00102*
X0013Y-00094*
X0013Y-00093*
X00178Y-00045*
X00289*
X00291Y-00049*
X00256Y-00084*
X00253Y-00084*
X00244Y-00086*
X00237Y-0009*
X00232Y-00098*
X0023Y-00106*
X00232Y-00115*
X00237Y-00122*
X00244Y-00127*
X00253Y-00129*
X00261Y-00127*
X00269Y-00122*
X00273Y-00115*
X00275Y-00106*
X00274Y-00103*
X00312Y-00066*
X00346*
X00348Y-00068*
X00355Y-00073*
X00364Y-00075*
X00364Y-00075*
X00366Y-0008*
X00359Y-00084*
X00354Y-00091*
X00353Y-001*
X00354Y-00108*
X00359Y-00116*
X00367Y-0012*
X00375Y-00122*
X00377Y-00122*
X00377Y-00122*
X00637*
X00748Y-00234*
X00755Y-00238*
X00763Y-0024*
X0093*
X00935Y-00239*
X00937Y-00241*
X00938Y-00243*
X00937Y-0025*
Y-00365*
X00932Y-00367*
X00931Y-00366*
X00921Y-00362*
X00911Y-00361*
X009Y-00362*
X0089Y-00366*
X00882Y-00373*
X00875Y-00381*
X00871Y-00391*
X0087Y-00402*
X00871Y-00412*
X00875Y-00422*
X00882Y-00431*
X0089Y-00437*
X00895Y-00439*
Y-00444*
X0089Y-00446*
X00882Y-00453*
X00875Y-00461*
X00871Y-00471*
X0087Y-00482*
X00871Y-00492*
X00875Y-00502*
X00882Y-00511*
X0089Y-00517*
X009Y-00521*
X00911Y-00523*
X00921Y-00521*
X00931Y-00517*
X00932Y-00516*
X00937Y-00518*
Y-00579*
X00867Y-00649*
X00674*
Y-00498*
X00677Y-00493*
X00678Y-00485*
X00677Y-00476*
X00675Y-00473*
X00675Y-0047*
X00681Y-00469*
X00682Y-00471*
X0069Y-00477*
X007Y-00481*
X00711Y-00483*
X00721Y-00481*
X00731Y-00477*
X00739Y-00471*
X00746Y-00462*
X0075Y-00452*
X00751Y-00448*
X00756Y-00446*
X00789Y-00479*
X00788Y-00482*
X0079Y-0049*
X00795Y-00498*
X00802Y-00502*
X00811Y-00504*
X00819Y-00502*
X00826Y-00498*
X00831Y-0049*
X00833Y-00482*
X00831Y-00473*
X00826Y-00466*
X00819Y-00461*
X00811Y-00459*
X00807Y-0046*
X00772Y-00425*
X00773Y-0042*
X00776Y-00418*
X00781Y-0041*
X00783Y-00402*
X00781Y-00393*
X00776Y-00386*
X00769Y-00381*
X00761Y-00379*
X00757Y-0038*
X00698Y-0032*
X00694Y-00318*
X00689Y-00317*
X0035*
X00345Y-00318*
X00341Y-0032*
X0033Y-00331*
X00327Y-00331*
X00318Y-00332*
X00311Y-00337*
X00306Y-00344*
X00304Y-00353*
X00306Y-00362*
X0031Y-00367*
X00312Y-00372*
X00307Y-00379*
X00305Y-00388*
X00307Y-00397*
X00312Y-00404*
X00319Y-00409*
X00328Y-0041*
X00336Y-00409*
X00343Y-00404*
X00348Y-00397*
X0035Y-00388*
X0035Y-00386*
X00381Y-00355*
X00542*
X00545Y-00359*
X00544Y-00363*
X00546Y-00371*
X00551Y-00379*
X00558Y-00384*
X00563Y-00385*
X00638Y-00459*
Y-00472*
X00635Y-00476*
X00633Y-00485*
X00635Y-00493*
X00638Y-00498*
Y-00639*
X0038*
X00374Y-0064*
X00369Y-00643*
X00345Y-00667*
X00343Y-00667*
X00334Y-00668*
X00327Y-00673*
X00322Y-0068*
X0032Y-00689*
X00322Y-00698*
X00327Y-00705*
X00334Y-0071*
X00343Y-00711*
X00351Y-0071*
X00359Y-00705*
X00363Y-00698*
X00365Y-00691*
X00386Y-00669*
X00634*
X00635Y-00675*
X00638Y-0068*
Y-00728*
X00486Y-0088*
X00481Y-00881*
X00474Y-00886*
X00469Y-00893*
X00467Y-00902*
X00469Y-0091*
X00474Y-00918*
X00481Y-00922*
X00489Y-00924*
X00498Y-00922*
X00505Y-00918*
X0051Y-0091*
X00511Y-00905*
X00668Y-00748*
X00672Y-00742*
X00674Y-00735*
Y-00685*
X00874*
X00881Y-00683*
X00887Y-00679*
X00962Y-00604*
X00967Y-00606*
Y-00612*
X00858Y-00721*
X00854Y-00727*
X00852Y-00735*
Y-00745*
X00848Y-00748*
X00846Y-00747*
X00838Y-00745*
X00829Y-00747*
X00821Y-00752*
X00816Y-0076*
X00814Y-00768*
X00816Y-00777*
X00821Y-00785*
X00829Y-0079*
X00838Y-00792*
X00846Y-0079*
X00848Y-00789*
X00852Y-00791*
Y-00946*
X00848Y-00949*
X00846Y-00948*
X00838Y-00946*
X00829Y-00948*
X00821Y-00953*
X00816Y-0096*
X00814Y-00969*
X00816Y-00978*
X00821Y-00986*
X00829Y-00991*
X00838Y-00992*
X00846Y-00991*
X00848Y-0099*
X00852Y-00992*
Y-01132*
X00808Y-01176*
X00803Y-01177*
X00794Y-01182*
X00794Y-01183*
X00782*
X00714Y-01115*
X00708Y-01111*
X00702Y-0111*
X00453*
X00411Y-01068*
X0041Y-01063*
X00405Y-01056*
X00398Y-01051*
X00393Y-0105*
X00262Y-00919*
X00261Y-00914*
X00258Y-00909*
Y-00807*
X00261Y-00803*
X00263Y-00795*
X00262Y-00791*
X00265Y-00787*
X00298*
X00309Y-00798*
X0031Y-00802*
X00315Y-0081*
X00317Y-00811*
Y-00905*
X00314Y-00907*
X00309Y-00914*
X00308Y-00923*
X00309Y-00931*
X00314Y-00938*
X00321Y-00943*
X0033Y-00945*
X00339Y-00943*
X00346Y-00938*
X00351Y-00931*
X00353Y-00923*
X00351Y-00914*
X00346Y-00907*
X00343Y-00905*
Y-00812*
X00347Y-0081*
X00351Y-00802*
X00353Y-00794*
X00351Y-00785*
X00347Y-00778*
X00339Y-00773*
X00331Y-00771*
X00322Y-00773*
X00322Y-00773*
X00313Y-00764*
X00309Y-00761*
X00304Y-0076*
X00232*
X00227Y-00761*
X00223Y-00764*
X00178Y-00809*
X00175Y-00813*
X00174Y-00818*
Y-00886*
X00175Y-00891*
X00178Y-00895*
X00195Y-00912*
Y-00976*
X00192Y-00978*
X00187Y-00985*
X00185Y-00994*
X00187Y-01002*
X00191Y-01009*
X00188Y-01012*
X00013Y-0086*
Y-0049*
X0002*
X00024Y-00489*
X00028Y-00487*
X0003Y-00484*
X00031Y-0048*
Y-00455*
X00085*
Y-0048*
X00086Y-00484*
X00088Y-00487*
X00091Y-00489*
X00095Y-0049*
X00177*
X00181Y-00489*
X00184Y-00487*
X00186Y-00484*
X00187Y-0048*
Y-00322*
X00186Y-00319*
X00184Y-00315*
X00181Y-00313*
X00177Y-00312*
X00091*
X00087Y-00313*
X00084Y-00315*
X00082Y-00319*
X00081Y-00322*
Y-00348*
X00031*
Y-00322*
X0003Y-00319*
X00028Y-00315*
X00024Y-00313*
X0002Y-00312*
X00013*
Y-00013*
X00128*
X0013Y-00017*
G37*
G36*
X01001Y-00642D02*
Y-01318D01*
X00539*
X00191Y-01015*
X00194Y-01011*
X00199Y-01015*
X00208Y-01016*
X00216Y-01015*
X00224Y-0101*
X00229Y-01002*
X0023Y-00994*
X00229Y-00985*
X00224Y-00978*
X00221Y-00976*
Y-00941*
X00226Y-00939*
X00232Y-00943*
X00237Y-00944*
X00368Y-01075*
X00369Y-0108*
X00374Y-01087*
X00379Y-01091*
X00378Y-01096*
X00375Y-01097*
X00368Y-011*
X00363Y-01105*
X00359Y-01111*
X00357Y-01118*
X00356Y-01125*
X00357Y-01133*
X00361Y-01139*
X00366Y-01145*
X00372Y-01149*
X00379Y-01151*
X00386Y-01151*
X00393Y-0115*
X004Y-01147*
X00405Y-01142*
X00409Y-01136*
X00411Y-01129*
X00412Y-01126*
X00417Y-01124*
X00433Y-0114*
X00439Y-01144*
X00446Y-01145*
X00446*
X00694*
X00762Y-01213*
X00768Y-01217*
X00775Y-01218*
X00794*
X00794Y-01219*
X00803Y-01224*
X00813Y-01226*
X00822Y-01224*
X00831Y-01219*
X00836Y-0121*
X00837Y-01205*
X00887Y-01155*
X00891Y-01148*
X00893Y-01141*
Y-00744*
X00997Y-0064*
X01001Y-00642*
G37*
%LNdextrems_v1-2*%
%LPC*%
G36*
X02129Y-00236D02*
Y-00286D01*
X02178*
X02177Y-00276*
X02172Y-00263*
X02163Y-00251*
X02151Y-00242*
X02138Y-00237*
X02129Y-00236*
G37*
G36*
X02119D02*
X02109Y-00237D01*
X02096Y-00242*
X02084Y-00251*
X02075Y-00263*
X0207Y-00276*
X02069Y-00286*
X02119*
Y-00236*
G37*
G36*
X00647Y-00158D02*
X00639Y-0016D01*
X00633Y-00163*
X00527*
X00521Y-0016*
X00513Y-00158*
X00504Y-0016*
X00498Y-00163*
X00387*
X00383Y-0016*
X00374Y-00159*
X00365Y-0016*
X00358Y-00165*
X00353Y-00173*
X00351Y-00181*
X00353Y-0019*
X00358Y-00197*
X00365Y-00202*
X00374Y-00204*
X00383Y-00202*
X00387Y-00199*
X00501*
X00504Y-00201*
X00513Y-00203*
X00521Y-00201*
X00524Y-00199*
X00636*
X00639Y-00201*
X00647Y-00203*
X00656Y-00201*
X00663Y-00196*
X00668Y-00189*
X0067Y-0018*
X00668Y-00172*
X00663Y-00164*
X00656Y-0016*
X00647Y-00158*
G37*
G36*
X00232Y-00196D02*
Y-00246D01*
X00282*
X00281Y-00236*
X00275Y-00223*
X00266Y-00211*
X00255Y-00202*
X00242Y-00197*
X00232Y-00196*
G37*
G36*
X00222D02*
X00213Y-00197D01*
X00199Y-00202*
X00188Y-00211*
X00179Y-00223*
X00174Y-00236*
X00172Y-00246*
X00222*
Y-00196*
G37*
G36*
X00282Y-00256D02*
X00232D01*
Y-00305*
X00242Y-00304*
X00255Y-00299*
X00266Y-0029*
X00275Y-00278*
X00281Y-00265*
X00282Y-00256*
G37*
G36*
X00222D02*
X00172D01*
X00174Y-00265*
X00179Y-00278*
X00188Y-0029*
X00199Y-00299*
X00213Y-00304*
X00222Y-00305*
Y-00256*
G37*
G36*
X00471Y-01173D02*
X00464Y-01175D01*
X00457Y-01178*
X00452Y-01183*
X00448Y-01189*
X00446Y-01196*
X00445Y-01203*
X00446Y-0121*
X0045Y-01217*
X00455Y-01222*
X00461Y-01226*
X00468Y-01229*
X00475Y-01229*
X00482Y-01228*
X00489Y-01224*
X00494Y-0122*
X00498Y-01213*
X005Y-01207*
X00501Y-01199*
X00499Y-01192*
X00496Y-01186*
X00491Y-0118*
X00485Y-01176*
X00478Y-01174*
X00471Y-01173*
G37*
G36*
X00673Y-01182D02*
Y-01232D01*
X00722*
X00721Y-01223*
X00716Y-01209*
X00707Y-01198*
X00695Y-01189*
X00682Y-01184*
X00673Y-01182*
G37*
G36*
X00663D02*
X00653Y-01184D01*
X0064Y-01189*
X00628Y-01198*
X00619Y-01209*
X00614Y-01223*
X00613Y-01232*
X00663*
Y-01182*
G37*
G36*
X00722Y-01242D02*
X00673D01*
Y-01292*
X00682Y-01291*
X00695Y-01285*
X00707Y-01276*
X00716Y-01265*
X00721Y-01251*
X00722Y-01242*
G37*
G36*
X00663D02*
X00613D01*
X00614Y-01251*
X00619Y-01265*
X00628Y-01276*
X0064Y-01285*
X00653Y-01291*
X00663Y-01292*
Y-01242*
G37*
%LNdextrems_v1-3*%
%LPD*%
G54D17*
X00343Y-00691D02*
X0038Y-00654D01*
X01899Y-00014D02*
X02202D01*
X02039Y-00051D02*
X02126Y-00138D01*
X02214*
X02254Y-00097*
X01889Y-00021D02*
X01892D01*
X01899Y-00014*
X02202D02*
X02285Y-00096D01*
X01862Y-00051D02*
X02039D01*
X02285Y-00098D02*
Y-00096D01*
X00387Y-00044D02*
X00489D01*
X00172Y-0003D02*
X00373D01*
X00387Y-00044*
X00108Y-00094D02*
X00172Y-0003D01*
X00451Y-00014D02*
X00458Y-00021D01*
X00155Y-00014D02*
X00451D01*
X00076Y-00092D02*
X00155Y-00014D01*
X00489Y-00044D02*
X00489Y-00043D01*
X00076Y-00094D02*
Y-00092D01*
X00643Y-00654D02*
X00656Y-00667D01*
X0038Y-00654D02*
X00643D01*
G54D18*
X0072Y-00134D02*
Y-00081D01*
X00961Y-00133D02*
X01072Y-00021D01*
X00689Y-0033D02*
X00761Y-00402D01*
X0035Y-0033D02*
X00689D01*
X00671Y-00342D02*
X00811Y-00482D01*
X00375Y-00342D02*
X00671D01*
X00811Y-00482D02*
D01*
X00188Y-00886D02*
X00208Y-00906D01*
Y-00994D02*
Y-00906D01*
X00328Y-00388D02*
X00329D01*
X02094Y-00072D02*
Y-00037D01*
X02093Y-00037D02*
X02094Y-00037D01*
Y-00072D02*
X02135Y-00113D01*
X00232Y-00774D02*
X00304D01*
X00188Y-00818D02*
X00232Y-00774D01*
X00188Y-00886D02*
Y-00818D01*
X01711Y-00059D02*
X01795D01*
X01832Y-00021*
X01674Y-00096D02*
X01711Y-00059D01*
X0136Y-00081D02*
Y-00035D01*
Y-00081D02*
X01382Y-00103D01*
X01072Y-00021D02*
X01172D01*
X00253Y-00106D02*
X00306Y-00053D01*
X00364*
X00656Y-00033D02*
X00656Y-00033D01*
X00672*
X0072Y-00081*
X0033Y-00923D02*
Y-00794D01*
X00331Y-00794*
X00324D02*
X00331D01*
X00304Y-00774D02*
X00324Y-00794D01*
X01784Y-00181D02*
X01784Y-00181D01*
X01784Y-00181D02*
X01784Y-00181D01*
X00375Y-001D02*
X00377Y-00102D01*
X01921Y-00181D02*
X01921Y-00181D01*
X00329Y-00388D02*
X00375Y-00342D01*
X00327Y-00353D02*
X0035Y-0033D01*
X00241Y-00795D02*
X00241Y-00795D01*
Y-00922D02*
X00241Y-00922D01*
X0039Y-01072D02*
Y-01071D01*
X00241Y-00922D02*
Y-00922D01*
G54D91*
X00813Y-01201D03*
G54D96*
X00446Y-01128D02*
X00702D01*
X00775Y-01201D02*
X00813D01*
X00702Y-01128D02*
X00775Y-01201D01*
X0039Y-01072D02*
X00446Y-01128D01*
X00955Y-005D02*
X00955Y-005D01*
X00874Y-00667D02*
X00955Y-00587D01*
Y-005*
Y-0025D02*
X01023Y-00182D01*
X00955Y-005D02*
Y-00384D01*
X00955Y-00384D02*
Y-0025D01*
Y-00384D02*
X00955Y-00384D01*
X01922Y-00181D02*
X02056D01*
X01679Y-00181D02*
X01784D01*
X01127Y-00181D02*
X01313D01*
X00656Y-00485D02*
Y-00452D01*
Y-00667D02*
Y-00485D01*
X00374Y-00181D02*
X00647D01*
X00656Y-00667D02*
X00874D01*
X01023Y-00182D02*
X01127D01*
X00656Y-00735D02*
Y-00667D01*
X00489Y-00902D02*
X00656Y-00735D01*
X01784Y-00181D02*
X01921D01*
X01921Y-00181D02*
X01922Y-00181D01*
X00567Y-00363D02*
X00656Y-00452D01*
X00241Y-00922D02*
Y-00795D01*
X00241Y-00922D02*
X0039Y-01071D01*
G54D98*
X00645Y-00102D02*
X00763Y-00219D01*
X0093*
X01048Y-00102*
X00813Y-01201D02*
X00873Y-01141D01*
Y-00735D02*
X00987Y-00621D01*
X00873Y-01141D02*
Y-00735D01*
X00987Y-00621D02*
Y-00319D01*
X01059Y-00248*
X01336*
X01785Y-00102D02*
X01923D01*
X00377D02*
X00515D01*
X01923D02*
X02053D01*
X00515D02*
X00645D01*
X01048D02*
X01129D01*
X01312*
X01715Y-001D02*
X01785D01*
X01676Y-00139D02*
X01715Y-001D01*
X01348Y-00139D02*
X01676D01*
X01312Y-00103D02*
X01348Y-00139D01*
X01312Y-00103D02*
Y-00102D01*
X01348Y-00236D02*
Y-00139D01*
X01336Y-00248D02*
X01348Y-00236D01*
G54D100*
X00227Y-00251D03*
X00668Y-01237D03*
X02124Y-00291D03*
G54D101*
X00384Y-01124D03*
X00473Y-01201D03*
G54D102*
X00838Y-00768D03*
Y-00969D03*
G54D103*
X00711Y-00442D03*
X00911Y-00482D03*
Y-00402D03*
G54D104*
X00118Y-00622D03*
X00718Y-00716D03*
X00469Y-0082D03*
X00562Y-00749D03*
X02335Y-00261D03*
X01961Y-00333D03*
X02335Y-00332D03*
X01516Y-00246D03*
X0072Y-00134D03*
X00961Y-00133D03*
X00828Y-00178D03*
X00029Y-00145D03*
X00027Y-0071D03*
X00986Y-00697D03*
Y-01011D03*
Y-01304D03*
X00543D03*
X00262Y-01059D03*
X00761Y-00402D03*
X00196Y-00544D03*
X01785Y-001D03*
X00208Y-00994D03*
X00328Y-00388D03*
X02093Y-00037D03*
X02054Y-00104D03*
X02285Y-00098D03*
X02254Y-00097D03*
X02135Y-00113D03*
X01889Y-00021D03*
X01832Y-00021D03*
X01674Y-00096D03*
X01382Y-00103D03*
X01757Y-0014D03*
X0136Y-00035D03*
X01679Y-00181D03*
X01312Y-00102D03*
X01287Y-00142D03*
X01251Y-00142D03*
X011Y-00142D03*
X01067D03*
X01172Y-00021D03*
X01129Y-001D03*
X00364Y-00053D03*
X00656Y-00033D03*
X00458Y-00021D03*
X00489Y-00043D03*
X00253Y-00106D03*
X0033Y-00923D03*
X00331Y-00794D03*
X00025Y-00507D03*
X00253Y-00677D03*
X00346Y-0014D03*
X00645Y-001D03*
X00586Y-00139D03*
X00619Y-00139D03*
X00278Y-0075D03*
X00209Y-0087D03*
X02028Y-0014D03*
X01995Y-0014D03*
X01895Y-0014D03*
X01859D03*
X00485Y-00139D03*
X00451D03*
X00548Y-00975D03*
Y-00925D03*
X00284Y-00825D03*
X01023Y-00182D03*
X01313D03*
X00489Y-00902D03*
X00586Y-00309D03*
X00811Y-00482D03*
X00656Y-00485D03*
X00327Y-00353D03*
X0039Y-01072D03*
X00488Y-00685D03*
X02056Y-00183D03*
X01921Y-00181D03*
X01784Y-00181D03*
X01127Y-00182D03*
X00647Y-0018D03*
X00513D03*
X00374Y-00181D03*
X01862Y-00051D03*
X00108Y-00094D03*
X00076D03*
X01923Y-001D03*
X00515Y-00099D03*
X00375Y-001D03*
X00241Y-00795D03*
X00241Y-00922D03*
X00567Y-00363D03*
X00343Y-00689D03*
X00656Y-00667D03*
G54D105*
X00375Y-00451D03*
X00422D03*
X0047D03*
X00517D03*
X00375Y-00498D03*
X00422D03*
X0047D03*
X00517D03*
X00375Y-00546D03*
X00422D03*
X0047D03*
X00517D03*
X00375Y-00593D03*
X00422D03*
X0047D03*
X00517D03*
M02*