%FSTAX23Y23*%
%MOIN*%
%SFA1B1*%

%IPPOS*%
%AMD57*
4,1,4,0.013800,0.000900,-0.000900,0.013800,-0.013800,-0.000900,0.000900,-0.013800,0.013800,0.000900,0.0*
%
%AMD58*
4,1,4,-0.011600,-0.002800,-0.001200,-0.011900,0.011600,0.002800,0.001200,0.011900,-0.011600,-0.002800,0.0*
%
%AMD66*
4,1,4,0.008800,0.035500,-0.033900,-0.013500,-0.008800,-0.035500,0.033900,0.013500,0.008800,0.035500,0.0*
%
%ADD52R,0.156000X0.056000*%
%ADD53R,0.025680X0.045370*%
%ADD54R,0.041430X0.068990*%
%ADD55R,0.033560X0.021750*%
%ADD56R,0.056000X0.056000*%
G04~CAMADD=57~10~0.0~197.8~0.0~0.0~0.0~0.0~0~0.0~0.0~0.0~0.0~0~0.0~0.0~0.0~0.0~0~0.0~0.0~0.0~318.9~197.8~0.0*
%ADD57D57*%
G04~CAMADD=58~9~0.0~0.0~138.7~197.8~0.0~0.0~0~0.0~0.0~0.0~0.0~0~0.0~0.0~0.0~0.0~0~0.0~0.0~0.0~138.9~232.0~237.0*
%ADD58D58*%
%ADD59R,0.019780X0.019780*%
%ADD60R,0.019780X0.019780*%
%ADD61R,0.068990X0.037500*%
%ADD62R,0.031590X0.037500*%
%ADD63R,0.072930X0.045370*%
%ADD64R,0.017810X0.033560*%
%ADD65R,0.017810X0.016630*%
G04~CAMADD=66~9~0.0~0.0~650.6~335.6~0.0~0.0~0~0.0~0.0~0.0~0.0~0~0.0~0.0~0.0~0.0~0~0.0~0.0~0.0~48.9~678.0~709.0*
%ADD66D66*%
%ADD67R,0.074900X0.104430*%
%ADD68R,0.037500X0.021750*%
%ADD69R,0.068990X0.017810*%
%ADD70R,0.076870X0.037500*%
%ADD71R,0.033560X0.017810*%
%ADD72R,0.045370X0.072930*%
%ADD73R,0.016630X0.017810*%
%ADD74R,0.029620X0.025680*%
%ADD75C,0.039980*%
%ADD76R,0.068990X0.041430*%
%ADD77R,0.045370X0.025680*%
%ADD78R,0.022530X0.024110*%
%ADD79R,0.024500X0.026470*%
%ADD80R,0.025680X0.029620*%
%ADD81R,0.031590X0.025680*%
%ADD82R,0.035530X0.037500*%
%ADD83R,0.191040X0.191040*%
%ADD84O,0.013870X0.031590*%
%ADD85O,0.031590X0.013870*%
%ADD86R,0.019780X0.013870*%
%ADD87C,0.096000*%
%ADD88C,0.041430*%
%ADD89C,0.018800*%
%ADD90C,0.067020*%
%ADD91C,0.030000*%
%ADD92C,0.036000*%
%LNdextrems_v1-1*%
%LPD*%
G54D52*
X00852Y-01197D03*
X00853Y-01085D03*
G54D53*
X00171Y-00116D03*
X00139D03*
X00108D03*
X00076D03*
X02191D03*
X02222D03*
X02254D03*
X02285D03*
X0158D03*
X01549D03*
X01517D03*
X01486D03*
X00876D03*
X00844D03*
X00813D03*
X00781D03*
G54D54*
X0022Y-00041D03*
X00027D03*
X02142D03*
X02335D03*
X0163D03*
X01437D03*
X00925D03*
X00732D03*
G54D55*
X00038Y-0018D03*
Y-00208D03*
X00089Y-0018D03*
Y-00208D03*
X02275Y-00185D03*
Y-00212D03*
X02326Y-00185D03*
Y-00212D03*
X01758Y-00019D03*
Y-00047D03*
X01809Y-00019D03*
Y-00047D03*
X00584Y-00046D03*
Y-00018D03*
X00533Y-00046D03*
Y-00018D03*
X01146Y-00045D03*
Y-00017D03*
X01095Y-00045D03*
Y-00017D03*
X00413Y-00045D03*
Y-00017D03*
X00362Y-00045D03*
Y-00017D03*
X00109Y-00875D03*
Y-00848D03*
X00058Y-00875D03*
Y-00848D03*
X0006Y-00542D03*
Y-00569D03*
X00111Y-00542D03*
Y-00569D03*
X01997Y-00045D03*
Y-00017D03*
X01945Y-00045D03*
Y-00017D03*
X01255Y-00045D03*
Y-00017D03*
X01204Y-00045D03*
Y-00017D03*
G54D56*
X00268Y-00343D03*
X00269Y-00412D03*
G54D57*
X00169Y-00944D03*
X00151Y-00928D03*
G54D58*
X00146Y-00964D03*
X00134Y-00954D03*
G54D59*
X02244Y-00209D03*
Y-00186D03*
X00119Y-00206D03*
Y-00182D03*
X00151Y-00873D03*
Y-0085D03*
X00148Y-00567D03*
Y-00544D03*
X00088Y-00261D03*
Y-00285D03*
G54D60*
X01721Y-00033D03*
X01697D03*
X00619Y-00031D03*
X00643D03*
X01054D03*
X01031D03*
X00311Y-00034D03*
X00288D03*
X02054Y-00029D03*
X02077D03*
X0132Y-00031D03*
X01344D03*
G54D61*
X00057Y-00338D03*
G54D62*
X00076Y-00464D03*
X00038D03*
G54D63*
X00329Y-0014D03*
X00602Y-00139D03*
X01082Y-00142D03*
X01268Y-00142D03*
X01876Y-0014D03*
X0201Y-00141D03*
X01739Y-0014D03*
X00468Y-00139D03*
G54D64*
X00359Y-00181D03*
X00339D03*
X00319D03*
X00299D03*
Y-00099D03*
X00319D03*
X00339D03*
X00359D03*
X00631Y-00098D03*
X00611D03*
X00592D03*
X00572D03*
Y-0018D03*
X00592D03*
X00611D03*
X00631D03*
X01112Y-00183D03*
X01092D03*
X01072D03*
X01053D03*
Y-00101D03*
X01072D03*
X01092D03*
X01112D03*
X01297Y-00183D03*
X01277D03*
X01258D03*
X01238D03*
Y-001D03*
X01258D03*
X01277D03*
X01297D03*
X01906Y-00098D03*
X01886D03*
X01867D03*
X01847D03*
Y-00181D03*
X01867D03*
X01886D03*
X01906D03*
X0204Y-001D03*
X0202D03*
X02001D03*
X01981D03*
Y-00183D03*
X02001D03*
X0202D03*
X0204D03*
X01768Y-00098D03*
X01749D03*
X01729D03*
X01709D03*
Y-00181D03*
X01729D03*
X01749D03*
X01768D03*
X00497Y-00098D03*
X00477D03*
X00458D03*
X00438D03*
Y-0018D03*
X00458D03*
X00477D03*
X00497D03*
G54D65*
X00666Y-00096D03*
Y-00118D03*
Y-00183D03*
Y-0016D03*
X01146Y-00164D03*
Y-00186D03*
Y-00099D03*
Y-00122D03*
X01332Y-00121D03*
Y-00098D03*
X00532Y-00095D03*
Y-00118D03*
X02075Y-0012D03*
Y-00098D03*
X00532Y-00183D03*
Y-0016D03*
X01332Y-00185D03*
Y-00163D03*
X02075Y-00185D03*
Y-00163D03*
X01802Y-00119D03*
Y-00096D03*
X0194Y-00119D03*
Y-00096D03*
Y-00184D03*
Y-00161D03*
X01802Y-00184D03*
Y-00161D03*
X00392Y-00097D03*
Y-0012D03*
X00393Y-00186D03*
Y-00163D03*
G54D66*
X00407Y-01052D03*
X00496Y-0113D03*
X0054Y-01169D03*
G54D67*
X00549Y-0095D03*
G54D68*
X00489Y-00987D03*
Y-0095D03*
Y-00912D03*
X00608D03*
Y-0095D03*
Y-00987D03*
G54D69*
X00708Y-0081D03*
X00849D03*
X00708Y-00829D03*
X00849D03*
X00708Y-00849D03*
X00849D03*
X00708Y-00869D03*
X00849D03*
X00708Y-00889D03*
X00849D03*
X00708Y-00908D03*
X00849D03*
X00708Y-00928D03*
X00849D03*
G54D70*
X00779Y-00741D03*
Y-00997D03*
G54D71*
X00243Y-00938D03*
Y-00958D03*
Y-00978D03*
Y-00997D03*
X00326D03*
Y-00978D03*
Y-00958D03*
Y-00938D03*
X00244Y-00811D03*
Y-0083D03*
Y-0085D03*
Y-0087D03*
X00326D03*
Y-0085D03*
Y-0083D03*
Y-00811D03*
G54D72*
X00285Y-00968D03*
X00285Y-0084D03*
G54D73*
X00239Y-00904D03*
X00262D03*
X00331D03*
X00308D03*
X00241Y-00777D03*
X00263D03*
X0033D03*
X00308D03*
G54D74*
X00568Y-01054D03*
X00529D03*
X00218Y-00625D03*
X00258D03*
Y-0059D03*
X00218D03*
X00676Y-00596D03*
X00636D03*
G54D75*
X00761Y-00467D03*
Y-00417D03*
X00811Y-00467D03*
Y-00417D03*
X00861Y-00467D03*
Y-00417D03*
G54D76*
X00049Y-00808D03*
Y-00615D03*
G54D77*
X00124Y-00759D03*
Y-00727D03*
Y-00696D03*
Y-00664D03*
G54D78*
X00278Y-00701D03*
Y-00727D03*
X0018Y-00647D03*
Y-00622D03*
G54D79*
X00202Y-00687D03*
Y-0072D03*
X00228D03*
Y-00687D03*
G54D80*
X00315Y-00692D03*
Y-00732D03*
X00281Y-00502D03*
Y-00542D03*
X00561Y-00314D03*
Y-00353D03*
G54D81*
X00244Y-00502D03*
X00206D03*
G54D82*
X00629Y-00637D03*
X00683D03*
X00574Y-00688D03*
X00521D03*
G54D83*
X00446Y-00522D03*
G54D84*
X00533Y-00641D03*
X00517D03*
X00501D03*
X00485D03*
X0047D03*
X00454D03*
X00438D03*
X00422D03*
X00407D03*
X00391D03*
X00375D03*
X00359D03*
Y-00403D03*
X00375D03*
X00391D03*
X00407D03*
X00422D03*
X00438D03*
X00454D03*
X0047D03*
X00485D03*
X00501D03*
X00517D03*
X00533D03*
G54D85*
X00327Y-00609D03*
Y-00593D03*
Y-00577D03*
Y-00561D03*
Y-00546D03*
Y-0053D03*
Y-00514D03*
Y-00498D03*
Y-00483D03*
Y-00467D03*
Y-00451D03*
Y-00435D03*
X00565D03*
Y-00451D03*
Y-00467D03*
Y-00483D03*
Y-00498D03*
Y-00514D03*
Y-0053D03*
Y-00546D03*
Y-00561D03*
Y-00577D03*
Y-00593D03*
Y-00609D03*
G54D86*
X00057Y-00265D03*
Y-00281D03*
G54D87*
X00227Y-00251D03*
X00668Y-01237D03*
X02124Y-00291D03*
G54D88*
X00384Y-01124D03*
X00473Y-01201D03*
G54D89*
X00838Y-00768D03*
Y-00969D03*
G54D90*
X00711Y-00442D03*
X00911Y-00482D03*
Y-00402D03*
G54D91*
X00118Y-00622D03*
X00718Y-00716D03*
X00469Y-0082D03*
X00562Y-00749D03*
X02335Y-00261D03*
X01961Y-00333D03*
X02335Y-00332D03*
X01516Y-00246D03*
X0072Y-00134D03*
X00961Y-00133D03*
X00828Y-00178D03*
X00029Y-00145D03*
X00027Y-0071D03*
X00986Y-00697D03*
Y-01011D03*
Y-01304D03*
X00543D03*
X00262Y-01059D03*
X00761Y-00402D03*
X00196Y-00544D03*
X01785Y-001D03*
X00208Y-00994D03*
X00328Y-00388D03*
X02093Y-00037D03*
X02054Y-00104D03*
X02285Y-00098D03*
X02254Y-00097D03*
X02135Y-00113D03*
X01889Y-00021D03*
X01832Y-00021D03*
X01674Y-00096D03*
X01382Y-00103D03*
X01757Y-0014D03*
X0136Y-00035D03*
X01679Y-00181D03*
X01312Y-00102D03*
X01287Y-00142D03*
X01251Y-00142D03*
X011Y-00142D03*
X01067D03*
X01172Y-00021D03*
X01129Y-001D03*
X00364Y-00053D03*
X00656Y-00033D03*
X00458Y-00021D03*
X00489Y-00043D03*
X00253Y-00106D03*
X0033Y-00923D03*
X00331Y-00794D03*
X00025Y-00507D03*
X00253Y-00677D03*
X00346Y-0014D03*
X00645Y-001D03*
X00586Y-00139D03*
X00619Y-00139D03*
X00278Y-0075D03*
X00209Y-0087D03*
X02028Y-0014D03*
X01995Y-0014D03*
X01895Y-0014D03*
X01859D03*
X00485Y-00139D03*
X00451D03*
X00548Y-00975D03*
Y-00925D03*
X00284Y-00825D03*
X01023Y-00182D03*
X01313D03*
X00489Y-00902D03*
X00586Y-00309D03*
X00811Y-00482D03*
X00656Y-00485D03*
X00327Y-00353D03*
X0039Y-01072D03*
X00488Y-00685D03*
X02056Y-00183D03*
X01921Y-00181D03*
X01784Y-00181D03*
X01127Y-00182D03*
X00647Y-0018D03*
X00513D03*
X00374Y-00181D03*
X01862Y-00051D03*
X00108Y-00094D03*
X00076D03*
X01923Y-001D03*
X00515Y-00099D03*
X00375Y-001D03*
X00241Y-00795D03*
X00241Y-00922D03*
X00567Y-00363D03*
X00343Y-00689D03*
X00656Y-00667D03*
G54D92*
X00813Y-01201D03*
M02*