%FSTAX23Y23*%
%MOIN*%
%SFA1B1*%

%IPPOS*%
%ADD9500C,0.012000*%
%ADD9501C,0.012990*%
%ADD9502C,0.042010*%
%ADD9503C,0.025590*%
%ADD9504C,0.035430*%
%ADD9505C,0.086600*%
%LNdextrems_v1-1*%
%LPD*%
G54D9500*
X00986Y-01304D03*
Y-01011D03*
Y-00697D03*
X00718Y-00716D03*
X00656Y-00667D03*
X00562Y-00749D03*
X00488Y-00685D03*
X00343Y-00689D03*
X00253Y-00677D03*
X00278Y-0075D03*
X00284Y-00825D03*
X00241Y-00795D03*
X00331Y-00794D03*
X0033Y-00923D03*
X00241Y-00922D03*
X00209Y-0087D03*
X00208Y-00994D03*
X00262Y-01059D03*
X0039Y-01072D03*
X00548Y-00975D03*
Y-00925D03*
X00489Y-00902D03*
X00469Y-0082D03*
X00656Y-00485D03*
X00811Y-00482D03*
X00196Y-00544D03*
X00118Y-00622D03*
X00027Y-0071D03*
X00025Y-00507D03*
X00543Y-01304D03*
X00813Y-01201D03*
X00761Y-00402D03*
X00567Y-00363D03*
X00586Y-00309D03*
Y-00139D03*
X00619Y-00139D03*
X00645Y-001D03*
X00656Y-00033D03*
X00647Y-0018D03*
X0072Y-00134D03*
X00485Y-00139D03*
X00451D03*
X00513Y-0018D03*
X00515Y-00099D03*
X00489Y-00043D03*
X00458Y-00021D03*
X00364Y-00053D03*
X00375Y-001D03*
X00346Y-0014D03*
X00374Y-00181D03*
X00253Y-00106D03*
X00108Y-00094D03*
X00076D03*
X00029Y-00145D03*
X00327Y-00353D03*
X00328Y-00388D03*
X00828Y-00178D03*
X00961Y-00133D03*
X01023Y-00182D03*
X01067Y-00142D03*
X011D03*
X01127Y-00182D03*
X01129Y-001D03*
X01172Y-00021D03*
X01251Y-00142D03*
X01287Y-00142D03*
X01312Y-00102D03*
X01382Y-00103D03*
X0136Y-00035D03*
X01313Y-00182D03*
X01516Y-00246D03*
X01679Y-00181D03*
X01674Y-00096D03*
X01785Y-001D03*
X01757Y-0014D03*
X01784Y-00181D03*
X01859Y-0014D03*
X01895D03*
X01921Y-00181D03*
X01923Y-001D03*
X01862Y-00051D03*
X01889Y-00021D03*
X01832Y-00021D03*
X02093Y-00037D03*
X02054Y-00104D03*
X02028Y-0014D03*
X01995Y-0014D03*
X02056Y-00183D03*
X02135Y-00113D03*
X02254Y-00097D03*
X02285Y-00098D03*
X02335Y-00261D03*
Y-00332D03*
X01961Y-00333D03*
G54D9501*
X00375Y-00593D03*
Y-00546D03*
Y-00498D03*
Y-00451D03*
X00422D03*
X0047D03*
X00517D03*
Y-00498D03*
X0047D03*
X00422D03*
Y-00546D03*
Y-00593D03*
X0047D03*
Y-00546D03*
X00517D03*
Y-00593D03*
G54D9502*
X00911Y-00482D03*
X00711Y-00442D03*
X00911Y-00402D03*
G54D9503*
X00838Y-00969D03*
Y-00768D03*
G54D9504*
X00384Y-01124D03*
X00473Y-01201D03*
G54D9505*
X00668Y-01237D03*
X00227Y-00251D03*
X02124Y-00291D03*
M02*