%FSTAX23Y23*%
%MOIN*%
%SFA1B1*%

%IPPOS*%
%ADD15C,0.005000*%
%LNdextrems_v1-1*%
%LPD*%
G54D15*
X00944Y-01235D02*
Y-01254D01*
X00954*
X00957Y-01251*
Y-01244*
X00954Y-01241*
X00944*
X00928Y-01254D02*
X00935D01*
X00938Y-01251*
Y-01244*
X00935Y-01241*
X00928*
X00925Y-01244*
Y-01248*
X00938*
X00919Y-01241D02*
X00906Y-01254D01*
X00913Y-01248*
X00906Y-01241*
X00919Y-01254*
X00897Y-01238D02*
Y-01241D01*
X009*
X00894*
X00897*
Y-01251*
X00894Y-01254*
X00884Y-01241D02*
Y-01254D01*
Y-01248*
X00881Y-01244*
X00878Y-01241*
X00875*
X00852Y-01235D02*
X00865D01*
Y-01254*
X00852*
X00865Y-01244D02*
X00859D01*
X00846Y-01254D02*
Y-01235D01*
X0084Y-01241*
X00834Y-01235*
Y-01254*
X00815Y-01238D02*
X00818Y-01235D01*
X00824*
X00827Y-01238*
Y-01241*
X00824Y-01244*
X00818*
X00815Y-01248*
Y-01251*
X00818Y-01254*
X00824*
X00827Y-01251*
X00808Y-01257D02*
X00796D01*
X00789Y-01235D02*
Y-01248D01*
X00783Y-01254*
X00777Y-01248*
Y-01235*
X0077Y-01254D02*
X00764D01*
X00767*
Y-01235*
X0077Y-01238*
X00942Y-00574D02*
Y-00567D01*
Y-0057*
X00958*
X00961Y-00567*
Y-00564*
X00958Y-00561*
X00942Y-0058D02*
X00961D01*
Y-00593*
X00946Y-00612D02*
X00942Y-00608D01*
Y-00602*
X00946Y-00599*
X00958*
X00961Y-00602*
Y-00608*
X00958Y-00612*
X00942Y-00631D02*
Y-00624D01*
Y-00627*
X00958*
X00961Y-00624*
Y-00621*
X00958Y-00618*
X00942Y-00637D02*
X00961D01*
Y-00649*
X00946Y-00668D02*
X00942Y-00665D01*
Y-00659*
X00946Y-00656*
X00958*
X00961Y-00659*
Y-00665*
X00958Y-00668*
X00942Y-00687D02*
Y-00681D01*
Y-00684*
X00958*
X00961Y-00681*
Y-00678*
X00958Y-00675*
X00942Y-00694D02*
X00961D01*
Y-00706*
X00946Y-00725D02*
X00942Y-00722D01*
Y-00716*
X00946Y-00713*
X00958*
X00961Y-00716*
Y-00722*
X00958Y-00725*
X00942Y-00744D02*
Y-00738D01*
Y-00741*
X00958*
X00961Y-00738*
Y-00735*
X00958Y-00732*
X00942Y-00751D02*
X00961D01*
Y-00763*
X00946Y-00782D02*
X00942Y-00779D01*
Y-00773*
X00946Y-0077*
X00958*
X00961Y-00773*
Y-00779*
X00958Y-00782*
M02*